Chivo-LightItalic.ufo
<glyph name="exclam" format="1">
  <advance width="269"/>
  <unicode hex="0021"/>
  <outline>
    <contour>
      <point x="141" y="686" type="line"/>
      <point x="205" y="686" type="line"/>
      <point x="205" y="686"/>
      <point x="148" y="339"/>
      <point x="116" y="141" type="curve"/>
      <point x="75" y="141" type="line"/>
    </contour>
    <contour>
      <point x="118" y="69" type="line"/>
      <point x="108" y="0" type="line"/>
      <point x="43" y="0" type="line"/>
      <point x="53" y="69" type="line"/>
    </contour>
  </outline>
</glyph>
<glyph name="quotedbl" format="1">
  <advance width="363"/>
  <unicode hex="0022"/>
  <outline>
    <contour>
      <point x="126" y="686" type="line"/>
      <point x="178" y="686" type="line"/>
      <point x="157" y="539" type="line"/>
      <point x="128" y="414" type="line"/>
      <point x="98" y="414" type="line"/>
      <point x="105" y="539" type="line"/>
    </contour>
    <contour>
      <point x="259" y="686" type="line"/>
      <point x="311" y="686" type="line"/>
      <point x="290" y="539" type="line"/>
      <point x="261" y="414" type="line"/>
      <point x="231" y="414" type="line"/>
      <point x="238" y="539" type="line"/>
    </contour>
  </outline>
</glyph>
<glyph name="numbersign" format="1">
  <advance width="644"/>
  <unicode hex="0023"/>
  <outline>
    <contour>
      <point x="433" y="246" type="line"/>
      <point x="559" y="246" type="line"/>
      <point x="551" y="188" type="line"/>
      <point x="412" y="188" type="line"/>
      <point x="344" y="0" type="line"/>
      <point x="286" y="0" type="line"/>
      <point x="354" y="188" type="line"/>
      <point x="188" y="188" type="line"/>
      <point x="120" y="0" type="line"/>
      <point x="62" y="0" type="line"/>
      <point x="130" y="188" type="line"/>
      <point x="14" y="188" type="line"/>
      <point x="22" y="246" type="line"/>
      <point x="151" y="246" type="line"/>
      <point x="215" y="420" type="line"/>
      <point x="85" y="420" type="line"/>
      <point x="93" y="478" type="line"/>
      <point x="236" y="478" type="line"/>
      <point x="315" y="696" type="line"/>
      <point x="374" y="696" type="line"/>
      <point x="294" y="478" type="line"/>
      <point x="460" y="478" type="line"/>
      <point x="539" y="696" type="line"/>
      <point x="598" y="696" type="line"/>
      <point x="518" y="478" type="line"/>
      <point x="631" y="478" type="line"/>
      <point x="623" y="420" type="line"/>
      <point x="497" y="420" type="line"/>
    </contour>
    <contour>
      <point x="375" y="246" type="line"/>
      <point x="439" y="420" type="line"/>
      <point x="273" y="420" type="line"/>
      <point x="209" y="246" type="line"/>
    </contour>
  </outline>
</glyph>
<glyph name="dollar" format="1">
  <advance width="546"/>
  <unicode hex="0024"/>
  <outline>
    <contour>
      <point x="214" y="-66" type="line"/>
      <point x="235" y="19" type="line"/>
      <point x="121" y="23"/>
      <point x="33" y="63"/>
      <point x="33" y="171" type="curve" smooth="yes"/>
      <point x="33" y="186"/>
      <point x="35" y="210"/>
      <point x="38" y="218" type="curve"/>
      <point x="89" y="218" type="line"/>
      <point x="87" y="212"/>
      <point x="83" y="185"/>
      <point x="83" y="172" type="curve" smooth="yes"/>
      <point x="83" y="93"/>
      <point x="160" y="69"/>
      <point x="259" y="69" type="curve" smooth="yes"/>
      <point x="366" y="69"/>
      <point x="472" y="98"/>
      <point x="472" y="217" type="curve" smooth="yes"/>
      <point x="472" y="381"/>
      <point x="94" y="291"/>
      <point x="94" y="491" type="curve" smooth="yes"/>
      <point x="94" y="614"/>
      <point x="205" y="668"/>
      <point x="328" y="672" type="curve"/>
      <point x="328" y="762" type="line"/>
      <point x="381" y="762" type="line"/>
      <point x="358" y="672" type="line"/>
      <point x="466" y="669"/>
      <point x="549" y="629"/>
      <point x="549" y="532" type="curve" smooth="yes"/>
      <point x="549" y="524"/>
      <point x="548" y="515"/>
      <point x="545" y="494" type="curve"/>
      <point x="495" y="494" type="line"/>
      <point x="499" y="520"/>
      <point x="499" y="525"/>
      <point x="499" y="530" type="curve" smooth="yes"/>
      <point x="499" y="596"/>
      <point x="428" y="625"/>
      <point x="338" y="625" type="curve" smooth="yes"/>
      <point x="239" y="625"/>
      <point x="148" y="595"/>
      <point x="148" y="501" type="curve" smooth="yes"/>
      <point x="148" y="348"/>
      <point x="526" y="434"/>
      <point x="526" y="230" type="curve" smooth="yes"/>
      <point x="526" y="77"/>
      <point x="397" y="21"/>
      <point x="266" y="19" type="curve"/>
      <point x="266" y="-66" type="line"/>
    </contour>
  </outline>
</glyph>
<glyph name="percent" format="1">
  <advance width="700"/>
  <unicode hex="0025"/>
  <outline>
    <contour>
      <point x="317" y="566" type="curve" smooth="yes"/>
      <point x="301" y="456" type="line" smooth="yes"/>
      <point x="290" y="378"/>
      <point x="240" y="336"/>
      <point x="165" y="336" type="curve" smooth="yes"/>
      <point x="97" y="336"/>
      <point x="60" y="380"/>
      <point x="60" y="437" type="curve" smooth="yes"/>
      <point x="60" y="443"/>
      <point x="60" y="449"/>
      <point x="61" y="456" type="curve" smooth="yes"/>
      <point x="77" y="566" type="line" smooth="yes"/>
      <point x="89" y="645"/>
      <point x="138" y="686"/>
      <point x="214" y="686" type="curve" smooth="yes"/>
      <point x="281" y="686"/>
      <point x="318" y="642"/>
      <point x="318" y="585" type="curve" smooth="yes"/>
      <point x="318" y="579"/>
      <point x="318" y="572"/>
    </contour>
    <contour>
      <point x="75" y="0" type="line"/>
      <point x="589" y="686" type="line"/>
      <point x="648" y="686" type="line"/>
      <point x="135" y="0" type="line"/>
    </contour>
    <contour>
      <point x="251" y="452" type="curve" smooth="yes"/>
      <point x="267" y="570" type="line" smooth="yes"/>
      <point x="268" y="574"/>
      <point x="268" y="579"/>
      <point x="268" y="583" type="curve" smooth="yes"/>
      <point x="268" y="616"/>
      <point x="248" y="640"/>
      <point x="207" y="640" type="curve" smooth="yes"/>
      <point x="163" y="640"/>
      <point x="132" y="609"/>
      <point x="127" y="570" type="curve" smooth="yes"/>
      <point x="111" y="452" type="line" smooth="yes"/>
      <point x="110" y="448"/>
      <point x="110" y="444"/>
      <point x="110" y="440" type="curve" smooth="yes"/>
      <point x="110" y="407"/>
      <point x="132" y="382"/>
      <point x="171" y="382" type="curve" smooth="yes"/>
      <point x="216" y="382"/>
      <point x="246" y="413"/>
    </contour>
    <contour>
      <point x="660" y="229" type="curve" smooth="yes"/>
      <point x="644" y="119" type="line" smooth="yes"/>
      <point x="633" y="41"/>
      <point x="582" y="-1"/>
      <point x="507" y="-1" type="curve" smooth="yes"/>
      <point x="439" y="-1"/>
      <point x="403" y="43"/>
      <point x="403" y="100" type="curve" smooth="yes"/>
      <point x="403" y="106"/>
      <point x="403" y="112"/>
      <point x="404" y="119" type="curve" smooth="yes"/>
      <point x="420" y="229" type="line" smooth="yes"/>
      <point x="431" y="304"/>
      <point x="480" y="349"/>
      <point x="556" y="349" type="curve" smooth="yes"/>
      <point x="624" y="349"/>
      <point x="661" y="305"/>
      <point x="661" y="248" type="curve" smooth="yes"/>
      <point x="661" y="242"/>
      <point x="661" y="235"/>
    </contour>
    <contour>
      <point x="594" y="115" type="curve" smooth="yes"/>
      <point x="610" y="233" type="line" smooth="yes"/>
      <point x="611" y="237"/>
      <point x="611" y="242"/>
      <point x="611" y="246" type="curve" smooth="yes"/>
      <point x="611" y="279"/>
      <point x="591" y="303"/>
      <point x="550" y="303" type="curve" smooth="yes"/>
      <point x="506" y="303"/>
      <point x="475" y="272"/>
      <point x="470" y="233" type="curve" smooth="yes"/>
      <point x="454" y="115" type="line" smooth="yes"/>
      <point x="453" y="111"/>
      <point x="453" y="107"/>
      <point x="453" y="103" type="curve" smooth="yes"/>
      <point x="453" y="70"/>
      <point x="475" y="45"/>
      <point x="514" y="45" type="curve" smooth="yes"/>
      <point x="559" y="45"/>
      <point x="589" y="76"/>
    </contour>
  </outline>
</glyph>
<glyph name="ampersand" format="1">
  <advance width="661"/>
  <unicode hex="0026"/>
  <outline>
    <contour>
      <point x="427" y="688" type="curve"/>
      <point x="420" y="638" type="line"/>
      <point x="397" y="645"/>
      <point x="372" y="648"/>
      <point x="344" y="648" type="curve" smooth="yes"/>
      <point x="257" y="648"/>
      <point x="170" y="601"/>
      <point x="170" y="500" type="curve" smooth="yes"/>
      <point x="170" y="415"/>
      <point x="238" y="375"/>
      <point x="320" y="375" type="curve" smooth="yes"/>
      <point x="451" y="375" type="line"/>
      <point x="492" y="538" type="line"/>
      <point x="525" y="538" type="line"/>
      <point x="502" y="375" type="line"/>
      <point x="621" y="375" type="line"/>
      <point x="615" y="329" type="line"/>
      <point x="496" y="329" type="line"/>
      <point x="450" y="0" type="line"/>
      <point x="263" y="0" type="line" smooth="yes"/>
      <point x="148" y="0"/>
      <point x="58" y="60"/>
      <point x="58" y="164" type="curve" smooth="yes"/>
      <point x="58" y="276"/>
      <point x="128" y="330"/>
      <point x="209" y="352" type="curve"/>
      <point x="209" y="356" type="line"/>
      <point x="156" y="386"/>
      <point x="116" y="420"/>
      <point x="116" y="494" type="curve" smooth="yes"/>
      <point x="116" y="625"/>
      <point x="230" y="696"/>
      <point x="350" y="696" type="curve" smooth="yes"/>
      <point x="378" y="696"/>
      <point x="404" y="693"/>
    </contour>
    <contour>
      <point x="445" y="329" type="line"/>
      <point x="309" y="329" type="line" smooth="yes"/>
      <point x="209" y="329"/>
      <point x="110" y="285"/>
      <point x="110" y="169" type="curve" smooth="yes"/>
      <point x="110" y="90"/>
      <point x="176" y="46"/>
      <point x="269" y="46" type="curve" smooth="yes"/>
      <point x="405" y="46" type="line"/>
    </contour>
  </outline>
</glyph>
<glyph name="quotesingle" format="1">
  <advance width="209"/>
  <unicode hex="0027"/>
  <outline>
    <contour>
      <point x="126" y="686" type="line"/>
      <point x="178" y="686" type="line"/>
      <point x="157" y="539" type="line"/>
      <point x="128" y="414" type="line"/>
      <point x="98" y="414" type="line"/>
      <point x="105" y="539" type="line"/>
    </contour>
  </outline>
</glyph>
<glyph name="parenright" format="1">
  <advance width="289"/>
  <unicode hex="0029"/>
  <outline>
    <contour>
      <point x="220" y="351" type="curve" smooth="yes"/>
      <point x="220" y="152"/>
      <point x="134" y="-15"/>
      <point x="-4" y="-157" type="curve"/>
      <point x="-33" y="-157" type="line"/>
      <point x="74" y="-21"/>
      <point x="168" y="163"/>
      <point x="168" y="353" type="curve" smooth="yes"/>
      <point x="168" y="478"/>
      <point x="133" y="594"/>
      <point x="85" y="686" type="curve"/>
      <point x="114" y="686" type="line"/>
      <point x="183" y="592"/>
      <point x="220" y="474"/>
    </contour>
  </outline>
</glyph>
<glyph name="asterisk" format="1">
  <advance width="469"/>
  <unicode hex="002A"/>
  <outline>
    <contour>
      <point x="369" y="347" type="line"/>
      <point x="315" y="311" type="line"/>
      <point x="244" y="462" type="line"/>
      <point x="134" y="315" type="line"/>
      <point x="89" y="350" type="line"/>
      <point x="223" y="482" type="line"/>
      <point x="59" y="524" type="line"/>
      <point x="87" y="582" type="line"/>
      <point x="238" y="512" type="line"/>
      <point x="250" y="686" type="line"/>
      <point x="312" y="686" type="line"/>
      <point x="270" y="510" type="line"/>
      <point x="443" y="578" type="line"/>
      <point x="452" y="519" type="line"/>
      <point x="275" y="480" type="line"/>
    </contour>
  </outline>
</glyph>
<glyph name="plus" format="1">
  <advance width="615"/>
  <unicode hex="002B"/>
  <outline>
    <contour>
      <point x="562" y="284" type="line"/>
      <point x="553" y="226" type="line"/>
      <point x="326" y="226" type="line"/>
      <point x="295" y="0" type="line"/>
      <point x="237" y="0" type="line"/>
      <point x="268" y="226" type="line"/>
      <point x="41" y="226" type="line"/>
      <point x="50" y="284" type="line"/>
      <point x="277" y="284" type="line"/>
      <point x="308" y="511" type="line"/>
      <point x="366" y="511" type="line"/>
      <point x="335" y="284" type="line"/>
    </contour>
  </outline>
</glyph>
<glyph name="hyphen" format="1">
  <advance width="390"/>
  <unicode hex="002D"/>
  <outline>
    <contour>
      <point x="321" y="299" type="line"/>
      <point x="312" y="237" type="line"/>
      <point x="60" y="237" type="line"/>
      <point x="68" y="299" type="line"/>
    </contour>
  </outline>
</glyph>
<glyph name="period" format="1">
  <advance width="238"/>
  <unicode hex="002E"/>
  <outline>
    <contour>
      <point x="103" y="69" type="line"/>
      <point x="94" y="0" type="line"/>
      <point x="29" y="0" type="line"/>
      <point x="38" y="69" type="line"/>
    </contour>
  </outline>
</glyph>
<glyph name="slash" format="1">
  <advance width="489"/>
  <unicode hex="002F"/>
  <outline>
    <contour>
      <point x="-45" y="-171" type="line"/>
      <point x="565" y="686" type="line"/>
      <point x="624" y="686" type="line"/>
      <point x="15" y="-171" type="line"/>
    </contour>
  </outline>
</glyph>
<glyph name="one" format="1">
  <advance width="615"/>
  <unicode hex="0031"/>
  <outline>
    <contour>
      <point x="64" y="48" type="line"/>
      <point x="259" y="48" type="line"/>
      <point x="340" y="619" type="line"/>
      <point x="145" y="619" type="line"/>
      <point x="149" y="653" type="line"/>
      <point x="205" y="660"/>
      <point x="284" y="667"/>
      <point x="381" y="696" type="curve"/>
      <point x="404" y="696" type="line"/>
      <point x="313" y="48" type="line"/>
      <point x="508" y="48" type="line"/>
      <point x="502" y="0" type="line"/>
      <point x="58" y="0" type="line"/>
    </contour>
  </outline>
</glyph>
<glyph name="two" format="1">
  <advance width="615"/>
  <unicode hex="0032"/>
  <outline>
    <contour>
      <point x="31" y="0" type="line"/>
      <point x="34" y="23" type="line" smooth="yes"/>
      <point x="46" y="110"/>
      <point x="87" y="152"/>
      <point x="161" y="196" type="curve" smooth="yes"/>
      <point x="382" y="327" type="line" smooth="yes"/>
      <point x="438" y="360"/>
      <point x="496" y="419"/>
      <point x="496" y="512" type="curve" smooth="yes"/>
      <point x="496" y="592"/>
      <point x="446" y="648"/>
      <point x="354" y="648" type="curve" smooth="yes"/>
      <point x="242" y="648"/>
      <point x="170" y="561"/>
      <point x="157" y="454" type="curve"/>
      <point x="103" y="454" type="line"/>
      <point x="117" y="598"/>
      <point x="225" y="696"/>
      <point x="360" y="696" type="curve" smooth="yes"/>
      <point x="481" y="696"/>
      <point x="551" y="619"/>
      <point x="551" y="516" type="curve" smooth="yes"/>
      <point x="551" y="391"/>
      <point x="470" y="323"/>
      <point x="400" y="281" type="curve" smooth="yes"/>
      <point x="169" y="144" type="line" smooth="yes"/>
      <point x="134" y="123"/>
      <point x="104" y="91"/>
      <point x="96" y="48" type="curve"/>
      <point x="491" y="48" type="line"/>
      <point x="485" y="0" type="line"/>
    </contour>
  </outline>
</glyph>
<glyph name="three" format="1">
  <advance width="615"/>
  <unicode hex="0033"/>
  <outline>
    <contour>
      <point x="114" y="199" type="line"/>
      <point x="112" y="181" type="line" smooth="yes"/>
      <point x="111" y="173"/>
      <point x="110" y="165"/>
      <point x="110" y="158" type="curve" smooth="yes"/>
      <point x="110" y="81"/>
      <point x="172" y="36"/>
      <point x="267" y="36" type="curve" smooth="yes"/>
      <point x="375" y="36"/>
      <point x="467" y="97"/>
      <point x="467" y="204" type="curve" smooth="yes"/>
      <point x="467" y="288"/>
      <point x="396" y="327"/>
      <point x="308" y="327" type="curve" smooth="yes"/>
      <point x="231" y="327" type="line"/>
      <point x="238" y="375" type="line"/>
      <point x="310" y="375" type="line" smooth="yes"/>
      <point x="405" y="375"/>
      <point x="497" y="426"/>
      <point x="497" y="533" type="curve" smooth="yes"/>
      <point x="497" y="612"/>
      <point x="434" y="648"/>
      <point x="353" y="648" type="curve" smooth="yes"/>
      <point x="262" y="648"/>
      <point x="184" y="599"/>
      <point x="172" y="511" type="curve" smooth="yes"/>
      <point x="170" y="497" type="line"/>
      <point x="117" y="497" type="line"/>
      <point x="119" y="511" type="line" smooth="yes"/>
      <point x="136" y="629"/>
      <point x="241" y="696"/>
      <point x="360" y="696" type="curve" smooth="yes"/>
      <point x="469" y="696"/>
      <point x="552" y="641"/>
      <point x="552" y="540" type="curve" smooth="yes"/>
      <point x="552" y="431"/>
      <point x="489" y="389"/>
      <point x="415" y="355" type="curve"/>
      <point x="415" y="351" type="line"/>
      <point x="476" y="332"/>
      <point x="520" y="288"/>
      <point x="520" y="212" type="curve" smooth="yes"/>
      <point x="520" y="73"/>
      <point x="406" y="-10"/>
      <point x="261" y="-10" type="curve" smooth="yes"/>
      <point x="140" y="-10"/>
      <point x="57" y="53"/>
      <point x="57" y="153" type="curve" smooth="yes"/>
      <point x="57" y="163"/>
      <point x="57" y="172"/>
      <point x="59" y="182" type="curve" smooth="yes"/>
      <point x="61" y="199" type="line"/>
    </contour>
  </outline>
</glyph>
<glyph name="four" format="1">
  <advance width="615"/>
  <unicode hex="0034"/>
  <outline>
    <contour>
      <point x="386" y="235" type="line"/>
      <point x="422" y="492" type="line"/>
      <point x="435" y="512"/>
      <point x="458" y="550"/>
      <point x="470" y="573" type="curve"/>
      <point x="489" y="573" type="line"/>
      <point x="442" y="235" type="line"/>
      <point x="524" y="235" type="line"/>
      <point x="517" y="187" type="line"/>
      <point x="435" y="187" type="line"/>
      <point x="409" y="0" type="line"/>
      <point x="353" y="0" type="line"/>
      <point x="379" y="187" type="line"/>
      <point x="33" y="187" type="line"/>
      <point x="40" y="235" type="line"/>
      <point x="87" y="284"/>
      <point x="257" y="532"/>
      <point x="340" y="696" type="curve"/>
      <point x="396" y="696" type="line"/>
      <point x="315" y="521"/>
      <point x="166" y="301"/>
      <point x="97" y="235" type="curve"/>
    </contour>
  </outline>
</glyph>
<glyph name="five" format="1">
  <advance width="615"/>
  <unicode hex="0035"/>
  <outline>
    <contour>
      <point x="74" y="211" type="curve"/>
      <point x="128" y="211" type="line"/>
      <point x="126" y="201"/>
      <point x="126" y="191"/>
      <point x="126" y="181" type="curve" smooth="yes"/>
      <point x="126" y="100"/>
      <point x="181" y="38"/>
      <point x="278" y="38" type="curve" smooth="yes"/>
      <point x="386" y="38"/>
      <point x="464" y="136"/>
      <point x="464" y="242" type="curve" smooth="yes"/>
      <point x="464" y="329"/>
      <point x="403" y="392"/>
      <point x="320" y="392" type="curve" smooth="yes"/>
      <point x="257" y="392"/>
      <point x="192" y="356"/>
      <point x="156" y="303" type="curve"/>
      <point x="109" y="310" type="line"/>
      <point x="189" y="686" type="line"/>
      <point x="552" y="686" type="line"/>
      <point x="545" y="632" type="line"/>
      <point x="232" y="632" type="line"/>
      <point x="178" y="382" type="line"/>
      <point x="225" y="421"/>
      <point x="281" y="441"/>
      <point x="334" y="441" type="curve" smooth="yes"/>
      <point x="447" y="441"/>
      <point x="519" y="367"/>
      <point x="519" y="255" type="curve" smooth="yes"/>
      <point x="519" y="117"/>
      <point x="425" y="-10"/>
      <point x="272" y="-10" type="curve" smooth="yes"/>
      <point x="143" y="-10"/>
      <point x="71" y="70"/>
      <point x="71" y="175" type="curve" smooth="yes"/>
      <point x="71" y="187"/>
      <point x="72" y="199"/>
    </contour>
  </outline>
</glyph>
<glyph name="six" format="1">
  <advance width="615"/>
  <unicode hex="0036"/>
  <outline>
    <contour>
      <point x="177" y="481" type="curve" smooth="yes"/>
      <point x="157" y="341" type="line"/>
      <point x="203" y="396"/>
      <point x="275" y="429"/>
      <point x="345" y="429" type="curve" smooth="yes"/>
      <point x="454" y="429"/>
      <point x="529" y="354"/>
      <point x="529" y="246" type="curve" smooth="yes"/>
      <point x="529" y="92"/>
      <point x="415" y="-10"/>
      <point x="275" y="-10" type="curve" smooth="yes"/>
      <point x="160" y="-10"/>
      <point x="82" y="61"/>
      <point x="82" y="173" type="curve" smooth="yes"/>
      <point x="82" y="185"/>
      <point x="83" y="198"/>
      <point x="85" y="211" type="curve" smooth="yes"/>
      <point x="122" y="475" type="line" smooth="yes"/>
      <point x="141" y="609"/>
      <point x="243" y="696"/>
      <point x="370" y="696" type="curve" smooth="yes"/>
      <point x="484" y="696"/>
      <point x="555" y="626"/>
      <point x="555" y="515" type="curve" smooth="yes"/>
      <point x="555" y="502"/>
      <point x="554" y="489"/>
      <point x="552" y="475" type="curve"/>
      <point x="500" y="475" type="line"/>
      <point x="502" y="490"/>
      <point x="503" y="499"/>
      <point x="503" y="508" type="curve" smooth="yes"/>
      <point x="503" y="590"/>
      <point x="450" y="648"/>
      <point x="363" y="648" type="curve" smooth="yes"/>
      <point x="266" y="648"/>
      <point x="191" y="577"/>
    </contour>
    <contour>
      <point x="330" y="381" type="curve" smooth="yes"/>
      <point x="225" y="381"/>
      <point x="136" y="295"/>
      <point x="136" y="180" type="curve" smooth="yes"/>
      <point x="136" y="97"/>
      <point x="195" y="38"/>
      <point x="282" y="38" type="curve" smooth="yes"/>
      <point x="389" y="38"/>
      <point x="475" y="125"/>
      <point x="475" y="241" type="curve" smooth="yes"/>
      <point x="475" y="323"/>
      <point x="417" y="381"/>
    </contour>
  </outline>
</glyph>
<glyph name="seven" format="1">
  <advance width="615"/>
  <unicode hex="0037"/>
  <outline>
    <contour>
      <point x="594" y="686" type="line"/>
      <point x="589" y="656" type="line"/>
      <point x="419" y="489"/>
      <point x="235" y="247"/>
      <point x="219" y="0" type="curve"/>
      <point x="157" y="0" type="line"/>
      <point x="194" y="263"/>
      <point x="368" y="491"/>
      <point x="504" y="632" type="curve"/>
      <point x="115" y="632" type="line"/>
      <point x="123" y="686" type="line"/>
    </contour>
  </outline>
</glyph>
<glyph name="nine" format="1">
  <advance width="615"/>
  <unicode hex="0039"/>
  <outline>
    <contour>
      <point x="457" y="205" type="curve" smooth="yes"/>
      <point x="477" y="346" type="line"/>
      <point x="431" y="291"/>
      <point x="359" y="257"/>
      <point x="289" y="257" type="curve" smooth="yes"/>
      <point x="180" y="257"/>
      <point x="104" y="331"/>
      <point x="104" y="440" type="curve" smooth="yes"/>
      <point x="104" y="593"/>
      <point x="224" y="696"/>
      <point x="359" y="696" type="curve" smooth="yes"/>
      <point x="474" y="696"/>
      <point x="552" y="625"/>
      <point x="552" y="512" type="curve" smooth="yes"/>
      <point x="552" y="500"/>
      <point x="551" y="488"/>
      <point x="512" y="211" type="curve" smooth="yes"/>
      <point x="493" y="77"/>
      <point x="397" y="-10"/>
      <point x="262" y="-10" type="curve" smooth="yes"/>
      <point x="148" y="-10"/>
      <point x="75" y="60"/>
      <point x="75" y="171" type="curve" smooth="yes"/>
      <point x="75" y="184"/>
      <point x="76" y="197"/>
      <point x="78" y="211" type="curve"/>
      <point x="130" y="211" type="line"/>
      <point x="128" y="196"/>
      <point x="127" y="187"/>
      <point x="127" y="178" type="curve" smooth="yes"/>
      <point x="127" y="96"/>
      <point x="182" y="38"/>
      <point x="269" y="38" type="curve" smooth="yes"/>
      <point x="365" y="38"/>
      <point x="443" y="109"/>
    </contour>
    <contour>
      <point x="304" y="305" type="curve" smooth="yes"/>
      <point x="411" y="305"/>
      <point x="498" y="397"/>
      <point x="498" y="506" type="curve" smooth="yes"/>
      <point x="498" y="589"/>
      <point x="439" y="648"/>
      <point x="352" y="648" type="curve" smooth="yes"/>
      <point x="243" y="648"/>
      <point x="159" y="560"/>
      <point x="159" y="445" type="curve" smooth="yes"/>
      <point x="159" y="363"/>
      <point x="217" y="305"/>
    </contour>
  </outline>
</glyph>
<glyph name="colon" format="1">
  <advance width="238"/>
  <unicode hex="003A"/>
  <outline>
    <contour>
      <point x="164" y="511" type="line"/>
      <point x="155" y="442" type="line"/>
      <point x="90" y="442" type="line"/>
      <point x="99" y="511" type="line"/>
    </contour>
    <contour>
      <point x="102" y="69" type="line"/>
      <point x="93" y="0" type="line"/>
      <point x="28" y="0" type="line"/>
      <point x="37" y="69" type="line"/>
    </contour>
  </outline>
</glyph>
<glyph name="semicolon" format="1">
  <advance width="238"/>
  <unicode hex="003B"/>
  <outline>
    <contour>
      <point x="175" y="511" type="line"/>
      <point x="165" y="442" type="line"/>
      <point x="100" y="442" type="line"/>
      <point x="110" y="511" type="line"/>
    </contour>
    <contour>
      <point x="58" y="-101" type="line"/>
      <point x="24" y="-101" type="line" smooth="yes"/>
      <point x="25" y="-101"/>
      <point x="62" y="0"/>
      <point x="62" y="0" type="curve"/>
      <point x="38" y="0" type="line"/>
      <point x="47" y="69" type="line"/>
      <point x="112" y="69" type="line"/>
      <point x="104" y="11" type="line"/>
    </contour>
  </outline>
</glyph>
<glyph name="less" format="1">
  <advance width="615"/>
  <unicode hex="003C"/>
  <outline>
    <contour>
      <point x="580" y="495" type="line"/>
      <point x="572" y="433" type="line"/>
      <point x="85" y="254" type="line"/>
      <point x="521" y="75" type="line"/>
      <point x="513" y="13" type="line"/>
      <point x="31" y="210" type="line"/>
      <point x="44" y="298" type="line"/>
    </contour>
  </outline>
</glyph>
<glyph name="equal" format="1">
  <advance width="615"/>
  <unicode hex="003D"/>
  <outline>
    <contour>
      <point x="67" y="386" type="line"/>
      <point x="567" y="386" type="line"/>
      <point x="559" y="328" type="line"/>
      <point x="59" y="328" type="line"/>
    </contour>
    <contour>
      <point x="38" y="178" type="line"/>
      <point x="538" y="178" type="line"/>
      <point x="530" y="120" type="line"/>
      <point x="30" y="120" type="line"/>
    </contour>
  </outline>
</glyph>
<glyph name="greater" format="1">
  <advance width="615"/>
  <unicode hex="003E"/>
  <outline>
    <contour>
      <point x="21" y="13" type="line"/>
      <point x="29" y="75" type="line"/>
      <point x="517" y="254" type="line"/>
      <point x="80" y="433" type="line"/>
      <point x="88" y="495" type="line"/>
      <point x="570" y="298" type="line"/>
      <point x="557" y="210" type="line"/>
    </contour>
  </outline>
</glyph>
<glyph name="question" format="1">
  <advance width="502"/>
  <unicode hex="003F"/>
  <outline>
    <contour>
      <point x="196" y="166" type="line"/>
      <point x="207" y="244" type="line" smooth="yes"/>
      <point x="224" y="369"/>
      <point x="404" y="373"/>
      <point x="404" y="534" type="curve" smooth="yes"/>
      <point x="404" y="580"/>
      <point x="386" y="648"/>
      <point x="284" y="648" type="curve" smooth="yes"/>
      <point x="145" y="648"/>
      <point x="115" y="529"/>
      <point x="110" y="494" type="curve" smooth="yes"/>
      <point x="109" y="484"/>
      <point x="109" y="465"/>
      <point x="109" y="465" type="curve"/>
      <point x="55" y="465" type="line"/>
      <point x="55" y="476"/>
      <point x="56" y="492"/>
      <point x="57" y="498" type="curve" smooth="yes"/>
      <point x="61" y="529"/>
      <point x="94" y="697"/>
      <point x="289" y="697" type="curve" smooth="yes"/>
      <point x="441" y="697"/>
      <point x="458" y="590"/>
      <point x="458" y="539" type="curve" smooth="yes"/>
      <point x="458" y="351"/>
      <point x="275" y="346"/>
      <point x="259" y="231" type="curve" smooth="yes"/>
      <point x="250" y="166" type="line"/>
    </contour>
    <contour>
      <point x="241" y="69" type="line"/>
      <point x="232" y="0" type="line"/>
      <point x="167" y="0" type="line"/>
      <point x="176" y="69" type="line"/>
    </contour>
  </outline>
</glyph>
<glyph name="at" format="1">
  <advance width="887"/>
  <unicode hex="0040"/>
  <outline>
    <contour>
      <point x="670" y="66" type="curve" smooth="yes"/>
      <point x="792" y="66"/>
      <point x="829" y="279"/>
      <point x="829" y="390" type="curve" smooth="yes"/>
      <point x="829" y="581"/>
      <point x="711" y="650"/>
      <point x="536" y="650" type="curve" smooth="yes"/>
      <point x="293" y="650"/>
      <point x="110" y="493"/>
      <point x="110" y="167" type="curve" smooth="yes"/>
      <point x="110" y="-15"/>
      <point x="202" y="-106"/>
      <point x="397" y="-106" type="curve" smooth="yes"/>
      <point x="443" y="-106"/>
      <point x="528" y="-92"/>
      <point x="566" y="-74" type="curve"/>
      <point x="559" y="-126" type="line"/>
      <point x="514" y="-142"/>
      <point x="433" y="-153"/>
      <point x="390" y="-153" type="curve" smooth="yes"/>
      <point x="184" y="-153"/>
      <point x="60" y="-57"/>
      <point x="60" y="162" type="curve" smooth="yes"/>
      <point x="60" y="466"/>
      <point x="223" y="697"/>
      <point x="544" y="697" type="curve" smooth="yes"/>
      <point x="739" y="697"/>
      <point x="879" y="609"/>
      <point x="879" y="398" type="curve" smooth="yes"/>
      <point x="879" y="175"/>
      <point x="794" y="23"/>
      <point x="666" y="23" type="curve" smooth="yes"/>
      <point x="604" y="23"/>
      <point x="586" y="49"/>
      <point x="586" y="90" type="curve" smooth="yes"/>
      <point x="586" y="97"/>
      <point x="587" y="106"/>
      <point x="588" y="115" type="curve"/>
      <point x="538" y="49"/>
      <point x="473" y="22"/>
      <point x="394" y="22" type="curve" smooth="yes"/>
      <point x="325" y="22"/>
      <point x="256" y="45"/>
      <point x="256" y="130" type="curve" smooth="yes"/>
      <point x="256" y="295"/>
      <point x="414" y="309"/>
      <point x="616" y="309" type="curve"/>
      <point x="624" y="370" type="line" smooth="yes"/>
      <point x="625" y="380"/>
      <point x="626" y="390"/>
      <point x="626" y="399" type="curve" smooth="yes"/>
      <point x="626" y="458"/>
      <point x="590" y="478"/>
      <point x="510" y="478" type="curve" smooth="yes"/>
      <point x="431" y="478"/>
      <point x="367" y="451"/>
      <point x="357" y="380" type="curve" smooth="yes"/>
      <point x="355" y="365" type="line"/>
      <point x="307" y="365" type="line"/>
      <point x="307" y="465"/>
      <point x="398" y="521"/>
      <point x="516" y="521" type="curve" smooth="yes"/>
      <point x="624" y="521"/>
      <point x="677" y="484"/>
      <point x="677" y="406" type="curve" smooth="yes"/>
      <point x="677" y="377"/>
      <point x="635" y="109"/>
      <point x="635" y="94" type="curve" smooth="yes"/>
      <point x="635" y="77"/>
      <point x="646" y="66"/>
    </contour>
    <contour>
      <point x="605" y="234" type="curve" smooth="yes"/>
      <point x="610" y="267" type="line"/>
      <point x="429" y="267"/>
      <point x="307" y="259"/>
      <point x="307" y="137" type="curve" smooth="yes"/>
      <point x="307" y="87"/>
      <point x="342" y="65"/>
      <point x="410" y="65" type="curve" smooth="yes"/>
      <point x="494" y="65"/>
      <point x="587" y="117"/>
    </contour>
  </outline>
</glyph>
<glyph name="B" format="1">
  <advance width="652"/>
  <unicode hex="0042"/>
  <outline>
    <contour>
      <point x="148" y="686" type="line"/>
      <point x="422" y="686" type="line" smooth="yes"/>
      <point x="513" y="686"/>
      <point x="579" y="622"/>
      <point x="579" y="540" type="curve" smooth="yes"/>
      <point x="579" y="423"/>
      <point x="490" y="372"/>
      <point x="435" y="359" type="curve"/>
      <point x="434" y="353" type="line"/>
      <point x="466" y="348"/>
      <point x="549" y="322"/>
      <point x="549" y="216" type="curve" smooth="yes"/>
      <point x="549" y="100"/>
      <point x="450" y="0"/>
      <point x="331" y="0" type="curve" smooth="yes"/>
      <point x="51" y="0" type="line"/>
    </contour>
    <contour>
      <point x="158" y="374" type="line"/>
      <point x="368" y="374" type="line" smooth="yes"/>
      <point x="449" y="374"/>
      <point x="522" y="441"/>
      <point x="522" y="526" type="curve" smooth="yes"/>
      <point x="522" y="591"/>
      <point x="473" y="638"/>
      <point x="405" y="638" type="curve" smooth="yes"/>
      <point x="195" y="638" type="line"/>
    </contour>
    <contour>
      <point x="112" y="48" type="line"/>
      <point x="332" y="48" type="line" smooth="yes"/>
      <point x="416" y="48"/>
      <point x="494" y="118"/>
      <point x="494" y="206" type="curve" smooth="yes"/>
      <point x="494" y="274"/>
      <point x="442" y="326"/>
      <point x="371" y="326" type="curve" smooth="yes"/>
      <point x="151" y="326" type="line"/>
    </contour>
  </outline>
</glyph>
<glyph name="E" format="1">
  <advance width="592"/>
  <unicode hex="0045"/>
  <outline>
    <contour>
      <point x="148" y="686" type="line"/>
      <point x="572" y="686" type="line"/>
      <point x="559" y="638" type="line"/>
      <point x="195" y="638" type="line"/>
      <point x="158" y="374" type="line"/>
      <point x="477" y="374" type="line"/>
      <point x="470" y="326" type="line"/>
      <point x="151" y="326" type="line"/>
      <point x="112" y="48" type="line"/>
      <point x="481" y="48" type="line"/>
      <point x="481" y="0" type="line"/>
      <point x="51" y="0" type="line"/>
    </contour>
    <contour>
      <point x="260" y="0" type="move" name="Bottom"/>
    </contour>
  </outline>
</glyph>
<glyph name="F" format="1">
  <advance width="552"/>
  <unicode hex="0046"/>
  <outline>
    <contour>
      <point x="195" y="638" type="line"/>
      <point x="158" y="374" type="line"/>
      <point x="451" y="374" type="line"/>
      <point x="444" y="326" type="line"/>
      <point x="151" y="326" type="line"/>
      <point x="105" y="0" type="line"/>
      <point x="51" y="0" type="line"/>
      <point x="148" y="686" type="line"/>
      <point x="554" y="686" type="line"/>
      <point x="541" y="638" type="line"/>
    </contour>
  </outline>
</glyph>
<glyph name="H" format="1">
  <advance width="693"/>
  <unicode hex="0048"/>
  <outline>
    <contour>
      <point x="522" y="326" type="line"/>
      <point x="151" y="326" type="line"/>
      <point x="105" y="0" type="line"/>
      <point x="51" y="0" type="line"/>
      <point x="148" y="686" type="line"/>
      <point x="202" y="686" type="line"/>
      <point x="158" y="374" type="line"/>
      <point x="529" y="374" type="line"/>
      <point x="573" y="686" type="line"/>
      <point x="627" y="686" type="line"/>
      <point x="530" y="0" type="line"/>
      <point x="476" y="0" type="line"/>
    </contour>
  </outline>
</glyph>
<glyph name="I" format="1">
  <advance width="365"/>
  <unicode hex="0049"/>
  <outline>
    <contour>
      <point x="321" y="686" type="line"/>
      <point x="314" y="637" type="line"/>
      <point x="235" y="637" type="line"/>
      <point x="152" y="49" type="line"/>
      <point x="231" y="49" type="line"/>
      <point x="224" y="0" type="line"/>
      <point x="12" y="0" type="line"/>
      <point x="19" y="49" type="line"/>
      <point x="98" y="49" type="line"/>
      <point x="181" y="637" type="line"/>
      <point x="102" y="637" type="line"/>
      <point x="109" y="686" type="line"/>
    </contour>
  </outline>
</glyph>
<glyph name="J" format="1">
  <advance width="525"/>
  <unicode hex="004A"/>
  <outline>
    <contour>
      <point x="15" y="185" type="curve"/>
      <point x="65" y="185" type="line"/>
      <point x="61" y="163"/>
      <point x="61" y="154"/>
      <point x="61" y="146" type="curve" smooth="yes"/>
      <point x="61" y="70"/>
      <point x="113" y="38"/>
      <point x="183" y="38" type="curve" smooth="yes"/>
      <point x="260" y="38"/>
      <point x="328" y="78"/>
      <point x="341" y="172" type="curve" smooth="yes"/>
      <point x="413" y="686" type="line"/>
      <point x="467" y="686" type="line"/>
      <point x="394" y="166" type="line" smooth="yes"/>
      <point x="378" y="50"/>
      <point x="293" y="-10"/>
      <point x="177" y="-10" type="curve" smooth="yes"/>
      <point x="80" y="-10"/>
      <point x="10" y="39"/>
      <point x="10" y="135" type="curve" smooth="yes"/>
      <point x="10" y="145"/>
      <point x="10" y="155"/>
    </contour>
  </outline>
</glyph>
<glyph name="K" format="1">
  <advance width="621"/>
  <unicode hex="004B"/>
  <outline>
    <contour>
      <point x="202" y="686" type="line"/>
      <point x="145" y="279" type="line"/>
      <point x="565" y="686" type="line"/>
      <point x="629" y="686" type="line"/>
      <point x="320" y="387" type="line"/>
      <point x="540" y="0" type="line"/>
      <point x="472" y="0" type="line"/>
      <point x="277" y="346" type="line"/>
      <point x="135" y="208" type="line"/>
      <point x="105" y="0" type="line"/>
      <point x="51" y="0" type="line"/>
      <point x="148" y="686" type="line"/>
    </contour>
    <contour>
      <point x="275" y="0" type="move" name="Bottom"/>
    </contour>
  </outline>
</glyph>
<glyph name="M" format="1">
  <advance width="938"/>
  <unicode hex="004D"/>
  <outline>
    <contour>
      <point x="796" y="625" type="line"/>
      <point x="791" y="625" type="line"/>
      <point x="428" y="0" type="line"/>
      <point x="377" y="0" type="line"/>
      <point x="192" y="625" type="line"/>
      <point x="187" y="625" type="line"/>
      <point x="99" y="0" type="line"/>
      <point x="51" y="0" type="line"/>
      <point x="148" y="686" type="line"/>
      <point x="234" y="686" type="line"/>
      <point x="414" y="70" type="line"/>
      <point x="418" y="70" type="line"/>
      <point x="774" y="686" type="line"/>
      <point x="859" y="686" type="line"/>
      <point x="762" y="0" type="line"/>
      <point x="708" y="0" type="line"/>
    </contour>
  </outline>
</glyph>
<glyph name="P" format="1">
  <advance width="626"/>
  <unicode hex="0050"/>
  <outline>
    <contour>
      <point x="148" y="686" type="line"/>
      <point x="429" y="686" type="line" smooth="yes"/>
      <point x="523" y="686"/>
      <point x="591" y="616"/>
      <point x="591" y="526" type="curve" smooth="yes"/>
      <point x="591" y="411"/>
      <point x="500" y="312"/>
      <point x="376" y="312" type="curve" smooth="yes"/>
      <point x="149" y="312" type="line"/>
      <point x="105" y="0" type="line"/>
      <point x="51" y="0" type="line"/>
    </contour>
    <contour>
      <point x="156" y="359" type="line"/>
      <point x="376" y="359" type="line" smooth="yes"/>
      <point x="470" y="359"/>
      <point x="538" y="432"/>
      <point x="538" y="519" type="curve" smooth="yes"/>
      <point x="538" y="587"/>
      <point x="486" y="638"/>
      <point x="415" y="638" type="curve" smooth="yes"/>
      <point x="195" y="638" type="line"/>
    </contour>
  </outline>
</glyph>
<glyph name="Q" format="1">
  <advance width="690"/>
  <unicode hex="0051"/>
  <outline>
    <contour>
      <point x="402" y="-137" type="curve" smooth="yes"/>
      <point x="283" y="-137"/>
      <point x="261" y="-66"/>
      <point x="261" y="-9" type="curve"/>
      <point x="144" y="-4"/>
      <point x="57" y="49"/>
      <point x="57" y="228" type="curve" smooth="yes"/>
      <point x="57" y="258"/>
      <point x="59" y="291"/>
      <point x="68" y="356" type="curve" smooth="yes"/>
      <point x="104" y="631"/>
      <point x="235" y="696"/>
      <point x="382" y="696" type="curve" smooth="yes"/>
      <point x="509" y="696"/>
      <point x="608" y="648"/>
      <point x="608" y="458" type="curve" smooth="yes"/>
      <point x="608" y="428"/>
      <point x="605" y="394"/>
      <point x="597" y="330" type="curve" smooth="yes"/>
      <point x="564" y="71"/>
      <point x="446" y="-1"/>
      <point x="311" y="-9" type="curve"/>
      <point x="313" y="-46"/>
      <point x="333" y="-90"/>
      <point x="408" y="-90" type="curve" smooth="yes"/>
      <point x="455" y="-90"/>
      <point x="526" y="-62"/>
      <point x="526" y="-61" type="curve" smooth="yes"/>
      <point x="519" y="-110" type="line"/>
      <point x="519" y="-110"/>
      <point x="465" y="-137"/>
    </contour>
    <contour>
      <point x="290" y="38" type="curve" smooth="yes"/>
      <point x="407" y="38"/>
      <point x="511" y="91"/>
      <point x="542" y="318" type="curve" smooth="yes"/>
      <point x="553" y="400"/>
      <point x="555" y="428"/>
      <point x="555" y="454" type="curve" smooth="yes"/>
      <point x="555" y="609"/>
      <point x="475" y="648"/>
      <point x="375" y="648" type="curve" smooth="yes"/>
      <point x="258" y="648"/>
      <point x="156" y="595"/>
      <point x="123" y="368" type="curve" smooth="yes"/>
      <point x="111" y="286"/>
      <point x="110" y="257"/>
      <point x="110" y="232" type="curve" smooth="yes"/>
      <point x="110" y="77"/>
      <point x="189" y="38"/>
    </contour>
  </outline>
</glyph>
<glyph name="S" format="1">
  <advance width="629"/>
  <unicode hex="0053"/>
  <outline>
    <contour>
      <point x="554" y="503" type="curve"/>
      <point x="504" y="503" type="line"/>
      <point x="508" y="531"/>
      <point x="508" y="537"/>
      <point x="508" y="542" type="curve" smooth="yes"/>
      <point x="508" y="613"/>
      <point x="438" y="648"/>
      <point x="348" y="648" type="curve" smooth="yes"/>
      <point x="249" y="648"/>
      <point x="155" y="611"/>
      <point x="155" y="508" type="curve" smooth="yes"/>
      <point x="155" y="345"/>
      <point x="532" y="431"/>
      <point x="532" y="217" type="curve" smooth="yes"/>
      <point x="532" y="49"/>
      <point x="393" y="-10"/>
      <point x="259" y="-10" type="curve" smooth="yes"/>
      <point x="135" y="-10"/>
      <point x="36" y="31"/>
      <point x="36" y="151" type="curve" smooth="yes"/>
      <point x="36" y="167"/>
      <point x="39" y="195"/>
      <point x="42" y="205" type="curve"/>
      <point x="93" y="205" type="line"/>
      <point x="90" y="197"/>
      <point x="86" y="169"/>
      <point x="86" y="155" type="curve" smooth="yes"/>
      <point x="86" y="69"/>
      <point x="163" y="38"/>
      <point x="262" y="38" type="curve" smooth="yes"/>
      <point x="369" y="38"/>
      <point x="477" y="76"/>
      <point x="477" y="205" type="curve" smooth="yes"/>
      <point x="477" y="381"/>
      <point x="102" y="293"/>
      <point x="102" y="500" type="curve" smooth="yes"/>
      <point x="102" y="638"/>
      <point x="224" y="696"/>
      <point x="354" y="696" type="curve" smooth="yes"/>
      <point x="469" y="696"/>
      <point x="558" y="654"/>
      <point x="558" y="546" type="curve" smooth="yes"/>
      <point x="558" y="537"/>
      <point x="558" y="527"/>
    </contour>
    <contour>
      <point x="279" y="0" type="move" name="Bottom"/>
    </contour>
  </outline>
</glyph>
<glyph name="T" format="1">
  <advance width="575"/>
  <unicode hex="0054"/>
  <outline>
    <contour>
      <point x="261" y="0" type="line"/>
      <point x="209" y="0" type="line"/>
      <point x="299" y="638" type="line"/>
      <point x="67" y="638" type="line"/>
      <point x="74" y="686" type="line"/>
      <point x="590" y="686" type="line"/>
      <point x="583" y="638" type="line"/>
      <point x="351" y="638" type="line"/>
    </contour>
    <contour>
      <point x="241" y="0" type="move" name="Bottom"/>
    </contour>
  </outline>
</glyph>
<glyph name="V" format="1">
  <advance width="602"/>
  <unicode hex="0056"/>
  <outline>
    <contour>
      <point x="626" y="686" type="line"/>
      <point x="270" y="0" type="line"/>
      <point x="222" y="0" type="line"/>
      <point x="59" y="686" type="line"/>
      <point x="118" y="686" type="line"/>
      <point x="258" y="86" type="line"/>
      <point x="263" y="86" type="line"/>
      <point x="573" y="686" type="line"/>
    </contour>
  </outline>
</glyph>
<glyph name="W" format="1">
  <advance width="914"/>
  <unicode hex="0057"/>
  <outline>
    <contour>
      <point x="901" y="686" type="line"/>
      <point x="604" y="0" type="line"/>
      <point x="558" y="0" type="line"/>
      <point x="471" y="581" type="line"/>
      <point x="467" y="581" type="line"/>
      <point x="216" y="0" type="line"/>
      <point x="170" y="0" type="line"/>
      <point x="67" y="686" type="line"/>
      <point x="125" y="686" type="line"/>
      <point x="210" y="107" type="line"/>
      <point x="214" y="107" type="line"/>
      <point x="463" y="686" type="line"/>
      <point x="513" y="686" type="line"/>
      <point x="598" y="107" type="line"/>
      <point x="602" y="107" type="line"/>
      <point x="851" y="686" type="line"/>
    </contour>
  </outline>
</glyph>
<glyph name="X" format="1">
  <advance width="628"/>
  <unicode hex="0058"/>
  <outline>
    <contour>
      <point x="539" y="0" type="line"/>
      <point x="474" y="0" type="line"/>
      <point x="298" y="315" type="line"/>
      <point x="294" y="315" type="line"/>
      <point x="26" y="0" type="line"/>
      <point x="-32" y="0" type="line"/>
      <point x="273" y="359" type="line"/>
      <point x="87" y="686" type="line"/>
      <point x="152" y="686" type="line"/>
      <point x="310" y="402" type="line"/>
      <point x="314" y="402" type="line"/>
      <point x="555" y="686" type="line"/>
      <point x="614" y="686" type="line"/>
      <point x="335" y="359" type="line"/>
    </contour>
  </outline>
</glyph>
<glyph name="Z" format="1">
  <advance width="595"/>
  <unicode hex="005A"/>
  <outline>
    <contour>
      <point x="-5" y="25" type="line"/>
      <point x="494" y="638" type="line"/>
      <point x="105" y="638" type="line"/>
      <point x="112" y="686" type="line"/>
      <point x="583" y="686" type="line"/>
      <point x="579" y="662" type="line"/>
      <point x="79" y="48" type="line"/>
      <point x="501" y="48" type="line"/>
      <point x="494" y="0" type="line"/>
      <point x="-9" y="0" type="line"/>
    </contour>
  </outline>
</glyph>
<glyph name="bracketleft" format="1">
  <advance width="294"/>
  <unicode hex="005B"/>
  <outline>
    <contour>
      <point x="141" y="686" type="line"/>
      <point x="282" y="686" type="line"/>
      <point x="277" y="648" type="line"/>
      <point x="189" y="648" type="line"/>
      <point x="80" y="-123" type="line"/>
      <point x="168" y="-123" type="line"/>
      <point x="163" y="-161" type="line"/>
      <point x="22" y="-161" type="line"/>
    </contour>
  </outline>
</glyph>
<glyph name="backslash" format="1">
  <advance width="593"/>
  <unicode hex="005C"/>
  <outline>
    <contour>
      <point x="68" y="686" type="line"/>
      <point x="128" y="686" type="line"/>
      <point x="423" y="0" type="line"/>
      <point x="363" y="0" type="line"/>
    </contour>
  </outline>
</glyph>
<glyph name="bracketright" format="1">
  <advance width="294"/>
  <unicode hex="005D"/>
  <outline>
    <contour>
      <point x="-19" y="-123" type="line"/>
      <point x="69" y="-123" type="line"/>
      <point x="178" y="648" type="line"/>
      <point x="90" y="648" type="line"/>
      <point x="95" y="686" type="line"/>
      <point x="236" y="686" type="line"/>
      <point x="117" y="-161" type="line"/>
      <point x="-24" y="-161" type="line"/>
    </contour>
  </outline>
</glyph>
<glyph name="asciicircum" format="1">
  <advance width="596"/>
  <unicode hex="005E"/>
  <outline>
    <contour>
      <point x="494" y="0" type="line"/>
      <point x="432" y="0" type="line"/>
      <point x="318" y="464" type="line"/>
      <point x="74" y="0" type="line"/>
      <point x="12" y="0" type="line"/>
      <point x="280" y="511" type="line"/>
      <point x="368" y="511" type="line"/>
    </contour>
  </outline>
</glyph>
<glyph name="underscore" format="1">
  <advance width="687"/>
  <unicode hex="005F"/>
  <outline>
    <contour>
      <point x="43" y="-64" type="line"/>
      <point x="543" y="-64" type="line"/>
      <point x="534" y="-122" type="line"/>
      <point x="35" y="-122" type="line"/>
    </contour>
  </outline>
</glyph>
<glyph name="grave" format="1">
  <advance width="333"/>
  <unicode hex="0060"/>
  <outline>
    <contour>
      <point x="76" y="717" type="line"/>
      <point x="77" y="720" type="line"/>
      <point x="142" y="720" type="line"/>
      <point x="217" y="575" type="line"/>
      <point x="167" y="575" type="line"/>
    </contour>
  </outline>
</glyph>
<glyph name="b" format="1">
  <advance width="582"/>
  <unicode hex="0062"/>
  <outline>
    <contour>
      <point x="194" y="720" type="line"/>
      <point x="154" y="440" type="line"/>
      <point x="194" y="490"/>
      <point x="257" y="521"/>
      <point x="329" y="521" type="curve" smooth="yes"/>
      <point x="428" y="521"/>
      <point x="501" y="452"/>
      <point x="501" y="324" type="curve" smooth="yes"/>
      <point x="501" y="190"/>
      <point x="437" y="-10"/>
      <point x="254" y="-10" type="curve" smooth="yes"/>
      <point x="176" y="-10"/>
      <point x="123" y="21"/>
      <point x="94" y="85" type="curve"/>
      <point x="63" y="0" type="line"/>
      <point x="42" y="0" type="line"/>
      <point x="143" y="720" type="line"/>
    </contour>
    <contour>
      <point x="317" y="475" type="curve" smooth="yes"/>
      <point x="176" y="475"/>
      <point x="123" y="327"/>
      <point x="123" y="192" type="curve" smooth="yes"/>
      <point x="123" y="74"/>
      <point x="182" y="36"/>
      <point x="256" y="36" type="curve" smooth="yes"/>
      <point x="356" y="36"/>
      <point x="449" y="130"/>
      <point x="449" y="322" type="curve" smooth="yes"/>
      <point x="449" y="428"/>
      <point x="392" y="475"/>
    </contour>
  </outline>
</glyph>
<glyph name="d" format="1">
  <advance width="612"/>
  <unicode hex="0064"/>
  <outline>
    <contour>
      <point x="386" y="55" type="curve" smooth="yes"/>
      <point x="386" y="60"/>
      <point x="386" y="64"/>
      <point x="387" y="69" type="curve"/>
      <point x="342" y="15"/>
      <point x="284" y="-10"/>
      <point x="212" y="-10" type="curve" smooth="yes"/>
      <point x="115" y="-10"/>
      <point x="42" y="50"/>
      <point x="42" y="190" type="curve" smooth="yes"/>
      <point x="42" y="344"/>
      <point x="112" y="521"/>
      <point x="287" y="521" type="curve" smooth="yes"/>
      <point x="359" y="521"/>
      <point x="412" y="490"/>
      <point x="438" y="440" type="curve"/>
      <point x="478" y="720" type="line"/>
      <point x="529" y="720" type="line"/>
      <point x="529" y="720"/>
      <point x="437" y="73"/>
      <point x="437" y="61" type="curve" smooth="yes"/>
      <point x="437" y="43"/>
      <point x="447" y="36"/>
      <point x="460" y="36" type="curve" smooth="yes"/>
      <point x="475" y="36"/>
      <point x="496" y="43"/>
      <point x="513" y="52" type="curve"/>
      <point x="507" y="9" type="line"/>
      <point x="488" y="-3"/>
      <point x="467" y="-10"/>
      <point x="444" y="-10" type="curve" smooth="yes"/>
      <point x="400" y="-10"/>
      <point x="386" y="21"/>
    </contour>
    <contour>
      <point x="224" y="36" type="curve" smooth="yes"/>
      <point x="368" y="36"/>
      <point x="418" y="187"/>
      <point x="418" y="321" type="curve" smooth="yes"/>
      <point x="418" y="428"/>
      <point x="361" y="475"/>
      <point x="285" y="475" type="curve" smooth="yes"/>
      <point x="142" y="475"/>
      <point x="93" y="316"/>
      <point x="93" y="193" type="curve" smooth="yes"/>
      <point x="93" y="77"/>
      <point x="149" y="36"/>
    </contour>
  </outline>
</glyph>
<glyph name="g" format="1">
  <advance width="583"/>
  <unicode hex="0067"/>
  <outline>
    <contour>
      <point x="21" y="-22" type="curve"/>
      <point x="73" y="-22" type="line"/>
      <point x="73" y="-106"/>
      <point x="146" y="-139"/>
      <point x="215" y="-139" type="curve" smooth="yes"/>
      <point x="297" y="-139"/>
      <point x="370" y="-91"/>
      <point x="384" y="8" type="curve" smooth="yes"/>
      <point x="396" y="91" type="line"/>
      <point x="355" y="41"/>
      <point x="290" y="10"/>
      <point x="218" y="10" type="curve" smooth="yes"/>
      <point x="119" y="10"/>
      <point x="46" y="77"/>
      <point x="46" y="196" type="curve" smooth="yes"/>
      <point x="46" y="349"/>
      <point x="119" y="521"/>
      <point x="293" y="521" type="curve" smooth="yes"/>
      <point x="371" y="521"/>
      <point x="424" y="490"/>
      <point x="453" y="426" type="curve"/>
      <point x="484" y="511" type="line"/>
      <point x="505" y="511" type="line"/>
      <point x="435" y="17" type="line" smooth="yes"/>
      <point x="418" y="-103"/>
      <point x="349" y="-186"/>
      <point x="208" y="-186" type="curve" smooth="yes"/>
      <point x="72" y="-186"/>
      <point x="21" y="-96"/>
    </contour>
    <contour>
      <point x="230" y="56" type="curve" smooth="yes"/>
      <point x="374" y="56"/>
      <point x="424" y="195"/>
      <point x="424" y="319" type="curve" smooth="yes"/>
      <point x="424" y="437"/>
      <point x="365" y="475"/>
      <point x="291" y="475" type="curve" smooth="yes"/>
      <point x="150" y="475"/>
      <point x="98" y="328"/>
      <point x="98" y="199" type="curve" smooth="yes"/>
      <point x="98" y="101"/>
      <point x="154" y="56"/>
    </contour>
  </outline>
</glyph>
<glyph name="h" format="1">
  <advance width="593"/>
  <unicode hex="0068"/>
  <outline>
    <contour>
      <point x="445" y="0" type="curve"/>
      <point x="394" y="0" type="line"/>
      <point x="440" y="328"/>
      <point x="441" y="329"/>
      <point x="441" y="354" type="curve" smooth="yes"/>
      <point x="441" y="437"/>
      <point x="395" y="475"/>
      <point x="317" y="475" type="curve" smooth="yes"/>
      <point x="227" y="475"/>
      <point x="150" y="406"/>
      <point x="137" y="314" type="curve" smooth="yes"/>
      <point x="93" y="0" type="line"/>
      <point x="42" y="0" type="line"/>
      <point x="143" y="720" type="line"/>
      <point x="194" y="720" type="line"/>
      <point x="155" y="439" type="line"/>
      <point x="197" y="493"/>
      <point x="269" y="521"/>
      <point x="328" y="521" type="curve" smooth="yes"/>
      <point x="423" y="521"/>
      <point x="494" y="473"/>
      <point x="494" y="368" type="curve" smooth="yes"/>
      <point x="494" y="335"/>
      <point x="493" y="343"/>
    </contour>
  </outline>
</glyph>
<glyph name="j" format="1">
  <advance width="260"/>
  <unicode hex="006A"/>
  <outline>
    <contour>
      <point x="202" y="720" type="line"/>
      <point x="195" y="666" type="line"/>
      <point x="136" y="666" type="line"/>
      <point x="143" y="720" type="line"/>
    </contour>
    <contour>
      <point x="169" y="511" type="line"/>
      <point x="86" y="-75" type="line" smooth="yes"/>
      <point x="75" y="-152"/>
      <point x="29" y="-186"/>
      <point x="-30" y="-186" type="curve" smooth="yes"/>
      <point x="-55" y="-186"/>
      <point x="-80" y="-179"/>
      <point x="-96" y="-169" type="curve"/>
      <point x="-89" y="-124" type="line"/>
      <point x="-74" y="-131"/>
      <point x="-45" y="-140"/>
      <point x="-30" y="-140" type="curve" smooth="yes"/>
      <point x="-4" y="-140"/>
      <point x="28" y="-132"/>
      <point x="36" y="-73" type="curve" smooth="yes"/>
      <point x="118" y="511" type="line"/>
    </contour>
  </outline>
</glyph>
<glyph name="k" format="1">
  <advance width="534"/>
  <unicode hex="006B"/>
  <outline>
    <contour>
      <point x="111" y="127" type="line"/>
      <point x="93" y="0" type="line"/>
      <point x="42" y="0" type="line"/>
      <point x="143" y="720" type="line"/>
      <point x="194" y="720" type="line"/>
      <point x="119" y="186" type="line"/>
      <point x="455" y="511" type="line"/>
      <point x="518" y="511" type="line"/>
      <point x="269" y="270" type="line"/>
      <point x="463" y="0" type="line"/>
      <point x="397" y="0" type="line"/>
      <point x="230" y="232" type="line"/>
    </contour>
    <contour>
      <point x="231" y="0" type="move" name="Bottom"/>
    </contour>
  </outline>
</glyph>
<glyph name="l" format="1">
  <advance width="268"/>
  <unicode hex="006C"/>
  <outline>
    <contour>
      <point x="147" y="720" type="line"/>
      <point x="198" y="720" type="line"/>
      <point x="97" y="0" type="line"/>
      <point x="46" y="0" type="line"/>
    </contour>
    <contour>
      <point x="72" y="0" type="move" name="Bottom"/>
    </contour>
  </outline>
</glyph>
<glyph name="m" format="1">
  <advance width="867"/>
  <unicode hex="006D"/>
  <outline>
    <contour>
      <point x="618" y="521" type="curve" smooth="yes"/>
      <point x="702" y="521"/>
      <point x="766" y="474"/>
      <point x="766" y="371" type="curve" smooth="yes"/>
      <point x="766" y="334"/>
      <point x="765" y="344"/>
      <point x="717" y="0" type="curve"/>
      <point x="666" y="0" type="line"/>
      <point x="712" y="331"/>
      <point x="714" y="325"/>
      <point x="714" y="361" type="curve" smooth="yes"/>
      <point x="714" y="439"/>
      <point x="676" y="475"/>
      <point x="608" y="475" type="curve" smooth="yes"/>
      <point x="528" y="475"/>
      <point x="462" y="406"/>
      <point x="449" y="314" type="curve" smooth="yes"/>
      <point x="405" y="0" type="line"/>
      <point x="354" y="0" type="line"/>
      <point x="400" y="331"/>
      <point x="402" y="329"/>
      <point x="402" y="361" type="curve" smooth="yes"/>
      <point x="402" y="439"/>
      <point x="364" y="475"/>
      <point x="296" y="475" type="curve" smooth="yes"/>
      <point x="216" y="475"/>
      <point x="150" y="406"/>
      <point x="137" y="314" type="curve" smooth="yes"/>
      <point x="93" y="0" type="line"/>
      <point x="42" y="0" type="line"/>
      <point x="114" y="511" type="line"/>
      <point x="149" y="511" type="line"/>
      <point x="149" y="435" type="line"/>
      <point x="187" y="489"/>
      <point x="246" y="521"/>
      <point x="306" y="521" type="curve" smooth="yes"/>
      <point x="372" y="521"/>
      <point x="426" y="493"/>
      <point x="448" y="434" type="curve"/>
      <point x="481" y="479"/>
      <point x="542" y="521"/>
    </contour>
  </outline>
</glyph>
<glyph name="p" format="1">
  <advance width="583"/>
  <unicode hex="0070"/>
  <outline>
    <contour>
      <point x="148" y="511" type="line"/>
      <point x="149" y="434" type="line"/>
      <point x="195" y="493"/>
      <point x="255" y="521"/>
      <point x="330" y="521" type="curve" smooth="yes"/>
      <point x="427" y="521"/>
      <point x="500" y="461"/>
      <point x="500" y="321" type="curve" smooth="yes"/>
      <point x="500" y="166"/>
      <point x="432" y="-10"/>
      <point x="255" y="-10" type="curve" smooth="yes"/>
      <point x="183" y="-10"/>
      <point x="130" y="21"/>
      <point x="104" y="71" type="curve"/>
      <point x="68" y="-181" type="line"/>
      <point x="17" y="-181" type="line"/>
      <point x="114" y="511" type="line"/>
    </contour>
    <contour>
      <point x="318" y="475" type="curve" smooth="yes"/>
      <point x="172" y="475"/>
      <point x="123" y="316"/>
      <point x="123" y="190" type="curve" smooth="yes"/>
      <point x="123" y="83"/>
      <point x="181" y="36"/>
      <point x="257" y="36" type="curve" smooth="yes"/>
      <point x="398" y="36"/>
      <point x="449" y="186"/>
      <point x="449" y="317" type="curve" smooth="yes"/>
      <point x="449" y="434"/>
      <point x="392" y="475"/>
    </contour>
  </outline>
</glyph>
<glyph name="t" format="1">
  <advance width="344"/>
  <unicode hex="0074"/>
  <outline>
    <contour>
      <point x="230" y="52" type="curve"/>
      <point x="224" y="7" type="line"/>
      <point x="205" y="-3"/>
      <point x="178" y="-10"/>
      <point x="153" y="-10" type="curve" smooth="yes"/>
      <point x="101" y="-10"/>
      <point x="65" y="17"/>
      <point x="65" y="76" type="curve" smooth="yes"/>
      <point x="65" y="84"/>
      <point x="66" y="92"/>
      <point x="67" y="101" type="curve" smooth="yes"/>
      <point x="118" y="465" type="line"/>
      <point x="62" y="465" type="line"/>
      <point x="69" y="511" type="line"/>
      <point x="125" y="511" type="line"/>
      <point x="166" y="674" type="line"/>
      <point x="199" y="674" type="line"/>
      <point x="176" y="511" type="line"/>
      <point x="295" y="511" type="line"/>
      <point x="288" y="465" type="line"/>
      <point x="169" y="465" type="line"/>
      <point x="118" y="103" type="line" smooth="yes"/>
      <point x="117" y="96"/>
      <point x="116" y="90"/>
      <point x="116" y="84" type="curve" smooth="yes"/>
      <point x="116" y="42"/>
      <point x="141" y="36"/>
      <point x="166" y="36" type="curve" smooth="yes"/>
      <point x="181" y="36"/>
      <point x="213" y="45"/>
    </contour>
    <contour>
      <point x="136" y="0" type="move" name="Bottom"/>
    </contour>
  </outline>
</glyph>
<glyph name="w" format="1">
  <advance width="809"/>
  <unicode hex="0077"/>
  <outline>
    <contour>
      <point x="156" y="0" type="line"/>
      <point x="50" y="511" type="line"/>
      <point x="103" y="511" type="line"/>
      <point x="189" y="93" type="line"/>
      <point x="193" y="93" type="line"/>
      <point x="396" y="511" type="line"/>
      <point x="455" y="511" type="line"/>
      <point x="541" y="93" type="line"/>
      <point x="545" y="93" type="line"/>
      <point x="748" y="511" type="line"/>
      <point x="797" y="511" type="line"/>
      <point x="548" y="0" type="line"/>
      <point x="508" y="0" type="line"/>
      <point x="416" y="446" type="line"/>
      <point x="412" y="446" type="line"/>
      <point x="196" y="0" type="line"/>
    </contour>
  </outline>
</glyph>
<glyph name="x" format="1">
  <advance width="517"/>
  <unicode hex="0078"/>
  <outline>
    <contour>
      <point x="227" y="221" type="line"/>
      <point x="223" y="221" type="line"/>
      <point x="34" y="0" type="line"/>
      <point x="-23" y="0" type="line"/>
      <point x="202" y="262" type="line"/>
      <point x="55" y="511" type="line"/>
      <point x="119" y="511" type="line"/>
      <point x="238" y="303" type="line"/>
      <point x="242" y="303" type="line"/>
      <point x="418" y="511" type="line"/>
      <point x="476" y="511" type="line"/>
      <point x="260" y="262" type="line"/>
      <point x="414" y="0" type="line"/>
      <point x="351" y="0" type="line"/>
    </contour>
  </outline>
</glyph>
<glyph name="z" format="1">
  <advance width="463"/>
  <unicode hex="007A"/>
  <outline>
    <contour>
      <point x="-1" y="24" type="line"/>
      <point x="338" y="465" type="line"/>
      <point x="78" y="465" type="line"/>
      <point x="84" y="511" type="line"/>
      <point x="419" y="511" type="line"/>
      <point x="416" y="487" type="line"/>
      <point x="76" y="46" type="line"/>
      <point x="362" y="46" type="line"/>
      <point x="356" y="0" type="line"/>
      <point x="-4" y="0" type="line"/>
    </contour>
  </outline>
</glyph>
<glyph name="braceleft" format="1">
  <advance width="314"/>
  <unicode hex="007B"/>
  <outline>
    <contour>
      <point x="76" y="268" type="curve"/>
      <point x="75" y="259" type="line"/>
      <point x="129" y="259"/>
      <point x="145" y="234"/>
      <point x="145" y="190" type="curve" smooth="yes"/>
      <point x="145" y="131"/>
      <point x="119" y="-27"/>
      <point x="119" y="-70" type="curve" smooth="yes"/>
      <point x="119" y="-110"/>
      <point x="163" y="-121"/>
      <point x="190" y="-121" type="curve"/>
      <point x="185" y="-159" type="line"/>
      <point x="131" y="-159"/>
      <point x="68" y="-136"/>
      <point x="68" y="-66" type="curve" smooth="yes"/>
      <point x="68" y="-14"/>
      <point x="99" y="137"/>
      <point x="99" y="175" type="curve" smooth="yes"/>
      <point x="99" y="211"/>
      <point x="64" y="224"/>
      <point x="30" y="224" type="curve"/>
      <point x="41" y="303" type="line"/>
      <point x="77" y="303"/>
      <point x="120" y="318"/>
      <point x="126" y="360" type="curve" smooth="yes"/>
      <point x="156" y="574" type="line" smooth="yes"/>
      <point x="169" y="669"/>
      <point x="246" y="686"/>
      <point x="304" y="686" type="curve"/>
      <point x="299" y="648" type="line"/>
      <point x="271" y="648"/>
      <point x="219" y="635"/>
      <point x="211" y="589" type="curve" smooth="yes"/>
      <point x="174" y="371" type="line" smooth="yes"/>
      <point x="163" y="306"/>
      <point x="142" y="268"/>
    </contour>
  </outline>
</glyph>
<glyph name="bar" format="1">
  <advance width="290"/>
  <unicode hex="007C"/>
  <outline>
    <contour>
      <point x="231" y="720" type="line"/>
      <point x="283" y="720" type="line"/>
      <point x="154" y="-199" type="line"/>
      <point x="102" y="-199" type="line"/>
    </contour>
  </outline>
</glyph>
<glyph name="braceright" format="1">
  <advance width="314"/>
  <unicode hex="007D"/>
  <outline>
    <contour>
      <point x="204" y="259" type="curve"/>
      <point x="205" y="268" type="line"/>
      <point x="151" y="268"/>
      <point x="135" y="293"/>
      <point x="135" y="337" type="curve" smooth="yes"/>
      <point x="135" y="396"/>
      <point x="161" y="554"/>
      <point x="161" y="597" type="curve" smooth="yes"/>
      <point x="161" y="637"/>
      <point x="117" y="648"/>
      <point x="90" y="648" type="curve"/>
      <point x="95" y="686" type="line"/>
      <point x="149" y="686"/>
      <point x="212" y="663"/>
      <point x="212" y="593" type="curve" smooth="yes"/>
      <point x="212" y="541"/>
      <point x="181" y="390"/>
      <point x="181" y="352" type="curve" smooth="yes"/>
      <point x="181" y="316"/>
      <point x="216" y="303"/>
      <point x="250" y="303" type="curve"/>
      <point x="239" y="224" type="line"/>
      <point x="203" y="224"/>
      <point x="160" y="209"/>
      <point x="154" y="167" type="curve" smooth="yes"/>
      <point x="124" y="-47" type="line" smooth="yes"/>
      <point x="111" y="-142"/>
      <point x="34" y="-159"/>
      <point x="-24" y="-159" type="curve"/>
      <point x="-19" y="-121" type="line"/>
      <point x="9" y="-121"/>
      <point x="61" y="-108"/>
      <point x="69" y="-62" type="curve" smooth="yes"/>
      <point x="106" y="156" type="line" smooth="yes"/>
      <point x="117" y="221"/>
      <point x="138" y="259"/>
    </contour>
  </outline>
</glyph>
<glyph name="asciitilde" format="1">
  <advance width="691"/>
  <unicode hex="007E"/>
  <outline>
    <contour>
      <point x="638" y="374" type="curve"/>
      <point x="630" y="314" type="line"/>
      <point x="630" y="314"/>
      <point x="551" y="236"/>
      <point x="456" y="236" type="curve" smooth="yes"/>
      <point x="371" y="236"/>
      <point x="315" y="302"/>
      <point x="227" y="302" type="curve" smooth="yes"/>
      <point x="132" y="302"/>
      <point x="53" y="224"/>
      <point x="53" y="224" type="curve"/>
      <point x="61" y="284" type="line"/>
      <point x="61" y="284"/>
      <point x="140" y="362"/>
      <point x="235" y="362" type="curve" smooth="yes"/>
      <point x="320" y="362"/>
      <point x="376" y="296"/>
      <point x="464" y="296" type="curve" smooth="yes"/>
      <point x="559" y="296"/>
      <point x="638" y="374"/>
    </contour>
  </outline>
</glyph>
<glyph name="exclamdown" format="1">
  <advance width="254"/>
  <unicode hex="00A1"/>
  <outline>
    <contour>
      <point x="166" y="510" type="line"/>
      <point x="156" y="441" type="line"/>
      <point x="91" y="441" type="line"/>
      <point x="101" y="510" type="line"/>
    </contour>
    <contour>
      <point x="135" y="369" type="line"/>
      <point x="69" y="-176" type="line"/>
      <point x="3" y="-176" type="line"/>
      <point x="93" y="369" type="line"/>
    </contour>
  </outline>
</glyph>
<glyph name="sterling" format="1">
  <advance width="597"/>
  <unicode hex="00A3"/>
  <outline>
    <contour>
      <point x="178" y="362" type="line"/>
      <point x="201" y="524" type="line" smooth="yes"/>
      <point x="217" y="640"/>
      <point x="312" y="700"/>
      <point x="419" y="700" type="curve" smooth="yes"/>
      <point x="516" y="700"/>
      <point x="585" y="650"/>
      <point x="585" y="555" type="curve" smooth="yes"/>
      <point x="585" y="545"/>
      <point x="585" y="535"/>
      <point x="580" y="505" type="curve"/>
      <point x="530" y="505" type="line"/>
      <point x="534" y="527"/>
      <point x="534" y="536"/>
      <point x="534" y="544" type="curve" smooth="yes"/>
      <point x="534" y="620"/>
      <point x="481" y="652"/>
      <point x="412" y="652" type="curve" smooth="yes"/>
      <point x="335" y="652"/>
      <point x="267" y="612"/>
      <point x="254" y="518" type="curve" smooth="yes"/>
      <point x="232" y="362" type="line"/>
      <point x="460" y="362" type="line"/>
      <point x="453" y="314" type="line"/>
      <point x="225" y="314" type="line"/>
      <point x="220" y="277" type="line"/>
      <point x="175" y="48" type="line"/>
      <point x="499" y="48" type="line"/>
      <point x="492" y="0" type="line"/>
      <point x="26" y="0" type="line"/>
      <point x="33" y="48" type="line"/>
      <point x="134" y="48" type="line"/>
      <point x="171" y="314" type="line"/>
      <point x="32" y="314" type="line"/>
      <point x="39" y="362" type="line"/>
    </contour>
  </outline>
</glyph>
<glyph name="currency" format="1">
  <advance width="624"/>
  <unicode hex="00A4"/>
  <outline>
    <contour>
      <point x="598" y="544" type="line"/>
      <point x="535" y="490" type="line"/>
      <point x="559" y="457"/>
      <point x="569" y="416"/>
      <point x="569" y="373" type="curve" smooth="yes"/>
      <point x="569" y="305"/>
      <point x="544" y="233"/>
      <point x="492" y="182" type="curve"/>
      <point x="539" y="128" type="line"/>
      <point x="491" y="86" type="line"/>
      <point x="443" y="142" type="line"/>
      <point x="396" y="106"/>
      <point x="340" y="88"/>
      <point x="284" y="88" type="curve" smooth="yes"/>
      <point x="228" y="88"/>
      <point x="176" y="106"/>
      <point x="139" y="142" type="curve"/>
      <point x="75" y="86" type="line"/>
      <point x="40" y="128" type="line"/>
      <point x="102" y="182" type="line"/>
      <point x="78" y="214"/>
      <point x="68" y="254"/>
      <point x="68" y="296" type="curve" smooth="yes"/>
      <point x="68" y="364"/>
      <point x="92" y="438"/>
      <point x="145" y="490" type="curve"/>
      <point x="98" y="544" type="line"/>
      <point x="146" y="586" type="line"/>
      <point x="194" y="530" type="line"/>
      <point x="241" y="566"/>
      <point x="297" y="584"/>
      <point x="353" y="584" type="curve" smooth="yes"/>
      <point x="409" y="584"/>
      <point x="461" y="566"/>
      <point x="498" y="530" type="curve"/>
      <point x="562" y="586" type="line"/>
    </contour>
    <contour>
      <point x="346" y="535" type="curve" smooth="yes"/>
      <point x="228" y="535"/>
      <point x="117" y="430"/>
      <point x="117" y="308" type="curve" smooth="yes"/>
      <point x="117" y="211"/>
      <point x="191" y="136"/>
      <point x="290" y="136" type="curve" smooth="yes"/>
      <point x="406" y="136"/>
      <point x="520" y="241"/>
      <point x="520" y="363" type="curve" smooth="yes"/>
      <point x="520" y="460"/>
      <point x="445" y="535"/>
    </contour>
  </outline>
</glyph>
<glyph name="yen" format="1">
  <advance width="635"/>
  <unicode hex="00A5"/>
  <outline>
    <contour>
      <point x="198" y="433" type="line"/>
      <point x="86" y="686" type="line"/>
      <point x="149" y="686" type="line"/>
      <point x="307" y="321" type="line"/>
      <point x="312" y="321" type="line"/>
      <point x="577" y="686" type="line"/>
      <point x="632" y="686" type="line"/>
      <point x="447" y="433" type="line"/>
      <point x="570" y="433" type="line"/>
      <point x="563" y="384" type="line"/>
      <point x="412" y="384" type="line"/>
      <point x="348" y="295" type="line"/>
      <point x="551" y="295" type="line"/>
      <point x="544" y="248" type="line"/>
      <point x="324" y="248" type="line"/>
      <point x="289" y="0" type="line"/>
      <point x="235" y="0" type="line"/>
      <point x="270" y="248" type="line"/>
      <point x="50" y="248" type="line"/>
      <point x="57" y="295" type="line"/>
      <point x="260" y="295" type="line"/>
      <point x="220" y="384" type="line"/>
      <point x="69" y="384" type="line"/>
      <point x="76" y="433" type="line"/>
    </contour>
  </outline>
</glyph>
<glyph name="brokenbar" format="1">
  <advance width="269"/>
  <unicode hex="00A6"/>
  <outline>
    <contour>
      <point x="211" y="686" type="line"/>
      <point x="174" y="424" type="line"/>
      <point x="109" y="424" type="line"/>
      <point x="146" y="686" type="line"/>
    </contour>
    <contour>
      <point x="151" y="262" type="line"/>
      <point x="114" y="0" type="line"/>
      <point x="49" y="0" type="line"/>
      <point x="86" y="262" type="line"/>
    </contour>
  </outline>
</glyph>
<glyph name="section" format="1">
  <advance width="516"/>
  <unicode hex="00A7"/>
  <outline>
    <contour>
      <point x="450" y="257" type="curve" smooth="yes"/>
      <point x="450" y="182"/>
      <point x="396" y="133"/>
      <point x="326" y="100" type="curve"/>
      <point x="368" y="72"/>
      <point x="399" y="37"/>
      <point x="399" y="-15" type="curve" smooth="yes"/>
      <point x="399" y="-106"/>
      <point x="325" y="-185"/>
      <point x="179" y="-185" type="curve" smooth="yes"/>
      <point x="54" y="-185"/>
      <point x="10" y="-119"/>
      <point x="10" y="-62" type="curve" smooth="yes"/>
      <point x="10" y="-51"/>
      <point x="13" y="-35"/>
      <point x="14" y="-33" type="curve" smooth="yes"/>
      <point x="64" y="-33" type="line"/>
      <point x="61" y="-49"/>
      <point x="61" y="-53"/>
      <point x="61" y="-58" type="curve" smooth="yes"/>
      <point x="61" y="-87"/>
      <point x="76" y="-139"/>
      <point x="194" y="-139" type="curve" smooth="yes"/>
      <point x="264" y="-139"/>
      <point x="347" y="-109"/>
      <point x="347" y="-25" type="curve" smooth="yes"/>
      <point x="347" y="105"/>
      <point x="42" y="112"/>
      <point x="42" y="254" type="curve" smooth="yes"/>
      <point x="42" y="327"/>
      <point x="88" y="372"/>
      <point x="165" y="411" type="curve"/>
      <point x="124" y="438"/>
      <point x="92" y="473"/>
      <point x="92" y="526" type="curve" smooth="yes"/>
      <point x="92" y="616"/>
      <point x="167" y="696"/>
      <point x="313" y="696" type="curve" smooth="yes"/>
      <point x="438" y="696"/>
      <point x="482" y="630"/>
      <point x="482" y="573" type="curve" smooth="yes"/>
      <point x="482" y="562"/>
      <point x="479" y="546"/>
      <point x="478" y="544" type="curve" smooth="yes"/>
      <point x="428" y="544" type="line"/>
      <point x="431" y="560"/>
      <point x="431" y="564"/>
      <point x="431" y="568" type="curve" smooth="yes"/>
      <point x="431" y="597"/>
      <point x="416" y="650"/>
      <point x="298" y="650" type="curve" smooth="yes"/>
      <point x="230" y="650"/>
      <point x="145" y="621"/>
      <point x="145" y="535" type="curve" smooth="yes"/>
      <point x="145" y="406"/>
      <point x="450" y="398"/>
    </contour>
    <contour>
      <point x="294" y="118" type="curve"/>
      <point x="344" y="140"/>
      <point x="397" y="181"/>
      <point x="397" y="242" type="curve" smooth="yes"/>
      <point x="397" y="318"/>
      <point x="285" y="345"/>
      <point x="197" y="392" type="curve"/>
      <point x="160" y="376"/>
      <point x="95" y="341"/>
      <point x="95" y="268" type="curve" smooth="yes"/>
      <point x="95" y="192"/>
      <point x="206" y="165"/>
    </contour>
  </outline>
</glyph>
<glyph name="dieresis" format="1">
  <advance width="440"/>
  <unicode hex="00A8"/>
  <outline>
    <contour>
      <point x="147" y="720" type="line"/>
      <point x="138" y="651" type="line"/>
      <point x="73" y="651" type="line"/>
      <point x="82" y="720" type="line"/>
    </contour>
    <contour>
      <point x="323" y="720" type="line"/>
      <point x="314" y="651" type="line"/>
      <point x="249" y="651" type="line"/>
      <point x="258" y="720" type="line"/>
    </contour>
  </outline>
</glyph>
<glyph name="copyright" format="1">
  <advance width="785"/>
  <unicode hex="00A9"/>
  <outline>
    <contour>
      <point x="754" y="344" type="curve" smooth="yes"/>
      <point x="754" y="147"/>
      <point x="595" y="-10"/>
      <point x="400" y="-10" type="curve" smooth="yes"/>
      <point x="204" y="-10"/>
      <point x="46" y="147"/>
      <point x="46" y="344" type="curve" smooth="yes"/>
      <point x="46" y="539"/>
      <point x="204" y="696"/>
      <point x="400" y="696" type="curve" smooth="yes"/>
      <point x="595" y="696"/>
      <point x="754" y="539"/>
    </contour>
    <contour>
      <point x="728" y="344" type="curve" smooth="yes"/>
      <point x="728" y="524"/>
      <point x="580" y="670"/>
      <point x="400" y="670" type="curve" smooth="yes"/>
      <point x="219" y="670"/>
      <point x="72" y="524"/>
      <point x="72" y="344" type="curve" smooth="yes"/>
      <point x="72" y="162"/>
      <point x="219" y="16"/>
      <point x="400" y="16" type="curve" smooth="yes"/>
      <point x="580" y="16"/>
      <point x="728" y="162"/>
    </contour>
    <contour>
      <point x="527" y="394" type="line"/>
      <point x="527" y="401" type="line" smooth="yes"/>
      <point x="527" y="484"/>
      <point x="471" y="522"/>
      <point x="404" y="522" type="curve" smooth="yes"/>
      <point x="336" y="522"/>
      <point x="281" y="484"/>
      <point x="281" y="401" type="curve" smooth="yes"/>
      <point x="281" y="287" type="line" smooth="yes"/>
      <point x="281" y="202"/>
      <point x="336" y="165"/>
      <point x="404" y="165" type="curve" smooth="yes"/>
      <point x="476" y="165"/>
      <point x="528" y="207"/>
      <point x="528" y="292" type="curve"/>
      <point x="563" y="292" type="line"/>
      <point x="563" y="177"/>
      <point x="492" y="129"/>
      <point x="404" y="129" type="curve" smooth="yes"/>
      <point x="314" y="129"/>
      <point x="241" y="176"/>
      <point x="241" y="294" type="curve" smooth="yes"/>
      <point x="241" y="393" type="line" smooth="yes"/>
      <point x="241" y="510"/>
      <point x="314" y="558"/>
      <point x="404" y="558" type="curve" smooth="yes"/>
      <point x="492" y="558"/>
      <point x="563" y="509"/>
      <point x="563" y="394" type="curve"/>
    </contour>
  </outline>
</glyph>
<glyph name="ordfeminine" format="1">
  <advance width="419"/>
  <unicode hex="00AA"/>
  <outline>
    <contour>
      <point x="282" y="412" type="curve"/>
      <point x="281" y="415" type="line"/>
      <point x="254" y="384"/>
      <point x="221" y="370"/>
      <point x="178" y="370" type="curve" smooth="yes"/>
      <point x="118" y="370"/>
      <point x="72" y="408"/>
      <point x="72" y="495" type="curve" smooth="yes"/>
      <point x="72" y="590"/>
      <point x="116" y="699"/>
      <point x="224" y="699" type="curve" smooth="yes"/>
      <point x="269" y="699"/>
      <point x="300" y="680"/>
      <point x="316" y="648" type="curve"/>
      <point x="318" y="651" type="line"/>
      <point x="322" y="665"/>
      <point x="327" y="680"/>
      <point x="331" y="693" type="curve"/>
      <point x="355" y="693" type="line"/>
      <point x="355" y="693"/>
      <point x="318" y="425"/>
      <point x="318" y="416" type="curve" smooth="yes"/>
      <point x="318" y="406"/>
      <point x="323" y="402"/>
      <point x="330" y="402" type="curve" smooth="yes"/>
      <point x="337" y="402"/>
      <point x="352" y="408"/>
      <point x="364" y="414" type="curve"/>
      <point x="360" y="383" type="line"/>
      <point x="348" y="375"/>
      <point x="335" y="370"/>
      <point x="320" y="370" type="curve" smooth="yes"/>
      <point x="291" y="370"/>
      <point x="282" y="390"/>
    </contour>
    <contour>
      <point x="185" y="402" type="curve" smooth="yes"/>
      <point x="272" y="402"/>
      <point x="302" y="494"/>
      <point x="302" y="575" type="curve" smooth="yes"/>
      <point x="302" y="639"/>
      <point x="268" y="667"/>
      <point x="223" y="667" type="curve" smooth="yes"/>
      <point x="136" y="667"/>
      <point x="107" y="571"/>
      <point x="107" y="496" type="curve" smooth="yes"/>
      <point x="107" y="427"/>
      <point x="140" y="402"/>
    </contour>
  </outline>
</glyph>
<glyph name="guillemetleft" format="1">
  <advance width="458"/>
  <unicode hex="00AB"/>
  <outline>
    <contour>
      <point x="55" y="337" type="line"/>
      <point x="202" y="511" type="line"/>
      <point x="243" y="511" type="line"/>
      <point x="122" y="337" type="line"/>
      <point x="194" y="163" type="line"/>
      <point x="153" y="163" type="line"/>
    </contour>
    <contour>
      <point x="237" y="337" type="line"/>
      <point x="385" y="511" type="line"/>
      <point x="426" y="511" type="line"/>
      <point x="305" y="337" type="line"/>
      <point x="377" y="163" type="line"/>
      <point x="336" y="163" type="line"/>
    </contour>
  </outline>
</glyph>
<glyph name="logicalnot" format="1">
  <advance width="615"/>
  <unicode hex="00AC"/>
  <outline>
    <contour>
      <point x="471" y="184" type="line"/>
      <point x="498" y="376" type="line"/>
      <point x="44" y="376" type="line"/>
      <point x="52" y="435" type="line"/>
      <point x="564" y="435" type="line"/>
      <point x="529" y="184" type="line"/>
    </contour>
  </outline>
</glyph>
<glyph name="registered" format="1">
  <advance width="785"/>
  <unicode hex="00AE"/>
  <outline>
    <contour>
      <point x="754" y="344" type="curve" smooth="yes"/>
      <point x="754" y="147"/>
      <point x="595" y="-10"/>
      <point x="400" y="-10" type="curve" smooth="yes"/>
      <point x="204" y="-10"/>
      <point x="46" y="147"/>
      <point x="46" y="344" type="curve" smooth="yes"/>
      <point x="46" y="539"/>
      <point x="204" y="696"/>
      <point x="400" y="696" type="curve" smooth="yes"/>
      <point x="595" y="696"/>
      <point x="754" y="539"/>
    </contour>
    <contour>
      <point x="728" y="344" type="curve" smooth="yes"/>
      <point x="728" y="524"/>
      <point x="580" y="670"/>
      <point x="400" y="670" type="curve" smooth="yes"/>
      <point x="219" y="670"/>
      <point x="72" y="524"/>
      <point x="72" y="344" type="curve" smooth="yes"/>
      <point x="72" y="162"/>
      <point x="219" y="16"/>
      <point x="400" y="16" type="curve" smooth="yes"/>
      <point x="580" y="16"/>
      <point x="728" y="162"/>
    </contour>
    <contour>
      <point x="572" y="151" type="curve"/>
      <point x="572" y="137" type="line"/>
      <point x="572" y="137"/>
      <point x="561" y="134"/>
      <point x="553" y="134" type="curve" smooth="yes"/>
      <point x="532" y="134"/>
      <point x="503" y="145"/>
      <point x="503" y="215" type="curve" smooth="yes"/>
      <point x="503" y="320"/>
      <point x="449" y="328"/>
      <point x="430" y="328" type="curve" smooth="yes"/>
      <point x="305" y="328" type="line"/>
      <point x="305" y="135" type="line"/>
      <point x="264" y="135" type="line"/>
      <point x="264" y="547" type="line"/>
      <point x="433" y="547" type="line" smooth="yes"/>
      <point x="493" y="547"/>
      <point x="548" y="506"/>
      <point x="548" y="443" type="curve" smooth="yes"/>
      <point x="548" y="395"/>
      <point x="516" y="360"/>
      <point x="485" y="347" type="curve"/>
      <point x="485" y="343" type="line"/>
      <point x="504" y="335"/>
      <point x="541" y="311"/>
      <point x="541" y="229" type="curve" smooth="yes"/>
      <point x="541" y="185"/>
      <point x="541" y="163"/>
    </contour>
    <contour>
      <point x="305" y="363" type="line"/>
      <point x="435" y="363" type="line" smooth="yes"/>
      <point x="477" y="363"/>
      <point x="511" y="397"/>
      <point x="511" y="438" type="curve" smooth="yes"/>
      <point x="511" y="480"/>
      <point x="477" y="511"/>
      <point x="435" y="511" type="curve" smooth="yes"/>
      <point x="305" y="511" type="line"/>
    </contour>
  </outline>
</glyph>
<glyph name="degree" format="1">
  <advance width="404"/>
  <unicode hex="00B0"/>
  <outline>
    <contour>
      <point x="392" y="555" type="curve" smooth="yes"/>
      <point x="392" y="474"/>
      <point x="327" y="396"/>
      <point x="231" y="396" type="curve" smooth="yes"/>
      <point x="151" y="396"/>
      <point x="92" y="458"/>
      <point x="92" y="536" type="curve" smooth="yes"/>
      <point x="92" y="623"/>
      <point x="160" y="696"/>
      <point x="252" y="696" type="curve" smooth="yes"/>
      <point x="331" y="696"/>
      <point x="392" y="633"/>
    </contour>
    <contour>
      <point x="249" y="651" type="curve" smooth="yes"/>
      <point x="194" y="651"/>
      <point x="135" y="603"/>
      <point x="135" y="537" type="curve" smooth="yes"/>
      <point x="135" y="482"/>
      <point x="177" y="439"/>
      <point x="234" y="439" type="curve" smooth="yes"/>
      <point x="296" y="439"/>
      <point x="347" y="491"/>
      <point x="347" y="554" type="curve" smooth="yes"/>
      <point x="347" y="609"/>
      <point x="305" y="651"/>
    </contour>
  </outline>
</glyph>
<glyph name="plusminus" format="1">
  <advance width="615"/>
  <unicode hex="00B1"/>
  <outline>
    <contour>
      <point x="570" y="344" type="line"/>
      <point x="562" y="286" type="line"/>
      <point x="335" y="286" type="line"/>
      <point x="311" y="120" type="line"/>
      <point x="253" y="120" type="line"/>
      <point x="277" y="286" type="line"/>
      <point x="50" y="286" type="line"/>
      <point x="58" y="344" type="line"/>
      <point x="285" y="344" type="line"/>
      <point x="308" y="511" type="line"/>
      <point x="366" y="511" type="line"/>
      <point x="343" y="344" type="line"/>
    </contour>
    <contour>
      <point x="24" y="58" type="line"/>
      <point x="524" y="58" type="line"/>
      <point x="516" y="0" type="line"/>
      <point x="16" y="0" type="line"/>
    </contour>
  </outline>
</glyph>
<glyph name="twosuperior" format="1">
  <advance width="334"/>
  <unicode hex="00B2"/>
  <outline>
    <contour>
      <point x="13" y="422" type="line"/>
      <point x="15" y="441" type="line" smooth="yes"/>
      <point x="20" y="486"/>
      <point x="49" y="513"/>
      <point x="88" y="537" type="curve" smooth="yes"/>
      <point x="205" y="608" type="line" smooth="yes"/>
      <point x="231" y="624"/>
      <point x="262" y="653"/>
      <point x="262" y="699" type="curve" smooth="yes"/>
      <point x="262" y="739"/>
      <point x="238" y="767"/>
      <point x="191" y="767" type="curve" smooth="yes"/>
      <point x="134" y="767"/>
      <point x="93" y="721"/>
      <point x="93" y="664" type="curve"/>
      <point x="52" y="664" type="line"/>
      <point x="52" y="738"/>
      <point x="114" y="805"/>
      <point x="196" y="805" type="curve" smooth="yes"/>
      <point x="265" y="805"/>
      <point x="303" y="762"/>
      <point x="303" y="705" type="curve" smooth="yes"/>
      <point x="303" y="635"/>
      <point x="257" y="596"/>
      <point x="219" y="573" type="curve" smooth="yes"/>
      <point x="96" y="498" type="line" smooth="yes"/>
      <point x="73" y="484"/>
      <point x="65" y="470"/>
      <point x="64" y="460" type="curve"/>
      <point x="272" y="460" type="line"/>
      <point x="267" y="422" type="line"/>
    </contour>
  </outline>
</glyph>
<glyph name="threesuperior" format="1">
  <advance width="336"/>
  <unicode hex="00B3"/>
  <outline>
    <contour>
      <point x="30" y="536" type="curve"/>
      <point x="70" y="536" type="line"/>
      <point x="67" y="523"/>
      <point x="66" y="515"/>
      <point x="66" y="510" type="curve" smooth="yes"/>
      <point x="66" y="472"/>
      <point x="91" y="449"/>
      <point x="153" y="449" type="curve" smooth="yes"/>
      <point x="204" y="449"/>
      <point x="244" y="478"/>
      <point x="244" y="532" type="curve" smooth="yes"/>
      <point x="244" y="574"/>
      <point x="210" y="593"/>
      <point x="166" y="593" type="curve" smooth="yes"/>
      <point x="119" y="593" type="line"/>
      <point x="124" y="630" type="line"/>
      <point x="168" y="630" type="line" smooth="yes"/>
      <point x="216" y="630"/>
      <point x="261" y="654"/>
      <point x="261" y="707" type="curve" smooth="yes"/>
      <point x="261" y="745"/>
      <point x="230" y="764"/>
      <point x="190" y="764" type="curve" smooth="yes"/>
      <point x="143" y="764"/>
      <point x="106" y="739"/>
      <point x="100" y="696" type="curve" smooth="yes"/>
      <point x="98" y="683" type="line"/>
      <point x="58" y="683" type="line"/>
      <point x="60" y="696" type="line" smooth="yes"/>
      <point x="70" y="763"/>
      <point x="127" y="801"/>
      <point x="195" y="801" type="curve" smooth="yes"/>
      <point x="255" y="801"/>
      <point x="302" y="771"/>
      <point x="302" y="713" type="curve" smooth="yes"/>
      <point x="302" y="655"/>
      <point x="274" y="633"/>
      <point x="237" y="614" type="curve"/>
      <point x="265" y="601"/>
      <point x="284" y="576"/>
      <point x="284" y="538" type="curve" smooth="yes"/>
      <point x="284" y="460"/>
      <point x="228" y="413"/>
      <point x="148" y="413" type="curve" smooth="yes"/>
      <point x="75" y="413"/>
      <point x="26" y="448"/>
      <point x="26" y="505" type="curve" smooth="yes"/>
      <point x="26" y="510"/>
      <point x="26" y="519"/>
    </contour>
  </outline>
</glyph>
<glyph name="acute" format="1">
  <advance width="333"/>
  <unicode hex="00B4"/>
  <outline>
    <contour>
      <point x="173" y="720" type="line"/>
      <point x="238" y="720" type="line"/>
      <point x="237" y="717" type="line"/>
      <point x="106" y="575" type="line"/>
      <point x="56" y="575" type="line"/>
    </contour>
  </outline>
</glyph>
<glyph name="periodcentered" format="1">
  <advance width="235"/>
  <unicode hex="00B7"/>
  <outline>
    <contour>
      <point x="154" y="323" type="line"/>
      <point x="145" y="254" type="line"/>
      <point x="80" y="254" type="line"/>
      <point x="89" y="323" type="line"/>
    </contour>
  </outline>
</glyph>
<glyph name="cedilla" format="1">
  <advance width="350"/>
  <unicode hex="00B8"/>
  <outline>
    <contour>
      <point x="59" y="-184" type="curve"/>
      <point x="65" y="-138" type="line"/>
      <point x="77" y="-145"/>
      <point x="99" y="-151"/>
      <point x="132" y="-151" type="curve" smooth="yes"/>
      <point x="168" y="-151"/>
      <point x="216" y="-139"/>
      <point x="216" y="-91" type="curve" smooth="yes"/>
      <point x="216" y="-64"/>
      <point x="189" y="-51"/>
      <point x="164" y="-51" type="curve" smooth="yes"/>
      <point x="142" y="-51" type="line"/>
      <point x="147" y="-17" type="line"/>
      <point x="206" y="-17"/>
      <point x="267" y="-22"/>
      <point x="267" y="-90" type="curve" smooth="yes"/>
      <point x="267" y="-177"/>
      <point x="183" y="-197"/>
      <point x="135" y="-197" type="curve" smooth="yes"/>
      <point x="110" y="-197"/>
      <point x="81" y="-193"/>
    </contour>
  </outline>
</glyph>
<glyph name="onesuperior" format="1">
  <advance width="301"/>
  <unicode hex="00B9"/>
  <outline>
    <contour>
      <point x="18" y="460" type="line"/>
      <point x="120" y="460" type="line"/>
      <point x="161" y="745" type="line"/>
      <point x="59" y="745" type="line"/>
      <point x="63" y="774" type="line"/>
      <point x="105" y="776"/>
      <point x="132" y="780"/>
      <point x="188" y="797" type="curve"/>
      <point x="210" y="797" type="line"/>
      <point x="162" y="460" type="line"/>
      <point x="239" y="460" type="line"/>
      <point x="234" y="422" type="line"/>
      <point x="13" y="422" type="line"/>
    </contour>
  </outline>
</glyph>
<glyph name="ordmasculine" format="1">
  <advance width="392"/>
  <unicode hex="00BA"/>
  <outline>
    <contour>
      <point x="205" y="374" type="curve" smooth="yes"/>
      <point x="136" y="374"/>
      <point x="91" y="419"/>
      <point x="91" y="499" type="curve" smooth="yes"/>
      <point x="91" y="597"/>
      <point x="140" y="701"/>
      <point x="250" y="701" type="curve" smooth="yes"/>
      <point x="319" y="701"/>
      <point x="364" y="656"/>
      <point x="364" y="576" type="curve" smooth="yes"/>
      <point x="364" y="478"/>
      <point x="315" y="374"/>
    </contour>
    <contour>
      <point x="209" y="406" type="curve" smooth="yes"/>
      <point x="296" y="406"/>
      <point x="329" y="494"/>
      <point x="329" y="575" type="curve" smooth="yes"/>
      <point x="329" y="639"/>
      <point x="294" y="669"/>
      <point x="246" y="669" type="curve" smooth="yes"/>
      <point x="159" y="669"/>
      <point x="126" y="578"/>
      <point x="126" y="499" type="curve" smooth="yes"/>
      <point x="126" y="436"/>
      <point x="161" y="406"/>
    </contour>
  </outline>
</glyph>
<glyph name="guillemetright" format="1">
  <advance width="460"/>
  <unicode hex="00BB"/>
  <outline>
    <contour>
      <point x="159" y="337" type="line"/>
      <point x="86" y="511" type="line"/>
      <point x="127" y="511" type="line"/>
      <point x="227" y="337" type="line"/>
      <point x="78" y="163" type="line"/>
      <point x="37" y="163" type="line"/>
    </contour>
    <contour>
      <point x="342" y="337" type="line"/>
      <point x="269" y="511" type="line"/>
      <point x="310" y="511" type="line"/>
      <point x="409" y="337" type="line"/>
      <point x="261" y="163" type="line"/>
      <point x="220" y="163" type="line"/>
    </contour>
  </outline>
</glyph>
<glyph name="onequarter" format="1">
  <advance width="701"/>
  <unicode hex="00BC"/>
  <outline>
    <contour>
      <point x="43" y="349" type="line"/>
      <point x="145" y="349" type="line"/>
      <point x="185" y="634" type="line"/>
      <point x="83" y="634" type="line"/>
      <point x="87" y="663" type="line"/>
      <point x="130" y="665"/>
      <point x="157" y="669"/>
      <point x="213" y="686" type="curve"/>
      <point x="235" y="686" type="line"/>
      <point x="187" y="349" type="line"/>
      <point x="264" y="349" type="line"/>
      <point x="259" y="311" type="line"/>
      <point x="38" y="311" type="line"/>
    </contour>
    <contour>
      <point x="85" y="0" type="line"/>
      <point x="602" y="686" type="line"/>
      <point x="646" y="686" type="line"/>
      <point x="132" y="0" type="line"/>
    </contour>
    <contour>
      <point x="585" y="135" type="line"/>
      <point x="604" y="265" type="line"/>
      <point x="613" y="279"/>
      <point x="623" y="295"/>
      <point x="631" y="311" type="curve"/>
      <point x="651" y="311" type="line"/>
      <point x="626" y="135" type="line"/>
      <point x="669" y="135" type="line"/>
      <point x="664" y="98" type="line"/>
      <point x="621" y="98" type="line"/>
      <point x="607" y="0" type="line"/>
      <point x="566" y="0" type="line"/>
      <point x="580" y="98" type="line"/>
      <point x="399" y="98" type="line"/>
      <point x="404" y="132" type="line"/>
      <point x="428" y="157"/>
      <point x="519" y="287"/>
      <point x="563" y="375" type="curve"/>
      <point x="606" y="375" type="line"/>
      <point x="565" y="290"/>
      <point x="494" y="181"/>
      <point x="453" y="135" type="curve"/>
    </contour>
  </outline>
</glyph>
<glyph name="onehalf" format="1">
  <advance width="727"/>
  <unicode hex="00BD"/>
  <outline>
    <contour>
      <point x="41" y="349" type="line"/>
      <point x="143" y="349" type="line"/>
      <point x="183" y="634" type="line"/>
      <point x="81" y="634" type="line"/>
      <point x="85" y="663" type="line"/>
      <point x="128" y="665"/>
      <point x="155" y="669"/>
      <point x="211" y="686" type="curve"/>
      <point x="233" y="686" type="line"/>
      <point x="185" y="349" type="line"/>
      <point x="262" y="349" type="line"/>
      <point x="257" y="311" type="line"/>
      <point x="36" y="311" type="line"/>
    </contour>
    <contour>
      <point x="83" y="0" type="line"/>
      <point x="600" y="686" type="line"/>
      <point x="644" y="686" type="line"/>
      <point x="130" y="0" type="line"/>
    </contour>
    <contour>
      <point x="398" y="0" type="line"/>
      <point x="401" y="19" type="line" smooth="yes"/>
      <point x="408" y="63"/>
      <point x="433" y="91"/>
      <point x="473" y="115" type="curve" smooth="yes"/>
      <point x="590" y="186" type="line" smooth="yes"/>
      <point x="618" y="203"/>
      <point x="647" y="231"/>
      <point x="647" y="279" type="curve" smooth="yes"/>
      <point x="647" y="318"/>
      <point x="623" y="345"/>
      <point x="577" y="345" type="curve" smooth="yes"/>
      <point x="521" y="345"/>
      <point x="478" y="299"/>
      <point x="478" y="242" type="curve"/>
      <point x="437" y="242" type="line"/>
      <point x="437" y="326"/>
      <point x="510" y="383"/>
      <point x="582" y="383" type="curve" smooth="yes"/>
      <point x="651" y="383"/>
      <point x="689" y="340"/>
      <point x="689" y="283" type="curve" smooth="yes"/>
      <point x="689" y="214"/>
      <point x="643" y="174"/>
      <point x="605" y="151" type="curve" smooth="yes"/>
      <point x="482" y="76" type="line" smooth="yes"/>
      <point x="459" y="62"/>
      <point x="451" y="48"/>
      <point x="450" y="38" type="curve"/>
      <point x="658" y="38" type="line"/>
      <point x="652" y="0" type="line"/>
    </contour>
  </outline>
</glyph>
<glyph name="threequarters" format="1">
  <advance width="698"/>
  <unicode hex="00BE"/>
  <outline>
    <contour>
      <point x="57" y="427" type="curve"/>
      <point x="97" y="427" type="line"/>
      <point x="94" y="414"/>
      <point x="93" y="406"/>
      <point x="93" y="401" type="curve" smooth="yes"/>
      <point x="93" y="363"/>
      <point x="118" y="340"/>
      <point x="180" y="340" type="curve" smooth="yes"/>
      <point x="231" y="340"/>
      <point x="271" y="369"/>
      <point x="271" y="423" type="curve" smooth="yes"/>
      <point x="271" y="465"/>
      <point x="237" y="484"/>
      <point x="193" y="484" type="curve" smooth="yes"/>
      <point x="146" y="484" type="line"/>
      <point x="151" y="521" type="line"/>
      <point x="195" y="521" type="line" smooth="yes"/>
      <point x="243" y="521"/>
      <point x="288" y="545"/>
      <point x="288" y="598" type="curve" smooth="yes"/>
      <point x="288" y="636"/>
      <point x="257" y="655"/>
      <point x="217" y="655" type="curve" smooth="yes"/>
      <point x="170" y="655"/>
      <point x="133" y="630"/>
      <point x="127" y="587" type="curve" smooth="yes"/>
      <point x="125" y="574" type="line"/>
      <point x="85" y="574" type="line"/>
      <point x="87" y="587" type="line" smooth="yes"/>
      <point x="97" y="654"/>
      <point x="154" y="692"/>
      <point x="222" y="692" type="curve" smooth="yes"/>
      <point x="282" y="692"/>
      <point x="329" y="662"/>
      <point x="329" y="604" type="curve" smooth="yes"/>
      <point x="329" y="546"/>
      <point x="301" y="524"/>
      <point x="264" y="505" type="curve"/>
      <point x="292" y="492"/>
      <point x="311" y="467"/>
      <point x="311" y="429" type="curve" smooth="yes"/>
      <point x="311" y="351"/>
      <point x="255" y="304"/>
      <point x="175" y="304" type="curve" smooth="yes"/>
      <point x="102" y="304"/>
      <point x="53" y="339"/>
      <point x="53" y="396" type="curve" smooth="yes"/>
      <point x="53" y="401"/>
      <point x="53" y="410"/>
    </contour>
    <contour>
      <point x="128" y="0" type="line"/>
      <point x="644" y="686" type="line"/>
      <point x="688" y="686" type="line"/>
      <point x="175" y="0" type="line"/>
    </contour>
    <contour>
      <point x="613" y="135" type="line"/>
      <point x="631" y="265" type="line"/>
      <point x="640" y="279"/>
      <point x="650" y="295"/>
      <point x="659" y="311" type="curve"/>
      <point x="679" y="311" type="line"/>
      <point x="654" y="135" type="line"/>
      <point x="697" y="135" type="line"/>
      <point x="692" y="98" type="line"/>
      <point x="649" y="98" type="line"/>
      <point x="635" y="0" type="line"/>
      <point x="594" y="0" type="line"/>
      <point x="608" y="98" type="line"/>
      <point x="427" y="98" type="line"/>
      <point x="431" y="132" type="line"/>
      <point x="456" y="157"/>
      <point x="546" y="287"/>
      <point x="591" y="375" type="curve"/>
      <point x="634" y="375" type="line"/>
      <point x="593" y="290"/>
      <point x="521" y="181"/>
      <point x="481" y="135" type="curve"/>
    </contour>
  </outline>
</glyph>
<glyph name="Aacute" format="1">
  <advance width="650"/>
  <unicode hex="00C1"/>
  <outline>
    <contour>
      <point x="463" y="895" type="line"/>
      <point x="528" y="895" type="line"/>
      <point x="527" y="892" type="line"/>
      <point x="396" y="750" type="line"/>
      <point x="346" y="750" type="line"/>
    </contour>
    <contour>
      <point x="113" y="170" type="line"/>
      <point x="19" y="0" type="line"/>
      <point x="-36" y="0" type="line"/>
      <point x="344" y="686" type="line"/>
      <point x="394" y="686" type="line"/>
      <point x="581" y="0" type="line"/>
      <point x="522" y="0" type="line"/>
      <point x="475" y="170" type="line"/>
    </contour>
    <contour>
      <point x="462" y="219" type="line"/>
      <point x="358" y="612" type="line"/>
      <point x="354" y="612" type="line"/>
      <point x="140" y="219" type="line"/>
    </contour>
  </outline>
</glyph>
<glyph name="Atilde" format="1">
  <advance width="650"/>
  <unicode hex="00C3"/>
  <outline>
    <contour>
      <point x="530" y="832" type="curve"/>
      <point x="567" y="832" type="line"/>
      <point x="563" y="800"/>
      <point x="534" y="750"/>
      <point x="455" y="750" type="curve" smooth="yes"/>
      <point x="391" y="750"/>
      <point x="346" y="782"/>
      <point x="292" y="782" type="curve" smooth="yes"/>
      <point x="259" y="782"/>
      <point x="241" y="773"/>
      <point x="231" y="750" type="curve"/>
      <point x="194" y="750" type="line"/>
      <point x="198" y="782"/>
      <point x="228" y="832"/>
      <point x="306" y="832" type="curve" smooth="yes"/>
      <point x="370" y="832"/>
      <point x="415" y="800"/>
      <point x="469" y="800" type="curve" smooth="yes"/>
      <point x="502" y="800"/>
      <point x="520" y="809"/>
    </contour>
    <contour>
      <point x="113" y="170" type="line"/>
      <point x="19" y="0" type="line"/>
      <point x="-36" y="0" type="line"/>
      <point x="344" y="686" type="line"/>
      <point x="394" y="686" type="line"/>
      <point x="581" y="0" type="line"/>
      <point x="522" y="0" type="line"/>
      <point x="475" y="170" type="line"/>
    </contour>
    <contour>
      <point x="462" y="219" type="line"/>
      <point x="358" y="612" type="line"/>
      <point x="354" y="612" type="line"/>
      <point x="140" y="219" type="line"/>
    </contour>
  </outline>
</glyph>
<glyph name="Adieresis" format="1">
  <advance width="650"/>
  <unicode hex="00C4"/>
  <outline>
    <contour>
      <point x="326" y="819" type="line"/>
      <point x="317" y="750" type="line"/>
      <point x="252" y="750" type="line"/>
      <point x="261" y="819" type="line"/>
    </contour>
    <contour>
      <point x="502" y="819" type="line"/>
      <point x="493" y="750" type="line"/>
      <point x="428" y="750" type="line"/>
      <point x="437" y="819" type="line"/>
    </contour>
    <contour>
      <point x="113" y="170" type="line"/>
      <point x="19" y="0" type="line"/>
      <point x="-36" y="0" type="line"/>
      <point x="344" y="686" type="line"/>
      <point x="394" y="686" type="line"/>
      <point x="581" y="0" type="line"/>
      <point x="522" y="0" type="line"/>
      <point x="475" y="170" type="line"/>
    </contour>
    <contour>
      <point x="462" y="219" type="line"/>
      <point x="358" y="612" type="line"/>
      <point x="354" y="612" type="line"/>
      <point x="140" y="219" type="line"/>
    </contour>
  </outline>
</glyph>
<glyph name="Aring" format="1">
  <advance width="650"/>
  <unicode hex="00C5"/>
  <outline>
    <contour>
      <point x="490" y="835" type="curve" smooth="yes"/>
      <point x="490" y="772"/>
      <point x="438" y="720"/>
      <point x="374" y="720" type="curve" smooth="yes"/>
      <point x="323" y="720"/>
      <point x="286" y="757"/>
      <point x="286" y="807" type="curve" smooth="yes"/>
      <point x="286" y="873"/>
      <point x="343" y="921"/>
      <point x="403" y="921" type="curve" smooth="yes"/>
      <point x="453" y="921"/>
      <point x="490" y="884"/>
    </contour>
    <contour>
      <point x="379" y="756" type="curve" smooth="yes"/>
      <point x="418" y="756"/>
      <point x="454" y="789"/>
      <point x="454" y="830" type="curve" smooth="yes"/>
      <point x="454" y="862"/>
      <point x="429" y="885"/>
      <point x="398" y="885" type="curve" smooth="yes"/>
      <point x="359" y="885"/>
      <point x="322" y="851"/>
      <point x="322" y="811" type="curve" smooth="yes"/>
      <point x="322" y="779"/>
      <point x="347" y="756"/>
    </contour>
    <contour>
      <point x="113" y="170" type="line"/>
      <point x="19" y="0" type="line"/>
      <point x="-36" y="0" type="line"/>
      <point x="344" y="686" type="line"/>
      <point x="394" y="686" type="line"/>
      <point x="581" y="0" type="line"/>
      <point x="522" y="0" type="line"/>
      <point x="475" y="170" type="line"/>
    </contour>
    <contour>
      <point x="462" y="219" type="line"/>
      <point x="358" y="612" type="line"/>
      <point x="354" y="612" type="line"/>
      <point x="140" y="219" type="line"/>
    </contour>
  </outline>
</glyph>
<glyph name="AE" format="1">
  <advance width="981"/>
  <unicode hex="00C6"/>
  <outline>
    <contour>
      <point x="477" y="170" type="line"/>
      <point x="123" y="170" type="line"/>
      <point x="29" y="0" type="line"/>
      <point x="-33" y="0" type="line"/>
      <point x="348" y="686" type="line"/>
      <point x="863" y="686" type="line"/>
      <point x="851" y="638" type="line"/>
      <point x="407" y="638" type="line"/>
      <point x="479" y="374" type="line"/>
      <point x="812" y="374" type="line"/>
      <point x="812" y="326" type="line"/>
      <point x="492" y="326" type="line"/>
      <point x="568" y="48" type="line"/>
      <point x="864" y="48" type="line"/>
      <point x="873" y="0" type="line"/>
      <point x="524" y="0" type="line"/>
    </contour>
    <contour>
      <point x="464" y="219" type="line"/>
      <point x="361" y="608" type="line"/>
      <point x="358" y="607" type="line"/>
      <point x="150" y="219" type="line"/>
    </contour>
  </outline>
</glyph>
<glyph name="Ccedilla" format="1">
  <advance width="662"/>
  <unicode hex="00C7"/>
  <outline>
    <contour>
      <point x="513" y="251" type="curve"/>
      <point x="566" y="251" type="line"/>
      <point x="537" y="48"/>
      <point x="407" y="-10"/>
      <point x="275" y="-10" type="curve" smooth="yes"/>
      <point x="149" y="-10"/>
      <point x="57" y="37"/>
      <point x="57" y="223" type="curve" smooth="yes"/>
      <point x="57" y="254"/>
      <point x="59" y="289"/>
      <point x="68" y="356" type="curve" smooth="yes"/>
      <point x="104" y="631"/>
      <point x="227" y="696"/>
      <point x="374" y="696" type="curve" smooth="yes"/>
      <point x="492" y="696"/>
      <point x="596" y="653"/>
      <point x="596" y="496" type="curve" smooth="yes"/>
      <point x="596" y="477"/>
      <point x="594" y="456"/>
      <point x="591" y="434" type="curve"/>
      <point x="538" y="434" type="line"/>
      <point x="541" y="453"/>
      <point x="542" y="470"/>
      <point x="542" y="486" type="curve" smooth="yes"/>
      <point x="542" y="615"/>
      <point x="460" y="648"/>
      <point x="367" y="648" type="curve" smooth="yes"/>
      <point x="250" y="648"/>
      <point x="155" y="595"/>
      <point x="123" y="368" type="curve" smooth="yes"/>
      <point x="111" y="284"/>
      <point x="110" y="254"/>
      <point x="110" y="227" type="curve" smooth="yes"/>
      <point x="110" y="76"/>
      <point x="182" y="38"/>
      <point x="282" y="38" type="curve" smooth="yes"/>
      <point x="387" y="38"/>
      <point x="489" y="81"/>
    </contour>
    <contour>
      <point x="149" y="-184" type="curve"/>
      <point x="155" y="-138" type="line"/>
      <point x="167" y="-145"/>
      <point x="189" y="-151"/>
      <point x="222" y="-151" type="curve" smooth="yes"/>
      <point x="258" y="-151"/>
      <point x="306" y="-139"/>
      <point x="306" y="-91" type="curve" smooth="yes"/>
      <point x="306" y="-64"/>
      <point x="279" y="-51"/>
      <point x="254" y="-51" type="curve" smooth="yes"/>
      <point x="232" y="-51" type="line"/>
      <point x="237" y="-17" type="line"/>
      <point x="296" y="-17"/>
      <point x="357" y="-22"/>
      <point x="357" y="-90" type="curve" smooth="yes"/>
      <point x="357" y="-177"/>
      <point x="273" y="-197"/>
      <point x="225" y="-197" type="curve" smooth="yes"/>
      <point x="200" y="-197"/>
      <point x="171" y="-193"/>
    </contour>
  </outline>
</glyph>
<glyph name="Eacute" format="1">
  <advance width="592"/>
  <unicode hex="00C9"/>
  <outline>
    <contour>
      <point x="451" y="895" type="line"/>
      <point x="516" y="895" type="line"/>
      <point x="515" y="892" type="line"/>
      <point x="384" y="750" type="line"/>
      <point x="334" y="750" type="line"/>
    </contour>
    <contour>
      <point x="148" y="686" type="line"/>
      <point x="572" y="686" type="line"/>
      <point x="559" y="638" type="line"/>
      <point x="195" y="638" type="line"/>
      <point x="158" y="374" type="line"/>
      <point x="477" y="374" type="line"/>
      <point x="470" y="326" type="line"/>
      <point x="151" y="326" type="line"/>
      <point x="112" y="48" type="line"/>
      <point x="481" y="48" type="line"/>
      <point x="481" y="0" type="line"/>
      <point x="51" y="0" type="line"/>
    </contour>
  </outline>
</glyph>
<glyph name="Edieresis" format="1">
  <advance width="592"/>
  <unicode hex="00CB"/>
  <outline>
    <contour>
      <point x="328" y="819" type="line"/>
      <point x="319" y="750" type="line"/>
      <point x="254" y="750" type="line"/>
      <point x="263" y="819" type="line"/>
    </contour>
    <contour>
      <point x="504" y="819" type="line"/>
      <point x="495" y="750" type="line"/>
      <point x="430" y="750" type="line"/>
      <point x="439" y="819" type="line"/>
    </contour>
    <contour>
      <point x="148" y="686" type="line"/>
      <point x="572" y="686" type="line"/>
      <point x="559" y="638" type="line"/>
      <point x="195" y="638" type="line"/>
      <point x="158" y="374" type="line"/>
      <point x="477" y="374" type="line"/>
      <point x="470" y="326" type="line"/>
      <point x="151" y="326" type="line"/>
      <point x="112" y="48" type="line"/>
      <point x="481" y="48" type="line"/>
      <point x="481" y="0" type="line"/>
      <point x="51" y="0" type="line"/>
    </contour>
  </outline>
</glyph>
<glyph name="Igrave" format="1">
  <advance width="365"/>
  <unicode hex="00CC"/>
  <outline>
    <contour>
      <point x="108" y="892" type="line"/>
      <point x="109" y="895" type="line"/>
      <point x="174" y="895" type="line"/>
      <point x="249" y="750" type="line"/>
      <point x="199" y="750" type="line"/>
    </contour>
    <contour>
      <point x="321" y="686" type="line"/>
      <point x="314" y="637" type="line"/>
      <point x="235" y="637" type="line"/>
      <point x="152" y="49" type="line"/>
      <point x="231" y="49" type="line"/>
      <point x="224" y="0" type="line"/>
      <point x="12" y="0" type="line"/>
      <point x="19" y="49" type="line"/>
      <point x="98" y="49" type="line"/>
      <point x="181" y="637" type="line"/>
      <point x="102" y="637" type="line"/>
      <point x="109" y="686" type="line"/>
    </contour>
  </outline>
</glyph>
<glyph name="Icircumflex" format="1">
  <advance width="365"/>
  <unicode hex="00CE"/>
  <outline>
    <contour>
      <point x="274" y="895" type="line"/>
      <point x="387" y="750" type="line"/>
      <point x="327" y="750" type="line"/>
      <point x="238" y="847" type="line"/>
      <point x="121" y="750" type="line"/>
      <point x="61" y="750" type="line"/>
      <point x="216" y="895" type="line"/>
    </contour>
    <contour>
      <point x="321" y="686" type="line"/>
      <point x="314" y="637" type="line"/>
      <point x="235" y="637" type="line"/>
      <point x="152" y="49" type="line"/>
      <point x="231" y="49" type="line"/>
      <point x="224" y="0" type="line"/>
      <point x="12" y="0" type="line"/>
      <point x="19" y="49" type="line"/>
      <point x="98" y="49" type="line"/>
      <point x="181" y="637" type="line"/>
      <point x="102" y="637" type="line"/>
      <point x="109" y="686" type="line"/>
    </contour>
  </outline>
</glyph>
<glyph name="Eth" format="1">
  <advance width="682"/>
  <unicode hex="00D0"/>
  <outline>
    <contour>
      <point x="109" y="319" type="line"/>
      <point x="10" y="319" type="line"/>
      <point x="16" y="367" type="line"/>
      <point x="116" y="367" type="line"/>
      <point x="161" y="686" type="line"/>
      <point x="381" y="686" type="line" smooth="yes"/>
      <point x="508" y="686"/>
      <point x="607" y="632"/>
      <point x="607" y="450" type="curve" smooth="yes"/>
      <point x="607" y="421"/>
      <point x="605" y="391"/>
      <point x="597" y="331" type="curve" smooth="yes"/>
      <point x="564" y="74"/>
      <point x="438" y="0"/>
      <point x="284" y="0" type="curve" smooth="yes"/>
      <point x="64" y="0" type="line"/>
    </contour>
    <contour>
      <point x="125" y="48" type="line"/>
      <point x="291" y="48" type="line" smooth="yes"/>
      <point x="408" y="48"/>
      <point x="511" y="104"/>
      <point x="542" y="322" type="curve" smooth="yes"/>
      <point x="552" y="393"/>
      <point x="554" y="418"/>
      <point x="554" y="441" type="curve" smooth="yes"/>
      <point x="554" y="592"/>
      <point x="481" y="638"/>
      <point x="374" y="638" type="curve" smooth="yes"/>
      <point x="208" y="638" type="line"/>
      <point x="170" y="367" type="line"/>
      <point x="342" y="367" type="line"/>
      <point x="335" y="319" type="line"/>
      <point x="163" y="319" type="line"/>
    </contour>
  </outline>
</glyph>
<glyph name="Otilde" format="1">
  <advance width="690"/>
  <unicode hex="00D5"/>
  <outline>
    <contour>
      <point x="558" y="833" type="curve"/>
      <point x="595" y="833" type="line"/>
      <point x="591" y="801"/>
      <point x="562" y="751"/>
      <point x="483" y="751" type="curve" smooth="yes"/>
      <point x="419" y="751"/>
      <point x="374" y="783"/>
      <point x="320" y="783" type="curve" smooth="yes"/>
      <point x="287" y="783"/>
      <point x="269" y="774"/>
      <point x="259" y="751" type="curve"/>
      <point x="222" y="751" type="line"/>
      <point x="226" y="783"/>
      <point x="256" y="833"/>
      <point x="334" y="833" type="curve" smooth="yes"/>
      <point x="398" y="833"/>
      <point x="443" y="801"/>
      <point x="497" y="801" type="curve" smooth="yes"/>
      <point x="530" y="801"/>
      <point x="548" y="810"/>
    </contour>
    <contour>
      <point x="283" y="-10" type="curve" smooth="yes"/>
      <point x="156" y="-10"/>
      <point x="57" y="38"/>
      <point x="57" y="228" type="curve" smooth="yes"/>
      <point x="57" y="258"/>
      <point x="59" y="291"/>
      <point x="68" y="356" type="curve" smooth="yes"/>
      <point x="104" y="631"/>
      <point x="235" y="696"/>
      <point x="382" y="696" type="curve" smooth="yes"/>
      <point x="509" y="696"/>
      <point x="608" y="648"/>
      <point x="608" y="458" type="curve" smooth="yes"/>
      <point x="608" y="428"/>
      <point x="605" y="394"/>
      <point x="597" y="330" type="curve" smooth="yes"/>
      <point x="562" y="54"/>
      <point x="430" y="-10"/>
    </contour>
    <contour>
      <point x="290" y="38" type="curve" smooth="yes"/>
      <point x="407" y="38"/>
      <point x="511" y="91"/>
      <point x="542" y="318" type="curve" smooth="yes"/>
      <point x="553" y="400"/>
      <point x="555" y="428"/>
      <point x="555" y="454" type="curve" smooth="yes"/>
      <point x="555" y="609"/>
      <point x="475" y="648"/>
      <point x="375" y="648" type="curve" smooth="yes"/>
      <point x="258" y="648"/>
      <point x="156" y="595"/>
      <point x="123" y="368" type="curve" smooth="yes"/>
      <point x="111" y="286"/>
      <point x="110" y="257"/>
      <point x="110" y="232" type="curve" smooth="yes"/>
      <point x="110" y="77"/>
      <point x="189" y="38"/>
    </contour>
  </outline>
</glyph>
<glyph name="Odieresis" format="1">
  <advance width="690"/>
  <unicode hex="00D6"/>
  <outline>
    <contour>
      <point x="360" y="820" type="line"/>
      <point x="351" y="751" type="line"/>
      <point x="286" y="751" type="line"/>
      <point x="295" y="820" type="line"/>
    </contour>
    <contour>
      <point x="536" y="820" type="line"/>
      <point x="527" y="751" type="line"/>
      <point x="462" y="751" type="line"/>
      <point x="471" y="820" type="line"/>
    </contour>
    <contour>
      <point x="283" y="-10" type="curve" smooth="yes"/>
      <point x="156" y="-10"/>
      <point x="57" y="38"/>
      <point x="57" y="228" type="curve" smooth="yes"/>
      <point x="57" y="258"/>
      <point x="59" y="291"/>
      <point x="68" y="356" type="curve" smooth="yes"/>
      <point x="104" y="631"/>
      <point x="235" y="696"/>
      <point x="382" y="696" type="curve" smooth="yes"/>
      <point x="509" y="696"/>
      <point x="608" y="648"/>
      <point x="608" y="458" type="curve" smooth="yes"/>
      <point x="608" y="428"/>
      <point x="605" y="394"/>
      <point x="597" y="330" type="curve" smooth="yes"/>
      <point x="562" y="54"/>
      <point x="430" y="-10"/>
    </contour>
    <contour>
      <point x="290" y="38" type="curve" smooth="yes"/>
      <point x="407" y="38"/>
      <point x="511" y="91"/>
      <point x="542" y="318" type="curve" smooth="yes"/>
      <point x="553" y="400"/>
      <point x="555" y="428"/>
      <point x="555" y="454" type="curve" smooth="yes"/>
      <point x="555" y="609"/>
      <point x="475" y="648"/>
      <point x="375" y="648" type="curve" smooth="yes"/>
      <point x="258" y="648"/>
      <point x="156" y="595"/>
      <point x="123" y="368" type="curve" smooth="yes"/>
      <point x="111" y="286"/>
      <point x="110" y="257"/>
      <point x="110" y="232" type="curve" smooth="yes"/>
      <point x="110" y="77"/>
      <point x="189" y="38"/>
    </contour>
  </outline>
</glyph>
<glyph name="multiply" format="1">
  <advance width="615"/>
  <unicode hex="00D7"/>
  <outline>
    <contour>
      <point x="485" y="457" type="line"/>
      <point x="520" y="416" type="line"/>
      <point x="336" y="255" type="line"/>
      <point x="474" y="95" type="line"/>
      <point x="427" y="54" type="line"/>
      <point x="290" y="214" type="line"/>
      <point x="107" y="54" type="line"/>
      <point x="72" y="95" type="line"/>
      <point x="254" y="255" type="line"/>
      <point x="117" y="416" type="line"/>
      <point x="164" y="457" type="line"/>
      <point x="301" y="296" type="line"/>
    </contour>
  </outline>
</glyph>
<glyph name="Udieresis" format="1">
  <advance width="682"/>
  <unicode hex="00DC"/>
  <outline>
    <contour>
      <point x="344" y="820" type="line"/>
      <point x="335" y="751" type="line"/>
      <point x="270" y="751" type="line"/>
      <point x="279" y="820" type="line"/>
    </contour>
    <contour>
      <point x="520" y="820" type="line"/>
      <point x="511" y="751" type="line"/>
      <point x="446" y="751" type="line"/>
      <point x="455" y="820" type="line"/>
    </contour>
    <contour>
      <point x="619" y="686" type="line"/>
      <point x="554" y="220" type="line" smooth="yes"/>
      <point x="534" y="81"/>
      <point x="427" y="-10"/>
      <point x="283" y="-10" type="curve" smooth="yes"/>
      <point x="153" y="-10"/>
      <point x="74" y="64"/>
      <point x="74" y="180" type="curve" smooth="yes"/>
      <point x="74" y="233"/>
      <point x="142" y="686"/>
      <point x="142" y="686" type="curve"/>
      <point x="196" y="686" type="line"/>
      <point x="129" y="210"/>
      <point x="128" y="214"/>
      <point x="128" y="187" type="curve" smooth="yes"/>
      <point x="128" y="96"/>
      <point x="184" y="38"/>
      <point x="289" y="38" type="curve" smooth="yes"/>
      <point x="408" y="38"/>
      <point x="485" y="114"/>
      <point x="500" y="222" type="curve" smooth="yes"/>
      <point x="565" y="686" type="line"/>
    </contour>
  </outline>
</glyph>
<glyph name="Yacute" format="1">
  <advance width="570"/>
  <unicode hex="00DD"/>
  <outline>
    <contour>
      <point x="428" y="895" type="line"/>
      <point x="493" y="895" type="line"/>
      <point x="492" y="892" type="line"/>
      <point x="361" y="750" type="line"/>
      <point x="311" y="750" type="line"/>
    </contour>
    <contour>
      <point x="252" y="0" type="line"/>
      <point x="198" y="0" type="line"/>
      <point x="236" y="266" type="line"/>
      <point x="49" y="686" type="line"/>
      <point x="112" y="686" type="line"/>
      <point x="270" y="321" type="line"/>
      <point x="275" y="321" type="line"/>
      <point x="540" y="686" type="line"/>
      <point x="595" y="686" type="line"/>
      <point x="290" y="266" type="line"/>
    </contour>
  </outline>
</glyph>
<glyph name="Thorn" format="1">
  <advance width="633"/>
  <unicode hex="00DE"/>
  <outline>
    <contour>
      <point x="148" y="686" type="line"/>
      <point x="202" y="686" type="line"/>
      <point x="183" y="551" type="line"/>
      <point x="410" y="551" type="line" smooth="yes"/>
      <point x="504" y="551"/>
      <point x="572" y="481"/>
      <point x="572" y="391" type="curve" smooth="yes"/>
      <point x="572" y="276"/>
      <point x="469" y="177"/>
      <point x="357" y="177" type="curve" smooth="yes"/>
      <point x="130" y="177" type="line"/>
      <point x="105" y="0" type="line"/>
      <point x="51" y="0" type="line"/>
    </contour>
    <contour>
      <point x="137" y="224" type="line"/>
      <point x="357" y="224" type="line" smooth="yes"/>
      <point x="441" y="224"/>
      <point x="519" y="297"/>
      <point x="519" y="384" type="curve" smooth="yes"/>
      <point x="519" y="452"/>
      <point x="467" y="503"/>
      <point x="396" y="503" type="curve" smooth="yes"/>
      <point x="176" y="503" type="line"/>
    </contour>
  </outline>
</glyph>
<glyph name="adieresis" format="1">
  <advance width="607"/>
  <unicode hex="00E4"/>
  <outline>
    <contour>
      <point x="282" y="720" type="line"/>
      <point x="273" y="651" type="line"/>
      <point x="208" y="651" type="line"/>
      <point x="217" y="720" type="line"/>
    </contour>
    <contour>
      <point x="458" y="720" type="line"/>
      <point x="449" y="651" type="line"/>
      <point x="384" y="651" type="line"/>
      <point x="393" y="720" type="line"/>
    </contour>
    <contour>
      <point x="386" y="55" type="curve" smooth="yes"/>
      <point x="386" y="60"/>
      <point x="386" y="64"/>
      <point x="387" y="69" type="curve"/>
      <point x="342" y="15"/>
      <point x="284" y="-10"/>
      <point x="212" y="-10" type="curve" smooth="yes"/>
      <point x="115" y="-10"/>
      <point x="42" y="50"/>
      <point x="42" y="190" type="curve" smooth="yes"/>
      <point x="42" y="344"/>
      <point x="112" y="521"/>
      <point x="287" y="521" type="curve" smooth="yes"/>
      <point x="359" y="521"/>
      <point x="412" y="490"/>
      <point x="438" y="440" type="curve"/>
      <point x="442" y="440" type="line"/>
      <point x="466" y="511" type="line"/>
      <point x="499" y="511" type="line"/>
      <point x="499" y="511"/>
      <point x="437" y="73"/>
      <point x="437" y="61" type="curve" smooth="yes"/>
      <point x="437" y="43"/>
      <point x="447" y="36"/>
      <point x="460" y="36" type="curve" smooth="yes"/>
      <point x="475" y="36"/>
      <point x="496" y="43"/>
      <point x="513" y="52" type="curve"/>
      <point x="507" y="9" type="line"/>
      <point x="488" y="-3"/>
      <point x="467" y="-10"/>
      <point x="444" y="-10" type="curve" smooth="yes"/>
      <point x="400" y="-10"/>
      <point x="386" y="21"/>
    </contour>
    <contour>
      <point x="224" y="36" type="curve" smooth="yes"/>
      <point x="368" y="36"/>
      <point x="418" y="187"/>
      <point x="418" y="321" type="curve" smooth="yes"/>
      <point x="418" y="428"/>
      <point x="361" y="475"/>
      <point x="285" y="475" type="curve" smooth="yes"/>
      <point x="142" y="475"/>
      <point x="93" y="316"/>
      <point x="93" y="193" type="curve" smooth="yes"/>
      <point x="93" y="77"/>
      <point x="149" y="36"/>
    </contour>
  </outline>
</glyph>
<glyph name="aring" format="1">
  <advance width="607"/>
  <unicode hex="00E5"/>
  <outline>
    <contour>
      <point x="430" y="670" type="curve" smooth="yes"/>
      <point x="430" y="607"/>
      <point x="378" y="555"/>
      <point x="314" y="555" type="curve" smooth="yes"/>
      <point x="263" y="555"/>
      <point x="226" y="592"/>
      <point x="226" y="642" type="curve" smooth="yes"/>
      <point x="226" y="708"/>
      <point x="283" y="756"/>
      <point x="343" y="756" type="curve" smooth="yes"/>
      <point x="393" y="756"/>
      <point x="430" y="719"/>
    </contour>
    <contour>
      <point x="319" y="591" type="curve" smooth="yes"/>
      <point x="358" y="591"/>
      <point x="394" y="624"/>
      <point x="394" y="665" type="curve" smooth="yes"/>
      <point x="394" y="697"/>
      <point x="369" y="720"/>
      <point x="338" y="720" type="curve" smooth="yes"/>
      <point x="299" y="720"/>
      <point x="262" y="686"/>
      <point x="262" y="646" type="curve" smooth="yes"/>
      <point x="262" y="614"/>
      <point x="287" y="591"/>
    </contour>
    <contour>
      <point x="386" y="55" type="curve" smooth="yes"/>
      <point x="386" y="60"/>
      <point x="386" y="64"/>
      <point x="387" y="69" type="curve"/>
      <point x="342" y="15"/>
      <point x="284" y="-10"/>
      <point x="212" y="-10" type="curve" smooth="yes"/>
      <point x="115" y="-10"/>
      <point x="42" y="50"/>
      <point x="42" y="190" type="curve" smooth="yes"/>
      <point x="42" y="344"/>
      <point x="112" y="521"/>
      <point x="287" y="521" type="curve" smooth="yes"/>
      <point x="359" y="521"/>
      <point x="412" y="490"/>
      <point x="438" y="440" type="curve"/>
      <point x="442" y="440" type="line"/>
      <point x="466" y="511" type="line"/>
      <point x="499" y="511" type="line"/>
      <point x="499" y="511"/>
      <point x="437" y="73"/>
      <point x="437" y="61" type="curve" smooth="yes"/>
      <point x="437" y="43"/>
      <point x="447" y="36"/>
      <point x="460" y="36" type="curve" smooth="yes"/>
      <point x="475" y="36"/>
      <point x="496" y="43"/>
      <point x="513" y="52" type="curve"/>
      <point x="507" y="9" type="line"/>
      <point x="488" y="-3"/>
      <point x="467" y="-10"/>
      <point x="444" y="-10" type="curve" smooth="yes"/>
      <point x="400" y="-10"/>
      <point x="386" y="21"/>
    </contour>
    <contour>
      <point x="224" y="36" type="curve" smooth="yes"/>
      <point x="368" y="36"/>
      <point x="418" y="187"/>
      <point x="418" y="321" type="curve" smooth="yes"/>
      <point x="418" y="428"/>
      <point x="361" y="475"/>
      <point x="285" y="475" type="curve" smooth="yes"/>
      <point x="142" y="475"/>
      <point x="93" y="316"/>
      <point x="93" y="193" type="curve" smooth="yes"/>
      <point x="93" y="77"/>
      <point x="149" y="36"/>
    </contour>
  </outline>
</glyph>
<glyph name="ae" format="1">
  <advance width="895"/>
  <unicode hex="00E6"/>
  <outline>
    <contour>
      <point x="760" y="189" type="curve"/>
      <point x="810" y="189" type="line"/>
      <point x="792" y="61"/>
      <point x="693" y="-10"/>
      <point x="583" y="-10" type="curve" smooth="yes"/>
      <point x="496" y="-10"/>
      <point x="434" y="34"/>
      <point x="411" y="115" type="curve"/>
      <point x="355" y="22"/>
      <point x="259" y="-10"/>
      <point x="182" y="-10" type="curve" smooth="yes"/>
      <point x="101" y="-10"/>
      <point x="39" y="16"/>
      <point x="39" y="111" type="curve" smooth="yes"/>
      <point x="39" y="281"/>
      <point x="199" y="296"/>
      <point x="412" y="296" type="curve"/>
      <point x="422" y="371"/>
      <point x="423" y="381"/>
      <point x="423" y="390" type="curve" smooth="yes"/>
      <point x="423" y="454"/>
      <point x="387" y="475"/>
      <point x="304" y="475" type="curve" smooth="yes"/>
      <point x="222" y="475"/>
      <point x="154" y="446"/>
      <point x="144" y="371" type="curve" smooth="yes"/>
      <point x="142" y="355" type="line"/>
      <point x="92" y="355" type="line"/>
      <point x="92" y="355"/>
      <point x="93" y="372"/>
      <point x="94" y="381" type="curve" smooth="yes"/>
      <point x="107" y="471"/>
      <point x="201" y="521"/>
      <point x="311" y="521" type="curve" smooth="yes"/>
      <point x="407" y="521"/>
      <point x="461" y="492"/>
      <point x="473" y="430" type="curve"/>
      <point x="519" y="489"/>
      <point x="584" y="521"/>
      <point x="657" y="521" type="curve" smooth="yes"/>
      <point x="758" y="521"/>
      <point x="830" y="461"/>
      <point x="830" y="351" type="curve" smooth="yes"/>
      <point x="830" y="339"/>
      <point x="830" y="327"/>
      <point x="819" y="250" type="curve"/>
      <point x="457" y="250" type="line"/>
      <point x="456" y="242" type="line" smooth="yes"/>
      <point x="453" y="224"/>
      <point x="452" y="208"/>
      <point x="452" y="192" type="curve" smooth="yes"/>
      <point x="452" y="87"/>
      <point x="510" y="36"/>
      <point x="590" y="36" type="curve" smooth="yes"/>
      <point x="669" y="36"/>
      <point x="745" y="84"/>
    </contour>
    <contour>
      <point x="650" y="475" type="curve" smooth="yes"/>
      <point x="564" y="475"/>
      <point x="489" y="416"/>
      <point x="464" y="296" type="curve"/>
      <point x="775" y="296" type="line"/>
      <point x="779" y="325"/>
      <point x="780" y="336"/>
      <point x="780" y="346" type="curve" smooth="yes"/>
      <point x="780" y="433"/>
      <point x="723" y="475"/>
    </contour>
    <contour>
      <point x="401" y="216" type="curve" smooth="yes"/>
      <point x="406" y="250" type="line"/>
      <point x="216" y="250"/>
      <point x="90" y="243"/>
      <point x="90" y="119" type="curve" smooth="yes"/>
      <point x="90" y="62"/>
      <point x="119" y="36"/>
      <point x="199" y="36" type="curve" smooth="yes"/>
      <point x="286" y="36"/>
      <point x="383" y="92"/>
    </contour>
  </outline>
</glyph>
<glyph name="ecircumflex" format="1">
  <advance width="556"/>
  <unicode hex="00EA"/>
  <outline>
    <contour>
      <point x="365" y="720" type="line"/>
      <point x="478" y="575" type="line"/>
      <point x="418" y="575" type="line"/>
      <point x="329" y="672" type="line"/>
      <point x="212" y="575" type="line"/>
      <point x="152" y="575" type="line"/>
      <point x="307" y="720" type="line"/>
    </contour>
    <contour>
      <point x="400" y="189" type="curve"/>
      <point x="450" y="189" type="line"/>
      <point x="432" y="61"/>
      <point x="342" y="-10"/>
      <point x="223" y="-10" type="curve" smooth="yes"/>
      <point x="112" y="-10"/>
      <point x="41" y="62"/>
      <point x="41" y="191" type="curve" smooth="yes"/>
      <point x="41" y="348"/>
      <point x="118" y="521"/>
      <point x="297" y="521" type="curve" smooth="yes"/>
      <point x="398" y="521"/>
      <point x="470" y="461"/>
      <point x="470" y="351" type="curve" smooth="yes"/>
      <point x="470" y="339"/>
      <point x="466" y="280"/>
      <point x="459" y="250" type="curve"/>
      <point x="97" y="250" type="line"/>
      <point x="93" y="224"/>
      <point x="92" y="208"/>
      <point x="92" y="192" type="curve" smooth="yes"/>
      <point x="92" y="87"/>
      <point x="150" y="36"/>
      <point x="230" y="36" type="curve" smooth="yes"/>
      <point x="316" y="36"/>
      <point x="385" y="84"/>
    </contour>
    <contour>
      <point x="290" y="475" type="curve" smooth="yes"/>
      <point x="204" y="475"/>
      <point x="129" y="416"/>
      <point x="104" y="296" type="curve"/>
      <point x="415" y="296" type="line"/>
      <point x="420" y="325"/>
      <point x="420" y="336"/>
      <point x="420" y="346" type="curve" smooth="yes"/>
      <point x="420" y="433"/>
      <point x="363" y="475"/>
    </contour>
  </outline>
</glyph>
<glyph name="igrave" format="1">
  <advance width="261"/>
  <unicode hex="00EC"/>
  <outline>
    <contour>
      <point x="94" y="717" type="line"/>
      <point x="95" y="720" type="line"/>
      <point x="160" y="720" type="line"/>
      <point x="235" y="575" type="line"/>
      <point x="185" y="575" type="line"/>
    </contour>
    <contour>
      <point x="181" y="511" type="line"/>
      <point x="232" y="511" type="line"/>
      <point x="161" y="0" type="line"/>
      <point x="110" y="0" type="line"/>
    </contour>
  </outline>
</glyph>
<glyph name="iacute" format="1">
  <advance width="261"/>
  <unicode hex="00ED"/>
  <outline>
    <contour>
      <point x="234" y="720" type="line"/>
      <point x="299" y="720" type="line"/>
      <point x="298" y="717" type="line"/>
      <point x="167" y="575" type="line"/>
      <point x="117" y="575" type="line"/>
    </contour>
    <contour>
      <point x="114" y="511" type="line"/>
      <point x="165" y="511" type="line"/>
      <point x="94" y="0" type="line"/>
      <point x="43" y="0" type="line"/>
    </contour>
  </outline>
</glyph>
<glyph name="icircumflex" format="1">
  <advance width="261"/>
  <unicode hex="00EE"/>
  <outline>
    <contour>
      <point x="266" y="720" type="line"/>
      <point x="379" y="575" type="line"/>
      <point x="319" y="575" type="line"/>
      <point x="230" y="672" type="line"/>
      <point x="113" y="575" type="line"/>
      <point x="53" y="575" type="line"/>
      <point x="208" y="720" type="line"/>
    </contour>
    <contour>
      <point x="185" y="511" type="line"/>
      <point x="236" y="511" type="line"/>
      <point x="165" y="0" type="line"/>
      <point x="114" y="0" type="line"/>
    </contour>
  </outline>
</glyph>
<glyph name="idieresis" format="1">
  <advance width="261"/>
  <unicode hex="00EF"/>
  <outline>
    <contour>
      <point x="177" y="720" type="line"/>
      <point x="168" y="651" type="line"/>
      <point x="103" y="651" type="line"/>
      <point x="112" y="720" type="line"/>
    </contour>
    <contour>
      <point x="353" y="720" type="line"/>
      <point x="344" y="651" type="line"/>
      <point x="279" y="651" type="line"/>
      <point x="288" y="720" type="line"/>
    </contour>
    <contour>
      <point x="187" y="511" type="line"/>
      <point x="238" y="511" type="line"/>
      <point x="167" y="0" type="line"/>
      <point x="116" y="0" type="line"/>
    </contour>
  </outline>
</glyph>
<glyph name="eth" format="1">
  <advance width="576"/>
  <unicode hex="00F0"/>
  <outline>
    <contour>
      <point x="187" y="707" type="curve"/>
      <point x="226" y="724" type="line"/>
      <point x="253" y="706"/>
      <point x="283" y="684"/>
      <point x="312" y="661" type="curve"/>
      <point x="423" y="711" type="line"/>
      <point x="443" y="688" type="line"/>
      <point x="337" y="640" type="line"/>
      <point x="429" y="560"/>
      <point x="501" y="452"/>
      <point x="501" y="318" type="curve" smooth="yes"/>
      <point x="501" y="175"/>
      <point x="433" y="-10"/>
      <point x="243" y="-10" type="curve" smooth="yes"/>
      <point x="132" y="-10"/>
      <point x="59" y="62"/>
      <point x="59" y="192" type="curve" smooth="yes"/>
      <point x="59" y="337"/>
      <point x="130" y="521"/>
      <point x="318" y="521" type="curve" smooth="yes"/>
      <point x="345" y="521"/>
      <point x="369" y="516"/>
      <point x="391" y="508" type="curve"/>
      <point x="362" y="549"/>
      <point x="328" y="587"/>
      <point x="293" y="620" type="curve"/>
      <point x="184" y="570" type="line"/>
      <point x="162" y="593" type="line"/>
      <point x="270" y="642" type="line"/>
      <point x="238" y="669"/>
      <point x="208" y="691"/>
    </contour>
    <contour>
      <point x="249" y="36" type="curve" smooth="yes"/>
      <point x="392" y="36"/>
      <point x="451" y="191"/>
      <point x="451" y="317" type="curve" smooth="yes"/>
      <point x="451" y="424"/>
      <point x="391" y="475"/>
      <point x="311" y="475" type="curve" smooth="yes"/>
      <point x="159" y="475"/>
      <point x="109" y="320"/>
      <point x="109" y="195" type="curve" smooth="yes"/>
      <point x="109" y="88"/>
      <point x="168" y="36"/>
    </contour>
  </outline>
</glyph>
<glyph name="ntilde" format="1">
  <advance width="593"/>
  <unicode hex="00F1"/>
  <outline>
    <contour>
      <point x="488" y="719" type="curve"/>
      <point x="525" y="719" type="line"/>
      <point x="521" y="687"/>
      <point x="492" y="637"/>
      <point x="413" y="637" type="curve" smooth="yes"/>
      <point x="349" y="637"/>
      <point x="304" y="669"/>
      <point x="250" y="669" type="curve" smooth="yes"/>
      <point x="217" y="669"/>
      <point x="199" y="660"/>
      <point x="189" y="637" type="curve"/>
      <point x="152" y="637" type="line"/>
      <point x="156" y="669"/>
      <point x="186" y="719"/>
      <point x="264" y="719" type="curve" smooth="yes"/>
      <point x="328" y="719"/>
      <point x="373" y="687"/>
      <point x="427" y="687" type="curve" smooth="yes"/>
      <point x="460" y="687"/>
      <point x="478" y="696"/>
    </contour>
    <contour>
      <point x="444" y="0" type="curve"/>
      <point x="394" y="0" type="line"/>
      <point x="440" y="328"/>
      <point x="441" y="342"/>
      <point x="441" y="354" type="curve" smooth="yes"/>
      <point x="441" y="437"/>
      <point x="395" y="475"/>
      <point x="317" y="475" type="curve" smooth="yes"/>
      <point x="227" y="475"/>
      <point x="150" y="406"/>
      <point x="137" y="314" type="curve" smooth="yes"/>
      <point x="93" y="0" type="line"/>
      <point x="42" y="0" type="line"/>
      <point x="114" y="511" type="line"/>
      <point x="148" y="511" type="line"/>
      <point x="148" y="435" type="line"/>
      <point x="191" y="489"/>
      <point x="261" y="521"/>
      <point x="328" y="521" type="curve" smooth="yes"/>
      <point x="423" y="521"/>
      <point x="493" y="473"/>
      <point x="493" y="368" type="curve" smooth="yes"/>
      <point x="493" y="345"/>
      <point x="492" y="343"/>
    </contour>
  </outline>
</glyph>
<glyph name="otilde" format="1">
  <advance width="576"/>
  <unicode hex="00F5"/>
  <outline>
    <contour>
      <point x="480" y="720" type="curve"/>
      <point x="517" y="720" type="line"/>
      <point x="513" y="688"/>
      <point x="484" y="638"/>
      <point x="405" y="638" type="curve" smooth="yes"/>
      <point x="341" y="638"/>
      <point x="296" y="670"/>
      <point x="242" y="670" type="curve" smooth="yes"/>
      <point x="209" y="670"/>
      <point x="191" y="661"/>
      <point x="181" y="638" type="curve"/>
      <point x="144" y="638" type="line"/>
      <point x="148" y="670"/>
      <point x="178" y="720"/>
      <point x="256" y="720" type="curve" smooth="yes"/>
      <point x="320" y="720"/>
      <point x="365" y="688"/>
      <point x="419" y="688" type="curve" smooth="yes"/>
      <point x="452" y="688"/>
      <point x="470" y="697"/>
    </contour>
    <contour>
      <point x="225" y="-10" type="curve" smooth="yes"/>
      <point x="114" y="-10"/>
      <point x="41" y="62"/>
      <point x="41" y="192" type="curve" smooth="yes"/>
      <point x="41" y="352"/>
      <point x="121" y="521"/>
      <point x="300" y="521" type="curve" smooth="yes"/>
      <point x="411" y="521"/>
      <point x="484" y="449"/>
      <point x="484" y="319" type="curve" smooth="yes"/>
      <point x="484" y="159"/>
      <point x="404" y="-10"/>
    </contour>
    <contour>
      <point x="232" y="36" type="curve" smooth="yes"/>
      <point x="376" y="36"/>
      <point x="433" y="183"/>
      <point x="433" y="317" type="curve" smooth="yes"/>
      <point x="433" y="424"/>
      <point x="373" y="475"/>
      <point x="293" y="475" type="curve" smooth="yes"/>
      <point x="148" y="475"/>
      <point x="92" y="324"/>
      <point x="92" y="193" type="curve" smooth="yes"/>
      <point x="92" y="87"/>
      <point x="151" y="36"/>
    </contour>
  </outline>
</glyph>
<glyph name="odieresis" format="1">
  <advance width="576"/>
  <unicode hex="00F6"/>
  <outline>
    <contour>
      <point x="286" y="720" type="line"/>
      <point x="277" y="651" type="line"/>
      <point x="212" y="651" type="line"/>
      <point x="221" y="720" type="line"/>
    </contour>
    <contour>
      <point x="462" y="720" type="line"/>
      <point x="453" y="651" type="line"/>
      <point x="388" y="651" type="line"/>
      <point x="397" y="720" type="line"/>
    </contour>
    <contour>
      <point x="225" y="-10" type="curve" smooth="yes"/>
      <point x="114" y="-10"/>
      <point x="41" y="62"/>
      <point x="41" y="192" type="curve" smooth="yes"/>
      <point x="41" y="352"/>
      <point x="121" y="521"/>
      <point x="300" y="521" type="curve" smooth="yes"/>
      <point x="411" y="521"/>
      <point x="484" y="449"/>
      <point x="484" y="319" type="curve" smooth="yes"/>
      <point x="484" y="159"/>
      <point x="404" y="-10"/>
    </contour>
    <contour>
      <point x="232" y="36" type="curve" smooth="yes"/>
      <point x="376" y="36"/>
      <point x="433" y="183"/>
      <point x="433" y="317" type="curve" smooth="yes"/>
      <point x="433" y="424"/>
      <point x="373" y="475"/>
      <point x="293" y="475" type="curve" smooth="yes"/>
      <point x="148" y="475"/>
      <point x="92" y="324"/>
      <point x="92" y="193" type="curve" smooth="yes"/>
      <point x="92" y="87"/>
      <point x="151" y="36"/>
    </contour>
  </outline>
</glyph>
<glyph name="divide" format="1">
  <advance width="615"/>
  <unicode hex="00F7"/>
  <outline>
    <contour>
      <point x="359" y="439" type="line"/>
      <point x="350" y="370" type="line"/>
      <point x="285" y="370" type="line"/>
      <point x="294" y="439" type="line"/>
    </contour>
    <contour>
      <point x="50" y="284" type="line"/>
      <point x="562" y="284" type="line"/>
      <point x="553" y="226" type="line"/>
      <point x="41" y="226" type="line"/>
    </contour>
    <contour>
      <point x="317" y="140" type="line"/>
      <point x="308" y="71" type="line"/>
      <point x="243" y="71" type="line"/>
      <point x="252" y="140" type="line"/>
    </contour>
  </outline>
</glyph>
<glyph name="oslash" format="1">
  <advance width="576"/>
  <unicode hex="00F8"/>
  <outline>
    <contour>
      <point x="237" y="-10" type="curve" smooth="yes"/>
      <point x="191" y="-10"/>
      <point x="152" y="2"/>
      <point x="121" y="26" type="curve"/>
      <point x="60" y="-55" type="line"/>
      <point x="15" y="-55" type="line"/>
      <point x="95" y="51" type="line"/>
      <point x="68" y="85"/>
      <point x="53" y="132"/>
      <point x="53" y="192" type="curve" smooth="yes"/>
      <point x="53" y="352"/>
      <point x="133" y="521"/>
      <point x="312" y="521" type="curve" smooth="yes"/>
      <point x="357" y="521"/>
      <point x="396" y="509"/>
      <point x="426" y="486" type="curve"/>
      <point x="489" y="569" type="line"/>
      <point x="534" y="569" type="line"/>
      <point x="452" y="461" type="line"/>
      <point x="480" y="427"/>
      <point x="496" y="379"/>
      <point x="496" y="319" type="curve" smooth="yes"/>
      <point x="496" y="159"/>
      <point x="416" y="-10"/>
    </contour>
    <contour>
      <point x="104" y="193" type="curve" smooth="yes"/>
      <point x="104" y="152"/>
      <point x="113" y="119"/>
      <point x="128" y="94" type="curve"/>
      <point x="395" y="445" type="line"/>
      <point x="371" y="465"/>
      <point x="340" y="475"/>
      <point x="305" y="475" type="curve" smooth="yes"/>
      <point x="160" y="475"/>
      <point x="104" y="324"/>
    </contour>
    <contour>
      <point x="244" y="36" type="curve" smooth="yes"/>
      <point x="388" y="36"/>
      <point x="445" y="183"/>
      <point x="445" y="317" type="curve" smooth="yes"/>
      <point x="445" y="359"/>
      <point x="436" y="393"/>
      <point x="419" y="418" type="curve"/>
      <point x="152" y="66" type="line"/>
      <point x="176" y="46"/>
      <point x="208" y="36"/>
    </contour>
  </outline>
</glyph>
<glyph name="ugrave" format="1">
  <advance width="617"/>
  <unicode hex="00F9"/>
  <outline>
    <contour>
      <point x="210" y="717" type="line"/>
      <point x="211" y="720" type="line"/>
      <point x="276" y="720" type="line"/>
      <point x="351" y="575" type="line"/>
      <point x="301" y="575" type="line"/>
    </contour>
    <contour>
      <point x="398" y="76" type="curve"/>
      <point x="355" y="22"/>
      <point x="288" y="-10"/>
      <point x="221" y="-10" type="curve" smooth="yes"/>
      <point x="126" y="-10"/>
      <point x="58" y="37"/>
      <point x="58" y="142" type="curve" smooth="yes"/>
      <point x="58" y="188"/>
      <point x="107" y="511"/>
      <point x="107" y="511" type="curve"/>
      <point x="158" y="511" type="line"/>
      <point x="158" y="511"/>
      <point x="111" y="197"/>
      <point x="111" y="157" type="curve" smooth="yes"/>
      <point x="111" y="68"/>
      <point x="157" y="36"/>
      <point x="235" y="36" type="curve" smooth="yes"/>
      <point x="325" y="36"/>
      <point x="402" y="105"/>
      <point x="415" y="197" type="curve" smooth="yes"/>
      <point x="459" y="511" type="line"/>
      <point x="510" y="511" type="line"/>
      <point x="510" y="511"/>
      <point x="447" y="73"/>
      <point x="447" y="61" type="curve" smooth="yes"/>
      <point x="447" y="43"/>
      <point x="457" y="36"/>
      <point x="470" y="36" type="curve" smooth="yes"/>
      <point x="485" y="36"/>
      <point x="506" y="43"/>
      <point x="523" y="52" type="curve"/>
      <point x="517" y="9" type="line"/>
      <point x="498" y="-3"/>
      <point x="477" y="-10"/>
      <point x="454" y="-10" type="curve" smooth="yes"/>
      <point x="410" y="-10"/>
      <point x="396" y="21"/>
      <point x="396" y="55" type="curve" smooth="yes"/>
      <point x="396" y="62"/>
      <point x="397" y="69"/>
    </contour>
  </outline>
</glyph>
<glyph name="yacute" format="1">
  <advance width="510"/>
  <unicode hex="00FD"/>
  <outline>
    <contour>
      <point x="366" y="720" type="line"/>
      <point x="431" y="720" type="line"/>
      <point x="430" y="717" type="line"/>
      <point x="299" y="575" type="line"/>
      <point x="249" y="575" type="line"/>
    </contour>
    <contour>
      <point x="500" y="511" type="line"/>
      <point x="228" y="13" type="line" smooth="yes"/>
      <point x="170" y="-94"/>
      <point x="134" y="-186"/>
      <point x="43" y="-186" type="curve" smooth="yes"/>
      <point x="21" y="-186"/>
      <point x="2" y="-182"/>
      <point x="-19" y="-172" type="curve"/>
      <point x="-12" y="-126" type="line"/>
      <point x="1" y="-132"/>
      <point x="22" y="-140"/>
      <point x="40" y="-140" type="curve" smooth="yes"/>
      <point x="94" y="-140"/>
      <point x="122" y="-88"/>
      <point x="144" y="-48" type="curve" smooth="yes"/>
      <point x="175" y="8" type="line"/>
      <point x="42" y="511" type="line"/>
      <point x="97" y="511" type="line"/>
      <point x="210" y="76" type="line"/>
      <point x="214" y="76" type="line"/>
      <point x="450" y="511" type="line"/>
    </contour>
  </outline>
</glyph>
<glyph name="thorn" format="1">
  <advance width="582"/>
  <unicode hex="00FE"/>
  <outline>
    <contour>
      <point x="194" y="720" type="line"/>
      <point x="155" y="441" type="line"/>
      <point x="200" y="495"/>
      <point x="258" y="521"/>
      <point x="330" y="521" type="curve" smooth="yes"/>
      <point x="427" y="521"/>
      <point x="500" y="461"/>
      <point x="500" y="321" type="curve" smooth="yes"/>
      <point x="500" y="167"/>
      <point x="430" y="-10"/>
      <point x="255" y="-10" type="curve" smooth="yes"/>
      <point x="183" y="-10"/>
      <point x="130" y="21"/>
      <point x="104" y="71" type="curve"/>
      <point x="68" y="-181" type="line"/>
      <point x="17" y="-181" type="line"/>
      <point x="144" y="720" type="line"/>
    </contour>
    <contour>
      <point x="318" y="475" type="curve" smooth="yes"/>
      <point x="174" y="475"/>
      <point x="123" y="316"/>
      <point x="123" y="190" type="curve" smooth="yes"/>
      <point x="123" y="83"/>
      <point x="181" y="36"/>
      <point x="257" y="36" type="curve" smooth="yes"/>
      <point x="399" y="36"/>
      <point x="449" y="188"/>
      <point x="449" y="319" type="curve" smooth="yes"/>
      <point x="449" y="434"/>
      <point x="392" y="475"/>
    </contour>
  </outline>
</glyph>
<glyph name="ydieresis" format="1">
  <advance width="510"/>
  <unicode hex="00FF"/>
  <outline>
    <contour>
      <point x="237" y="720" type="line"/>
      <point x="228" y="651" type="line"/>
      <point x="163" y="651" type="line"/>
      <point x="172" y="720" type="line"/>
    </contour>
    <contour>
      <point x="413" y="720" type="line"/>
      <point x="404" y="651" type="line"/>
      <point x="339" y="651" type="line"/>
      <point x="348" y="720" type="line"/>
    </contour>
    <contour>
      <point x="500" y="511" type="line"/>
      <point x="228" y="13" type="line" smooth="yes"/>
      <point x="170" y="-94"/>
      <point x="134" y="-186"/>
      <point x="43" y="-186" type="curve" smooth="yes"/>
      <point x="21" y="-186"/>
      <point x="2" y="-182"/>
      <point x="-19" y="-172" type="curve"/>
      <point x="-12" y="-126" type="line"/>
      <point x="1" y="-132"/>
      <point x="22" y="-140"/>
      <point x="40" y="-140" type="curve" smooth="yes"/>
      <point x="94" y="-140"/>
      <point x="122" y="-88"/>
      <point x="144" y="-48" type="curve" smooth="yes"/>
      <point x="175" y="8" type="line"/>
      <point x="42" y="511" type="line"/>
      <point x="97" y="511" type="line"/>
      <point x="210" y="76" type="line"/>
      <point x="214" y="76" type="line"/>
      <point x="450" y="511" type="line"/>
    </contour>
  </outline>
</glyph>
<glyph name="Amacron" format="1">
  <advance width="650"/>
  <unicode hex="0100"/>
  <outline>
    <contour>
      <point x="242" y="911" type="line"/>
      <point x="560" y="911" type="line"/>
      <point x="552" y="866" type="line"/>
      <point x="234" y="866" type="line"/>
    </contour>
    <contour>
      <point x="113" y="170" type="line"/>
      <point x="19" y="0" type="line"/>
      <point x="-36" y="0" type="line"/>
      <point x="344" y="686" type="line"/>
      <point x="394" y="686" type="line"/>
      <point x="581" y="0" type="line"/>
      <point x="522" y="0" type="line"/>
      <point x="475" y="170" type="line"/>
    </contour>
    <contour>
      <point x="462" y="219" type="line"/>
      <point x="358" y="612" type="line"/>
      <point x="354" y="612" type="line"/>
      <point x="140" y="219" type="line"/>
    </contour>
  </outline>
</glyph>
<glyph name="Abreve" format="1">
  <advance width="650"/>
  <unicode hex="0102"/>
  <outline>
    <contour>
      <point x="375" y="788" type="curve" smooth="yes"/>
      <point x="274" y="788"/>
      <point x="199" y="849"/>
      <point x="199" y="904" type="curve" smooth="yes"/>
      <point x="199" y="906"/>
      <point x="199" y="909"/>
      <point x="200" y="912" type="curve" smooth="yes"/>
      <point x="256" y="912" type="line"/>
      <point x="265" y="862"/>
      <point x="317" y="837"/>
      <point x="382" y="837" type="curve" smooth="yes"/>
      <point x="447" y="837"/>
      <point x="505" y="862"/>
      <point x="529" y="912" type="curve"/>
      <point x="585" y="912" type="line"/>
      <point x="577" y="855"/>
      <point x="482" y="788"/>
    </contour>
    <contour>
      <point x="113" y="170" type="line"/>
      <point x="19" y="0" type="line"/>
      <point x="-36" y="0" type="line"/>
      <point x="344" y="686" type="line"/>
      <point x="394" y="686" type="line"/>
      <point x="581" y="0" type="line"/>
      <point x="522" y="0" type="line"/>
      <point x="475" y="170" type="line"/>
    </contour>
    <contour>
      <point x="462" y="219" type="line"/>
      <point x="358" y="612" type="line"/>
      <point x="354" y="612" type="line"/>
      <point x="140" y="219" type="line"/>
    </contour>
  </outline>
</glyph>
<glyph name="Aogonek" format="1">
  <advance width="650"/>
  <unicode hex="0104"/>
  <outline>
    <contour>
      <point x="626" y="-86" type="curve"/>
      <point x="635" y="-119" type="line"/>
      <point x="607" y="-135"/>
      <point x="576" y="-143"/>
      <point x="547" y="-143" type="curve" smooth="yes"/>
      <point x="504" y="-143"/>
      <point x="460" y="-129"/>
      <point x="460" y="-83" type="curve" smooth="yes"/>
      <point x="460" y="-44"/>
      <point x="493" y="-19"/>
      <point x="525" y="0" type="curve"/>
      <point x="522" y="0" type="line"/>
      <point x="475" y="170" type="line"/>
      <point x="113" y="170" type="line"/>
      <point x="19" y="0" type="line"/>
      <point x="-36" y="0" type="line"/>
      <point x="344" y="686" type="line"/>
      <point x="394" y="686" type="line"/>
      <point x="581" y="0" type="line"/>
      <point x="575" y="0" type="line"/>
      <point x="571" y="-2" type="line" smooth="yes"/>
      <point x="547" y="-17"/>
      <point x="518" y="-36"/>
      <point x="518" y="-67" type="curve" smooth="yes"/>
      <point x="518" y="-93"/>
      <point x="538" y="-100"/>
      <point x="557" y="-100" type="curve" smooth="yes"/>
      <point x="581" y="-100"/>
      <point x="604" y="-93"/>
    </contour>
    <contour>
      <point x="462" y="219" type="line"/>
      <point x="358" y="612" type="line"/>
      <point x="354" y="612" type="line"/>
      <point x="140" y="219" type="line"/>
    </contour>
  </outline>
</glyph>
<glyph name="aogonek" format="1">
  <advance width="607"/>
  <unicode hex="0105"/>
  <outline>
    <contour>
      <point x="548" y="-86" type="curve"/>
      <point x="557" y="-119" type="line"/>
      <point x="529" y="-135"/>
      <point x="498" y="-143"/>
      <point x="469" y="-143" type="curve" smooth="yes"/>
      <point x="426" y="-143"/>
      <point x="382" y="-129"/>
      <point x="382" y="-83" type="curve" smooth="yes"/>
      <point x="382" y="-50"/>
      <point x="406" y="-27"/>
      <point x="432" y="-9" type="curve"/>
      <point x="397" y="-4"/>
      <point x="386" y="24"/>
      <point x="386" y="55" type="curve" smooth="yes"/>
      <point x="386" y="60"/>
      <point x="386" y="64"/>
      <point x="387" y="69" type="curve"/>
      <point x="342" y="15"/>
      <point x="284" y="-10"/>
      <point x="212" y="-10" type="curve" smooth="yes"/>
      <point x="115" y="-10"/>
      <point x="42" y="50"/>
      <point x="42" y="190" type="curve" smooth="yes"/>
      <point x="42" y="344"/>
      <point x="112" y="521"/>
      <point x="287" y="521" type="curve" smooth="yes"/>
      <point x="359" y="521"/>
      <point x="412" y="490"/>
      <point x="438" y="440" type="curve"/>
      <point x="442" y="440" type="line"/>
      <point x="466" y="511" type="line"/>
      <point x="499" y="511" type="line"/>
      <point x="499" y="511"/>
      <point x="437" y="73"/>
      <point x="437" y="61" type="curve" smooth="yes"/>
      <point x="437" y="43"/>
      <point x="447" y="36"/>
      <point x="460" y="36" type="curve" smooth="yes"/>
      <point x="475" y="36"/>
      <point x="496" y="43"/>
      <point x="513" y="52" type="curve"/>
      <point x="507" y="9" type="line"/>
      <point x="502" y="6"/>
      <point x="496" y="3"/>
      <point x="490" y="0" type="curve" smooth="yes"/>
      <point x="497" y="0" type="line"/>
      <point x="493" y="-2" type="line" smooth="yes"/>
      <point x="469" y="-17"/>
      <point x="440" y="-36"/>
      <point x="440" y="-67" type="curve" smooth="yes"/>
      <point x="440" y="-93"/>
      <point x="460" y="-100"/>
      <point x="479" y="-100" type="curve" smooth="yes"/>
      <point x="503" y="-100"/>
      <point x="526" y="-93"/>
    </contour>
    <contour>
      <point x="224" y="36" type="curve" smooth="yes"/>
      <point x="368" y="36"/>
      <point x="418" y="187"/>
      <point x="418" y="321" type="curve" smooth="yes"/>
      <point x="418" y="428"/>
      <point x="361" y="475"/>
      <point x="285" y="475" type="curve" smooth="yes"/>
      <point x="142" y="475"/>
      <point x="93" y="316"/>
      <point x="93" y="193" type="curve" smooth="yes"/>
      <point x="93" y="77"/>
      <point x="149" y="36"/>
    </contour>
  </outline>
</glyph>
<glyph name="Ccaron" format="1">
  <advance width="662"/>
  <unicode hex="010C"/>
  <outline>
    <contour>
      <point x="308" y="895" type="line"/>
      <point x="397" y="798" type="line"/>
      <point x="514" y="895" type="line"/>
      <point x="574" y="895" type="line"/>
      <point x="419" y="750" type="line"/>
      <point x="361" y="750" type="line"/>
      <point x="248" y="895" type="line"/>
    </contour>
    <contour>
      <point x="513" y="251" type="curve"/>
      <point x="566" y="251" type="line"/>
      <point x="537" y="48"/>
      <point x="407" y="-10"/>
      <point x="275" y="-10" type="curve" smooth="yes"/>
      <point x="149" y="-10"/>
      <point x="57" y="37"/>
      <point x="57" y="223" type="curve" smooth="yes"/>
      <point x="57" y="254"/>
      <point x="59" y="289"/>
      <point x="68" y="356" type="curve" smooth="yes"/>
      <point x="104" y="631"/>
      <point x="227" y="696"/>
      <point x="374" y="696" type="curve" smooth="yes"/>
      <point x="492" y="696"/>
      <point x="596" y="653"/>
      <point x="596" y="496" type="curve" smooth="yes"/>
      <point x="596" y="477"/>
      <point x="594" y="456"/>
      <point x="591" y="434" type="curve"/>
      <point x="538" y="434" type="line"/>
      <point x="541" y="453"/>
      <point x="542" y="470"/>
      <point x="542" y="486" type="curve" smooth="yes"/>
      <point x="542" y="615"/>
      <point x="460" y="648"/>
      <point x="367" y="648" type="curve" smooth="yes"/>
      <point x="250" y="648"/>
      <point x="155" y="595"/>
      <point x="123" y="368" type="curve" smooth="yes"/>
      <point x="111" y="284"/>
      <point x="110" y="254"/>
      <point x="110" y="227" type="curve" smooth="yes"/>
      <point x="110" y="76"/>
      <point x="182" y="38"/>
      <point x="282" y="38" type="curve" smooth="yes"/>
      <point x="387" y="38"/>
      <point x="489" y="81"/>
    </contour>
    <contour>
      <point x="295" y="0" type="move" name="Bottom"/>
    </contour>
  </outline>
</glyph>
<glyph name="ccaron" format="1">
  <advance width="546"/>
  <unicode hex="010D"/>
  <outline>
    <contour>
      <point x="205" y="720" type="line"/>
      <point x="294" y="623" type="line"/>
      <point x="411" y="720" type="line"/>
      <point x="471" y="720" type="line"/>
      <point x="316" y="575" type="line"/>
      <point x="258" y="575" type="line"/>
      <point x="145" y="720" type="line"/>
    </contour>
    <contour>
      <point x="402" y="197" type="curve"/>
      <point x="452" y="197" type="line"/>
      <point x="434" y="64"/>
      <point x="336" y="-10"/>
      <point x="224" y="-10" type="curve" smooth="yes"/>
      <point x="113" y="-10"/>
      <point x="42" y="62"/>
      <point x="42" y="191" type="curve" smooth="yes"/>
      <point x="42" y="350"/>
      <point x="121" y="521"/>
      <point x="298" y="521" type="curve" smooth="yes"/>
      <point x="399" y="521"/>
      <point x="471" y="461"/>
      <point x="471" y="351" type="curve" smooth="yes"/>
      <point x="471" y="339"/>
      <point x="471" y="327"/>
      <point x="469" y="314" type="curve"/>
      <point x="419" y="314" type="line"/>
      <point x="420" y="325"/>
      <point x="421" y="336"/>
      <point x="421" y="346" type="curve" smooth="yes"/>
      <point x="421" y="433"/>
      <point x="364" y="475"/>
      <point x="291" y="475" type="curve" smooth="yes"/>
      <point x="146" y="475"/>
      <point x="93" y="323"/>
      <point x="93" y="192" type="curve" smooth="yes"/>
      <point x="93" y="87"/>
      <point x="151" y="36"/>
      <point x="231" y="36" type="curve" smooth="yes"/>
      <point x="312" y="36"/>
      <point x="387" y="86"/>
    </contour>
    <contour>
      <point x="237" y="0" type="move" name="Bottom"/>
    </contour>
  </outline>
</glyph>
<glyph name="Dcaron" format="1">
  <advance width="677"/>
  <unicode hex="010E"/>
  <outline>
    <contour>
      <point x="266" y="895" type="line"/>
      <point x="355" y="798" type="line"/>
      <point x="472" y="895" type="line"/>
      <point x="532" y="895" type="line"/>
      <point x="377" y="750" type="line"/>
      <point x="319" y="750" type="line"/>
      <point x="206" y="895" type="line"/>
    </contour>
    <contour>
      <point x="148" y="686" type="line"/>
      <point x="368" y="686" type="line" smooth="yes"/>
      <point x="495" y="686"/>
      <point x="594" y="632"/>
      <point x="594" y="450" type="curve" smooth="yes"/>
      <point x="594" y="421"/>
      <point x="592" y="391"/>
      <point x="584" y="331" type="curve" smooth="yes"/>
      <point x="551" y="74"/>
      <point x="425" y="0"/>
      <point x="271" y="0" type="curve" smooth="yes"/>
      <point x="51" y="0" type="line"/>
    </contour>
    <contour>
      <point x="112" y="48" type="line"/>
      <point x="278" y="48" type="line" smooth="yes"/>
      <point x="395" y="48"/>
      <point x="498" y="104"/>
      <point x="529" y="322" type="curve" smooth="yes"/>
      <point x="539" y="393"/>
      <point x="541" y="418"/>
      <point x="541" y="441" type="curve" smooth="yes"/>
      <point x="541" y="592"/>
      <point x="468" y="638"/>
      <point x="361" y="638" type="curve" smooth="yes"/>
      <point x="195" y="638" type="line"/>
    </contour>
  </outline>
</glyph>
<glyph name="dcroat" format="1">
  <advance width="612"/>
  <unicode hex="0111"/>
  <outline>
    <contour>
      <point x="627" y="623" type="line"/>
      <point x="515" y="623" type="line"/>
      <point x="490" y="442"/>
      <point x="437" y="70"/>
      <point x="437" y="61" type="curve" smooth="yes"/>
      <point x="437" y="43"/>
      <point x="447" y="36"/>
      <point x="460" y="36" type="curve" smooth="yes"/>
      <point x="475" y="36"/>
      <point x="496" y="43"/>
      <point x="513" y="52" type="curve"/>
      <point x="507" y="9" type="line"/>
      <point x="488" y="-3"/>
      <point x="467" y="-10"/>
      <point x="444" y="-10" type="curve" smooth="yes"/>
      <point x="400" y="-10"/>
      <point x="386" y="21"/>
      <point x="386" y="55" type="curve" smooth="yes"/>
      <point x="386" y="60"/>
      <point x="386" y="64"/>
      <point x="387" y="69" type="curve"/>
      <point x="342" y="15"/>
      <point x="284" y="-10"/>
      <point x="212" y="-10" type="curve" smooth="yes"/>
      <point x="115" y="-10"/>
      <point x="42" y="50"/>
      <point x="42" y="190" type="curve" smooth="yes"/>
      <point x="42" y="344"/>
      <point x="112" y="521"/>
      <point x="287" y="521" type="curve" smooth="yes"/>
      <point x="359" y="521"/>
      <point x="412" y="490"/>
      <point x="438" y="440" type="curve"/>
      <point x="464" y="623" type="line"/>
      <point x="245" y="623" type="line"/>
      <point x="251" y="666" type="line"/>
      <point x="470" y="666" type="line"/>
      <point x="478" y="720" type="line"/>
      <point x="529" y="720" type="line"/>
      <point x="521" y="666" type="line"/>
      <point x="633" y="666" type="line"/>
    </contour>
    <contour>
      <point x="224" y="36" type="curve" smooth="yes"/>
      <point x="368" y="36"/>
      <point x="418" y="187"/>
      <point x="418" y="321" type="curve" smooth="yes"/>
      <point x="418" y="428"/>
      <point x="361" y="475"/>
      <point x="285" y="475" type="curve" smooth="yes"/>
      <point x="142" y="475"/>
      <point x="93" y="316"/>
      <point x="93" y="193" type="curve" smooth="yes"/>
      <point x="93" y="77"/>
      <point x="149" y="36"/>
    </contour>
  </outline>
</glyph>
<glyph name="Edotaccent" format="1">
  <advance width="592"/>
  <unicode hex="0116"/>
  <outline>
    <contour>
      <point x="446" y="854" type="curve" smooth="yes"/>
      <point x="446" y="815"/>
      <point x="414" y="779"/>
      <point x="370" y="779" type="curve" smooth="yes"/>
      <point x="338" y="779"/>
      <point x="312" y="803"/>
      <point x="312" y="835" type="curve" smooth="yes"/>
      <point x="312" y="876"/>
      <point x="344" y="911"/>
      <point x="388" y="911" type="curve" smooth="yes"/>
      <point x="422" y="911"/>
      <point x="446" y="886"/>
    </contour>
    <contour>
      <point x="148" y="686" type="line"/>
      <point x="572" y="686" type="line"/>
      <point x="559" y="638" type="line"/>
      <point x="195" y="638" type="line"/>
      <point x="158" y="374" type="line"/>
      <point x="477" y="374" type="line"/>
      <point x="470" y="326" type="line"/>
      <point x="151" y="326" type="line"/>
      <point x="112" y="48" type="line"/>
      <point x="481" y="48" type="line"/>
      <point x="481" y="0" type="line"/>
      <point x="51" y="0" type="line"/>
    </contour>
    <contour>
      <point x="260" y="0" type="move" name="Bottom"/>
    </contour>
  </outline>
</glyph>
<glyph name="Eogonek" format="1">
  <advance width="592"/>
  <unicode hex="0118"/>
  <outline>
    <contour>
      <point x="195" y="638" type="line"/>
      <point x="158" y="374" type="line"/>
      <point x="477" y="374" type="line"/>
      <point x="470" y="326" type="line"/>
      <point x="151" y="326" type="line"/>
      <point x="112" y="48" type="line"/>
      <point x="481" y="48" type="line"/>
      <point x="481" y="0" type="line"/>
      <point x="454" y="0" type="line"/>
      <point x="450" y="-2" type="line" smooth="yes"/>
      <point x="426" y="-17"/>
      <point x="397" y="-36"/>
      <point x="397" y="-67" type="curve" smooth="yes"/>
      <point x="397" y="-93"/>
      <point x="417" y="-100"/>
      <point x="436" y="-100" type="curve" smooth="yes"/>
      <point x="460" y="-100"/>
      <point x="483" y="-93"/>
      <point x="505" y="-86" type="curve"/>
      <point x="514" y="-119" type="line"/>
      <point x="486" y="-135"/>
      <point x="455" y="-143"/>
      <point x="426" y="-143" type="curve" smooth="yes"/>
      <point x="383" y="-143"/>
      <point x="339" y="-129"/>
      <point x="339" y="-83" type="curve" smooth="yes"/>
      <point x="339" y="-44"/>
      <point x="372" y="-19"/>
      <point x="404" y="0" type="curve"/>
      <point x="51" y="0" type="line"/>
      <point x="148" y="686" type="line"/>
      <point x="572" y="686" type="line"/>
      <point x="559" y="638" type="line"/>
    </contour>
    <contour>
      <point x="260" y="0" type="move" name="Bottom"/>
    </contour>
  </outline>
</glyph>
<glyph name="eogonek" format="1">
  <advance width="556"/>
  <unicode hex="0119"/>
  <outline>
    <contour>
      <point x="459" y="250" type="curve"/>
      <point x="97" y="250" type="line"/>
      <point x="93" y="224"/>
      <point x="92" y="208"/>
      <point x="92" y="192" type="curve" smooth="yes"/>
      <point x="92" y="87"/>
      <point x="150" y="36"/>
      <point x="230" y="36" type="curve" smooth="yes"/>
      <point x="316" y="36"/>
      <point x="385" y="84"/>
      <point x="400" y="189" type="curve"/>
      <point x="450" y="189" type="line"/>
      <point x="436" y="89"/>
      <point x="378" y="24"/>
      <point x="296" y="0" type="curve"/>
      <point x="301" y="0" type="line"/>
      <point x="297" y="-2" type="line" smooth="yes"/>
      <point x="273" y="-17"/>
      <point x="244" y="-36"/>
      <point x="244" y="-67" type="curve" smooth="yes"/>
      <point x="244" y="-93"/>
      <point x="264" y="-100"/>
      <point x="283" y="-100" type="curve" smooth="yes"/>
      <point x="307" y="-100"/>
      <point x="330" y="-93"/>
      <point x="352" y="-86" type="curve"/>
      <point x="361" y="-119" type="line"/>
      <point x="333" y="-135"/>
      <point x="302" y="-143"/>
      <point x="273" y="-143" type="curve" smooth="yes"/>
      <point x="230" y="-143"/>
      <point x="186" y="-129"/>
      <point x="186" y="-83" type="curve" smooth="yes"/>
      <point x="186" y="-50"/>
      <point x="209" y="-27"/>
      <point x="236" y="-10" type="curve"/>
      <point x="223" y="-10" type="line" smooth="yes"/>
      <point x="112" y="-10"/>
      <point x="41" y="62"/>
      <point x="41" y="191" type="curve" smooth="yes"/>
      <point x="41" y="348"/>
      <point x="118" y="521"/>
      <point x="297" y="521" type="curve" smooth="yes"/>
      <point x="398" y="521"/>
      <point x="470" y="461"/>
      <point x="470" y="351" type="curve" smooth="yes"/>
      <point x="470" y="339"/>
      <point x="466" y="280"/>
    </contour>
    <contour>
      <point x="290" y="475" type="curve" smooth="yes"/>
      <point x="204" y="475"/>
      <point x="129" y="416"/>
      <point x="104" y="296" type="curve"/>
      <point x="415" y="296" type="line"/>
      <point x="420" y="325"/>
      <point x="420" y="336"/>
      <point x="420" y="346" type="curve" smooth="yes"/>
      <point x="420" y="433"/>
      <point x="363" y="475"/>
    </contour>
    <contour>
      <point x="242" y="0" type="move" name="Bottom"/>
    </contour>
  </outline>
</glyph>
<glyph name="gbreve" format="1">
  <advance width="583"/>
  <unicode hex="011F"/>
  <outline>
    <contour>
      <point x="304" y="613" type="curve" smooth="yes"/>
      <point x="203" y="613"/>
      <point x="128" y="674"/>
      <point x="128" y="729" type="curve" smooth="yes"/>
      <point x="128" y="731"/>
      <point x="128" y="734"/>
      <point x="129" y="737" type="curve" smooth="yes"/>
      <point x="185" y="737" type="line"/>
      <point x="194" y="687"/>
      <point x="246" y="662"/>
      <point x="311" y="662" type="curve" smooth="yes"/>
      <point x="376" y="662"/>
      <point x="434" y="687"/>
      <point x="458" y="737" type="curve"/>
      <point x="514" y="737" type="line"/>
      <point x="506" y="680"/>
      <point x="411" y="613"/>
    </contour>
    <contour>
      <point x="21" y="-22" type="curve"/>
      <point x="73" y="-22" type="line"/>
      <point x="73" y="-106"/>
      <point x="146" y="-139"/>
      <point x="215" y="-139" type="curve" smooth="yes"/>
      <point x="297" y="-139"/>
      <point x="370" y="-91"/>
      <point x="384" y="8" type="curve" smooth="yes"/>
      <point x="396" y="91" type="line"/>
      <point x="355" y="41"/>
      <point x="290" y="10"/>
      <point x="218" y="10" type="curve" smooth="yes"/>
      <point x="119" y="10"/>
      <point x="46" y="77"/>
      <point x="46" y="196" type="curve" smooth="yes"/>
      <point x="46" y="349"/>
      <point x="119" y="521"/>
      <point x="293" y="521" type="curve" smooth="yes"/>
      <point x="371" y="521"/>
      <point x="424" y="490"/>
      <point x="453" y="426" type="curve"/>
      <point x="484" y="511" type="line"/>
      <point x="505" y="511" type="line"/>
      <point x="435" y="17" type="line" smooth="yes"/>
      <point x="418" y="-103"/>
      <point x="349" y="-186"/>
      <point x="208" y="-186" type="curve" smooth="yes"/>
      <point x="72" y="-186"/>
      <point x="21" y="-96"/>
    </contour>
    <contour>
      <point x="230" y="56" type="curve" smooth="yes"/>
      <point x="374" y="56"/>
      <point x="424" y="195"/>
      <point x="424" y="319" type="curve" smooth="yes"/>
      <point x="424" y="437"/>
      <point x="365" y="475"/>
      <point x="291" y="475" type="curve" smooth="yes"/>
      <point x="150" y="475"/>
      <point x="98" y="328"/>
      <point x="98" y="199" type="curve" smooth="yes"/>
      <point x="98" y="101"/>
      <point x="154" y="56"/>
    </contour>
  </outline>
</glyph>
<glyph name="Gcommaaccent" format="1">
  <advance width="675"/>
  <unicode hex="0122"/>
  <outline>
    <contour>
      <point x="291" y="303" type="line"/>
      <point x="297" y="350" type="line"/>
      <point x="579" y="350" type="line"/>
      <point x="547" y="119" type="line" smooth="yes"/>
      <point x="537" y="48"/>
      <point x="536" y="0"/>
      <point x="536" y="0" type="curve"/>
      <point x="499" y="0" type="line"/>
      <point x="499" y="0"/>
      <point x="496" y="30"/>
      <point x="496" y="92" type="curve"/>
      <point x="446" y="18"/>
      <point x="362" y="-10"/>
      <point x="285" y="-10" type="curve" smooth="yes"/>
      <point x="153" y="-10"/>
      <point x="57" y="37"/>
      <point x="57" y="223" type="curve" smooth="yes"/>
      <point x="57" y="254"/>
      <point x="59" y="289"/>
      <point x="68" y="356" type="curve" smooth="yes"/>
      <point x="104" y="631"/>
      <point x="227" y="696"/>
      <point x="374" y="696" type="curve" smooth="yes"/>
      <point x="490" y="696"/>
      <point x="597" y="655"/>
      <point x="597" y="504" type="curve" smooth="yes"/>
      <point x="597" y="487"/>
      <point x="596" y="469"/>
      <point x="593" y="449" type="curve"/>
      <point x="540" y="449" type="line"/>
      <point x="542" y="465"/>
      <point x="543" y="480"/>
      <point x="543" y="494" type="curve" smooth="yes"/>
      <point x="543" y="616"/>
      <point x="458" y="648"/>
      <point x="367" y="648" type="curve" smooth="yes"/>
      <point x="250" y="648"/>
      <point x="155" y="595"/>
      <point x="123" y="368" type="curve" smooth="yes"/>
      <point x="111" y="284"/>
      <point x="110" y="254"/>
      <point x="110" y="227" type="curve" smooth="yes"/>
      <point x="110" y="76"/>
      <point x="186" y="38"/>
      <point x="292" y="38" type="curve" smooth="yes"/>
      <point x="384" y="38"/>
      <point x="494" y="79"/>
      <point x="516" y="251" type="curve" smooth="yes"/>
      <point x="523" y="303" type="line"/>
    </contour>
    <contour>
      <point x="267" y="-250" type="line"/>
      <point x="233" y="-250" type="line" smooth="yes"/>
      <point x="234" y="-250"/>
      <point x="271" y="-149"/>
      <point x="271" y="-149" type="curve"/>
      <point x="247" y="-149" type="line"/>
      <point x="256" y="-80" type="line"/>
      <point x="321" y="-80" type="line"/>
      <point x="313" y="-138" type="line"/>
    </contour>
    <contour>
      <point x="302" y="0" type="move" name="Bottom"/>
    </contour>
  </outline>
</glyph>
<glyph name="Imacron" format="1">
  <advance width="365"/>
  <unicode hex="012A"/>
  <outline>
    <contour>
      <point x="88" y="911" type="line"/>
      <point x="406" y="911" type="line"/>
      <point x="398" y="866" type="line"/>
      <point x="80" y="866" type="line"/>
    </contour>
    <contour>
      <point x="321" y="686" type="line"/>
      <point x="314" y="637" type="line"/>
      <point x="235" y="637" type="line"/>
      <point x="152" y="49" type="line"/>
      <point x="231" y="49" type="line"/>
      <point x="224" y="0" type="line"/>
      <point x="12" y="0" type="line"/>
      <point x="19" y="49" type="line"/>
      <point x="98" y="49" type="line"/>
      <point x="181" y="637" type="line"/>
      <point x="102" y="637" type="line"/>
      <point x="109" y="686" type="line"/>
    </contour>
  </outline>
</glyph>
<glyph name="imacron" format="1">
  <advance width="261"/>
  <unicode hex="012B"/>
  <outline>
    <contour>
      <point x="13" y="736" type="line"/>
      <point x="331" y="736" type="line"/>
      <point x="323" y="691" type="line"/>
      <point x="5" y="691" type="line"/>
    </contour>
    <contour>
      <point x="114" y="511" type="line"/>
      <point x="165" y="511" type="line"/>
      <point x="94" y="0" type="line"/>
      <point x="43" y="0" type="line"/>
    </contour>
  </outline>
</glyph>
<glyph name="Iogonek" format="1">
  <advance width="365"/>
  <unicode hex="012E"/>
  <outline>
    <contour>
      <point x="235" y="637" type="line"/>
      <point x="152" y="49" type="line"/>
      <point x="231" y="49" type="line"/>
      <point x="224" y="0" type="line"/>
      <point x="219" y="0" type="line"/>
      <point x="215" y="-2" type="line" smooth="yes"/>
      <point x="191" y="-17"/>
      <point x="162" y="-36"/>
      <point x="162" y="-67" type="curve" smooth="yes"/>
      <point x="162" y="-93"/>
      <point x="182" y="-100"/>
      <point x="201" y="-100" type="curve" smooth="yes"/>
      <point x="225" y="-100"/>
      <point x="248" y="-93"/>
      <point x="270" y="-86" type="curve"/>
      <point x="279" y="-119" type="line"/>
      <point x="251" y="-135"/>
      <point x="220" y="-143"/>
      <point x="191" y="-143" type="curve" smooth="yes"/>
      <point x="148" y="-143"/>
      <point x="104" y="-129"/>
      <point x="104" y="-83" type="curve" smooth="yes"/>
      <point x="104" y="-44"/>
      <point x="137" y="-19"/>
      <point x="169" y="0" type="curve"/>
      <point x="12" y="0" type="line"/>
      <point x="19" y="49" type="line"/>
      <point x="98" y="49" type="line"/>
      <point x="181" y="637" type="line"/>
      <point x="102" y="637" type="line"/>
      <point x="109" y="686" type="line"/>
      <point x="321" y="686" type="line"/>
      <point x="314" y="637" type="line"/>
    </contour>
  </outline>
</glyph>
<glyph name="iogonek" format="1">
  <advance width="261"/>
  <unicode hex="012F"/>
  <outline>
    <contour>
      <point x="198" y="720" type="line"/>
      <point x="191" y="666" type="line"/>
      <point x="132" y="666" type="line"/>
      <point x="139" y="720" type="line"/>
    </contour>
    <contour>
      <point x="89" y="0" type="line"/>
      <point x="85" y="-2" type="line" smooth="yes"/>
      <point x="61" y="-17"/>
      <point x="32" y="-36"/>
      <point x="32" y="-67" type="curve" smooth="yes"/>
      <point x="32" y="-93"/>
      <point x="52" y="-100"/>
      <point x="71" y="-100" type="curve" smooth="yes"/>
      <point x="95" y="-100"/>
      <point x="118" y="-93"/>
      <point x="140" y="-86" type="curve"/>
      <point x="149" y="-119" type="line"/>
      <point x="121" y="-135"/>
      <point x="90" y="-143"/>
      <point x="61" y="-143" type="curve" smooth="yes"/>
      <point x="18" y="-143"/>
      <point x="-26" y="-129"/>
      <point x="-26" y="-83" type="curve" smooth="yes"/>
      <point x="-26" y="-44"/>
      <point x="7" y="-19"/>
      <point x="39" y="0" type="curve"/>
      <point x="43" y="0" type="line"/>
      <point x="114" y="511" type="line"/>
      <point x="165" y="511" type="line"/>
      <point x="94" y="0" type="line"/>
    </contour>
  </outline>
</glyph>
<glyph name="Idotaccent" format="1">
  <advance width="365"/>
  <unicode hex="0130"/>
  <outline>
    <contour>
      <point x="304" y="854" type="curve" smooth="yes"/>
      <point x="304" y="815"/>
      <point x="272" y="779"/>
      <point x="228" y="779" type="curve" smooth="yes"/>
      <point x="196" y="779"/>
      <point x="170" y="803"/>
      <point x="170" y="835" type="curve" smooth="yes"/>
      <point x="170" y="876"/>
      <point x="202" y="911"/>
      <point x="246" y="911" type="curve" smooth="yes"/>
      <point x="280" y="911"/>
      <point x="304" y="886"/>
    </contour>
    <contour>
      <point x="321" y="686" type="line"/>
      <point x="314" y="637" type="line"/>
      <point x="235" y="637" type="line"/>
      <point x="152" y="49" type="line"/>
      <point x="231" y="49" type="line"/>
      <point x="224" y="0" type="line"/>
      <point x="12" y="0" type="line"/>
      <point x="19" y="49" type="line"/>
      <point x="98" y="49" type="line"/>
      <point x="181" y="637" type="line"/>
      <point x="102" y="637" type="line"/>
      <point x="109" y="686" type="line"/>
    </contour>
  </outline>
</glyph>
<glyph name="dotlessi" format="1">
  <advance width="261"/>
  <unicode hex="0131"/>
  <outline>
    <contour>
      <point x="114" y="511" type="line"/>
      <point x="165" y="511" type="line"/>
      <point x="94" y="0" type="line"/>
      <point x="43" y="0" type="line"/>
    </contour>
  </outline>
</glyph>
<glyph name="kcommaaccent" format="1">
  <advance width="534"/>
  <unicode hex="0137"/>
  <outline>
    <contour>
      <point x="111" y="127" type="line"/>
      <point x="93" y="0" type="line"/>
      <point x="42" y="0" type="line"/>
      <point x="143" y="720" type="line"/>
      <point x="194" y="720" type="line"/>
      <point x="119" y="186" type="line"/>
      <point x="455" y="511" type="line"/>
      <point x="518" y="511" type="line"/>
      <point x="269" y="270" type="line"/>
      <point x="463" y="0" type="line"/>
      <point x="397" y="0" type="line"/>
      <point x="230" y="232" type="line"/>
    </contour>
    <contour>
      <point x="196" y="-250" type="line"/>
      <point x="162" y="-250" type="line" smooth="yes"/>
      <point x="163" y="-250"/>
      <point x="200" y="-149"/>
      <point x="200" y="-149" type="curve"/>
      <point x="176" y="-149" type="line"/>
      <point x="185" y="-80" type="line"/>
      <point x="250" y="-80" type="line"/>
      <point x="242" y="-138" type="line"/>
    </contour>
    <contour>
      <point x="231" y="0" type="move" name="Bottom"/>
    </contour>
  </outline>
</glyph>
<glyph name="Lacute" format="1">
  <advance width="532"/>
  <unicode hex="0139"/>
  <outline>
    <contour>
      <point x="260" y="895" type="line"/>
      <point x="325" y="895" type="line"/>
      <point x="324" y="892" type="line"/>
      <point x="193" y="750" type="line"/>
      <point x="143" y="750" type="line"/>
    </contour>
    <contour>
      <point x="148" y="686" type="line"/>
      <point x="202" y="686" type="line"/>
      <point x="112" y="48" type="line"/>
      <point x="454" y="48" type="line"/>
      <point x="454" y="0" type="line"/>
      <point x="51" y="0" type="line"/>
    </contour>
    <contour>
      <point x="230" y="0" type="move" name="Bottom"/>
    </contour>
  </outline>
</glyph>
<glyph name="lacute" format="1">
  <advance width="268"/>
  <unicode hex="013A"/>
  <outline>
    <contour>
      <point x="255" y="895" type="line"/>
      <point x="320" y="895" type="line"/>
      <point x="319" y="892" type="line"/>
      <point x="188" y="750" type="line"/>
      <point x="138" y="750" type="line"/>
    </contour>
    <contour>
      <point x="147" y="720" type="line"/>
      <point x="198" y="720" type="line"/>
      <point x="97" y="0" type="line"/>
      <point x="46" y="0" type="line"/>
    </contour>
    <contour>
      <point x="72" y="0" type="move" name="Bottom"/>
    </contour>
  </outline>
</glyph>
<glyph name="Lcommaaccent" format="1">
  <advance width="532"/>
  <unicode hex="013B"/>
  <outline>
    <contour>
      <point x="148" y="686" type="line"/>
      <point x="202" y="686" type="line"/>
      <point x="112" y="48" type="line"/>
      <point x="454" y="48" type="line"/>
      <point x="454" y="0" type="line"/>
      <point x="51" y="0" type="line"/>
    </contour>
    <contour>
      <point x="195" y="-250" type="line"/>
      <point x="161" y="-250" type="line" smooth="yes"/>
      <point x="162" y="-250"/>
      <point x="199" y="-149"/>
      <point x="199" y="-149" type="curve"/>
      <point x="175" y="-149" type="line"/>
      <point x="184" y="-80" type="line"/>
      <point x="249" y="-80" type="line"/>
      <point x="241" y="-138" type="line"/>
    </contour>
    <contour>
      <point x="230" y="0" type="move" name="Bottom"/>
    </contour>
  </outline>
</glyph>
<glyph name="lcommaaccent" format="1">
  <advance width="268"/>
  <unicode hex="013C"/>
  <outline>
    <contour>
      <point x="147" y="720" type="line"/>
      <point x="198" y="720" type="line"/>
      <point x="97" y="0" type="line"/>
      <point x="46" y="0" type="line"/>
    </contour>
    <contour>
      <point x="37" y="-250" type="line"/>
      <point x="3" y="-250" type="line" smooth="yes"/>
      <point x="4" y="-250"/>
      <point x="41" y="-149"/>
      <point x="41" y="-149" type="curve"/>
      <point x="17" y="-149" type="line"/>
      <point x="26" y="-80" type="line"/>
      <point x="91" y="-80" type="line"/>
      <point x="83" y="-138" type="line"/>
    </contour>
    <contour>
      <point x="72" y="0" type="move" name="Bottom"/>
    </contour>
  </outline>
</glyph>
<glyph name="Lcaron" format="1">
  <advance width="532"/>
  <unicode hex="013D"/>
  <outline>
    <contour>
      <point x="148" y="686" type="line"/>
      <point x="202" y="686" type="line"/>
      <point x="112" y="48" type="line"/>
      <point x="454" y="48" type="line"/>
      <point x="454" y="0" type="line"/>
      <point x="51" y="0" type="line"/>
    </contour>
    <contour>
      <point x="551" y="516" type="line"/>
      <point x="517" y="516" type="line" smooth="yes"/>
      <point x="518" y="516"/>
      <point x="554" y="617"/>
      <point x="554" y="617" type="curve"/>
      <point x="530" y="617" type="line"/>
      <point x="539" y="686" type="line"/>
      <point x="604" y="686" type="line"/>
      <point x="596" y="628" type="line"/>
    </contour>
    <contour>
      <point x="230" y="0" type="move" name="Bottom"/>
    </contour>
  </outline>
</glyph>
<glyph name="lcaron" format="1">
  <advance width="268"/>
  <unicode hex="013E"/>
  <outline>
    <contour>
      <point x="147" y="720" type="line"/>
      <point x="198" y="720" type="line"/>
      <point x="97" y="0" type="line"/>
      <point x="46" y="0" type="line"/>
    </contour>
    <contour>
      <point x="274" y="516" type="line"/>
      <point x="240" y="516" type="line" smooth="yes"/>
      <point x="241" y="516"/>
      <point x="277" y="617"/>
      <point x="277" y="617" type="curve"/>
      <point x="253" y="617" type="line"/>
      <point x="262" y="686" type="line"/>
      <point x="327" y="686" type="line"/>
      <point x="319" y="628" type="line"/>
    </contour>
    <contour>
      <point x="72" y="0" type="move" name="Bottom"/>
    </contour>
  </outline>
</glyph>
<glyph name="Lslash" format="1">
  <advance width="534"/>
  <unicode hex="0141"/>
  <outline>
    <contour>
      <point x="170" y="358" type="line"/>
      <point x="126" y="48" type="line"/>
      <point x="466" y="48" type="line"/>
      <point x="471" y="0" type="line"/>
      <point x="65" y="0" type="line"/>
      <point x="112" y="331" type="line"/>
      <point x="33" y="294" type="line"/>
      <point x="39" y="338" type="line"/>
      <point x="118" y="375" type="line"/>
      <point x="162" y="686" type="line"/>
      <point x="216" y="686" type="line"/>
      <point x="176" y="402" type="line"/>
      <point x="339" y="479" type="line"/>
      <point x="332" y="435" type="line"/>
    </contour>
  </outline>
</glyph>
<glyph name="lslash" format="1">
  <advance width="297"/>
  <unicode hex="0142"/>
  <outline>
    <contour>
      <point x="117" y="338" type="line"/>
      <point x="18" y="291" type="line"/>
      <point x="23" y="335" type="line"/>
      <point x="124" y="382" type="line"/>
      <point x="171" y="720" type="line"/>
      <point x="222" y="720" type="line"/>
      <point x="178" y="407" type="line"/>
      <point x="279" y="455" type="line"/>
      <point x="273" y="411" type="line"/>
      <point x="172" y="363" type="line"/>
      <point x="121" y="0" type="line"/>
      <point x="70" y="0" type="line"/>
    </contour>
  </outline>
</glyph>
<glyph name="Nacute" format="1">
  <advance width="694"/>
  <unicode hex="0143"/>
  <outline>
    <contour>
      <point x="463" y="895" type="line"/>
      <point x="528" y="895" type="line"/>
      <point x="527" y="892" type="line"/>
      <point x="396" y="750" type="line"/>
      <point x="346" y="750" type="line"/>
    </contour>
    <contour>
      <point x="185" y="583" type="line"/>
      <point x="181" y="583" type="line"/>
      <point x="99" y="0" type="line"/>
      <point x="51" y="0" type="line"/>
      <point x="148" y="686" type="line"/>
      <point x="194" y="686" type="line"/>
      <point x="493" y="103" type="line"/>
      <point x="497" y="103" type="line"/>
      <point x="579" y="686" type="line"/>
      <point x="627" y="686" type="line"/>
      <point x="530" y="0" type="line"/>
      <point x="482" y="0" type="line"/>
    </contour>
    <contour>
      <point x="311" y="0" type="move" name="Bottom"/>
    </contour>
  </outline>
</glyph>
<glyph name="nacute" format="1">
  <advance width="593"/>
  <unicode hex="0144"/>
  <outline>
    <contour>
      <point x="408" y="720" type="line"/>
      <point x="473" y="720" type="line"/>
      <point x="472" y="717" type="line"/>
      <point x="341" y="575" type="line"/>
      <point x="291" y="575" type="line"/>
    </contour>
    <contour>
      <point x="444" y="0" type="curve"/>
      <point x="394" y="0" type="line"/>
      <point x="440" y="328"/>
      <point x="441" y="342"/>
      <point x="441" y="354" type="curve" smooth="yes"/>
      <point x="441" y="437"/>
      <point x="395" y="475"/>
      <point x="317" y="475" type="curve" smooth="yes"/>
      <point x="227" y="475"/>
      <point x="150" y="406"/>
      <point x="137" y="314" type="curve" smooth="yes"/>
      <point x="93" y="0" type="line"/>
      <point x="42" y="0" type="line"/>
      <point x="114" y="511" type="line"/>
      <point x="148" y="511" type="line"/>
      <point x="148" y="435" type="line"/>
      <point x="191" y="489"/>
      <point x="261" y="521"/>
      <point x="328" y="521" type="curve" smooth="yes"/>
      <point x="423" y="521"/>
      <point x="493" y="473"/>
      <point x="493" y="368" type="curve" smooth="yes"/>
      <point x="493" y="345"/>
      <point x="492" y="343"/>
    </contour>
    <contour>
      <point x="244" y="0" type="move" name="Bottom"/>
    </contour>
  </outline>
</glyph>
<glyph name="Ncommaaccent" format="1">
  <advance width="694"/>
  <unicode hex="0145"/>
  <outline>
    <contour>
      <point x="185" y="583" type="line"/>
      <point x="181" y="583" type="line"/>
      <point x="99" y="0" type="line"/>
      <point x="51" y="0" type="line"/>
      <point x="148" y="686" type="line"/>
      <point x="194" y="686" type="line"/>
      <point x="493" y="103" type="line"/>
      <point x="497" y="103" type="line"/>
      <point x="579" y="686" type="line"/>
      <point x="627" y="686" type="line"/>
      <point x="530" y="0" type="line"/>
      <point x="482" y="0" type="line"/>
    </contour>
    <contour>
      <point x="276" y="-250" type="line"/>
      <point x="242" y="-250" type="line" smooth="yes"/>
      <point x="243" y="-250"/>
      <point x="280" y="-149"/>
      <point x="280" y="-149" type="curve"/>
      <point x="256" y="-149" type="line"/>
      <point x="265" y="-80" type="line"/>
      <point x="330" y="-80" type="line"/>
      <point x="322" y="-138" type="line"/>
    </contour>
    <contour>
      <point x="311" y="0" type="move" name="Bottom"/>
    </contour>
  </outline>
</glyph>
<glyph name="ncommaaccent" format="1">
  <advance width="593"/>
  <unicode hex="0146"/>
  <outline>
    <contour>
      <point x="444" y="0" type="curve"/>
      <point x="394" y="0" type="line"/>
      <point x="440" y="328"/>
      <point x="441" y="342"/>
      <point x="441" y="354" type="curve" smooth="yes"/>
      <point x="441" y="437"/>
      <point x="395" y="475"/>
      <point x="317" y="475" type="curve" smooth="yes"/>
      <point x="227" y="475"/>
      <point x="150" y="406"/>
      <point x="137" y="314" type="curve" smooth="yes"/>
      <point x="93" y="0" type="line"/>
      <point x="42" y="0" type="line"/>
      <point x="114" y="511" type="line"/>
      <point x="148" y="511" type="line"/>
      <point x="148" y="435" type="line"/>
      <point x="191" y="489"/>
      <point x="261" y="521"/>
      <point x="328" y="521" type="curve" smooth="yes"/>
      <point x="423" y="521"/>
      <point x="493" y="473"/>
      <point x="493" y="368" type="curve" smooth="yes"/>
      <point x="493" y="345"/>
      <point x="492" y="343"/>
    </contour>
    <contour>
      <point x="209" y="-250" type="line"/>
      <point x="175" y="-250" type="line" smooth="yes"/>
      <point x="176" y="-250"/>
      <point x="213" y="-149"/>
      <point x="213" y="-149" type="curve"/>
      <point x="189" y="-149" type="line"/>
      <point x="198" y="-80" type="line"/>
      <point x="263" y="-80" type="line"/>
      <point x="255" y="-138" type="line"/>
    </contour>
    <contour>
      <point x="244" y="0" type="move" name="Bottom"/>
    </contour>
  </outline>
</glyph>
<glyph name="Ncaron" format="1">
  <advance width="694"/>
  <unicode hex="0147"/>
  <outline>
    <contour>
      <point x="294" y="895" type="line"/>
      <point x="383" y="798" type="line"/>
      <point x="500" y="895" type="line"/>
      <point x="560" y="895" type="line"/>
      <point x="405" y="750" type="line"/>
      <point x="347" y="750" type="line"/>
      <point x="234" y="895" type="line"/>
    </contour>
    <contour>
      <point x="185" y="583" type="line"/>
      <point x="181" y="583" type="line"/>
      <point x="99" y="0" type="line"/>
      <point x="51" y="0" type="line"/>
      <point x="148" y="686" type="line"/>
      <point x="194" y="686" type="line"/>
      <point x="493" y="103" type="line"/>
      <point x="497" y="103" type="line"/>
      <point x="579" y="686" type="line"/>
      <point x="627" y="686" type="line"/>
      <point x="530" y="0" type="line"/>
      <point x="482" y="0" type="line"/>
    </contour>
    <contour>
      <point x="311" y="0" type="move" name="Bottom"/>
    </contour>
  </outline>
</glyph>
